M48
;GenerationSoftware,Autodesk,EAGLE,9.2.2*%
;CreationDate,2020-02-05T18:13:41Z*%
FMAT,2
ICI,OFF
METRIC,TZ,000.000
T3C0.350
T2C1.016
T1C15.500
%
G90
M71
T1
X116240Y11900
X96940Y11900
X77640Y11900
X58340Y11900
X39040Y11900
X19740Y11900
X116240Y31200
X116240Y50500
X116240Y69800
X96940Y69800
X96940Y50500
X96940Y31200
X77640Y69800
X77640Y50500
X77640Y31200
X58340Y69800
X58340Y50500
X58340Y31200
X39040Y69800
X39040Y50500
X39040Y31200
X19740Y69800
X19740Y50500
X19740Y31200
T2
X4300Y45980
X4300Y43440
X4300Y40900
X4300Y38360
X4300Y35820
T3
X116500Y2150
X4150Y79500
X3200Y60177
X3550Y50250
X3100Y23750
X3300Y21556
X3350Y2100
X3300Y11950
X9472Y11900
X7550Y31100
X7250Y50400
X9472Y69950
X3200Y69950
X27188Y38788
X46900Y39100
X65900Y38600
X84620Y38140
X104400Y38300
X27700Y19600
X46700Y19500
X66000Y19200
X85500Y19500
X104600Y19400
X126794Y20985
X26988Y58088
X46700Y57900
X65800Y57700
X85200Y57900
X104400Y57800
X124200Y57800
X27600Y77600
X46400Y77200
X65800Y76800
X85300Y77000
X104105Y76705
X124300Y78615
X124400Y40115
X126705Y1795
X49450Y1415
X68900Y1315
X89100Y1350
X107500Y1265
X6450Y58800
X6440Y78740
X6590Y20790
X6240Y1290
X10750Y62450
X6450Y62550
X30200Y1416
X26200Y37700
X45712Y37412
X64712Y37662
X83962Y37662
X103312Y37462
X26100Y18400
X45412Y18312
X64462Y18262
X84112Y18412
X103212Y18562
X122800Y19200
X26000Y57000
X45212Y57012
X64662Y56812
X83962Y56862
X103062Y57062
X122800Y58000
X26400Y76600
X45812Y76512
X64512Y76362
X83812Y76562
X103062Y76562
X122800Y76900
X122800Y38600
X126200Y900
X47050Y550
X66450Y550
X85400Y550
X104550Y600
X4950Y950
X4900Y19950
X7600Y44800
X7615Y39135
X7859Y78006
X8000Y5700
X4950Y5700
X7800Y24950
X18794Y40873
X7600Y57100
X27900Y581
X31950Y41696
X127500Y22000
X127200Y60757
X127443Y79857
X127400Y41200
X31900Y60996
X71100Y43600
X90845Y43345
X110045Y42945
X51800Y42300
X31900Y22396
X52195Y23395
X71400Y23900
X90895Y23895
X110145Y23445
X52145Y61945
X71626Y62826
X90645Y62645
X109300Y61900
X31700Y3096
X51000Y3800
X71476Y4876
X90645Y4545
X109745Y4245
X31400Y80235
X51050Y80250
X70400Y80250
X89943Y80257
X109000Y80300
X2200Y80200
X2305Y60837
X2500Y49350
X2200Y3200
X2334Y22216
X7700Y17350
X2334Y17250
X8900Y43300
X8450Y75393
X2200Y75350
X7250Y55250
X2305Y55250
X11900Y4400
X33655Y42955
X126100Y23066
X127000Y62200
X127042Y80742
X127242Y42242
X52188Y44088
X70662Y45624
X89700Y45324
X109388Y44888
X32655Y24555
X51988Y24888
X70662Y26324
X90538Y25538
X109938Y24938
X32555Y63155
X51738Y63638
X70662Y64924
X90338Y64238
X109738Y63638
X33900Y4500
X52688Y4588
X72419Y5219
X91538Y4938
X110838Y4438
X30200Y81050
X49600Y81150
X69400Y81000
X89500Y81100
X108250Y80950
X1450Y80950
X1571Y61571
X1600Y22950
X1600Y4000
X7600Y18300
X1600Y18050
X12250Y42394
X8400Y76200
X1450Y76150
X7200Y56350
X1497Y56350
X8250Y3694
X97150Y2150
X77750Y2150
X58500Y2150
X39300Y2150
X20200Y2200
X116250Y79500
X95297Y79448
X77550Y79500
X56750Y79500
X39200Y79500
X20000Y79500
X116300Y60198
X97050Y60198
X77950Y60198
X58500Y60198
X39300Y60177
X20000Y60177
X116450Y21598
X97200Y21598
X77850Y21600
X58350Y21598
X39150Y21577
X19900Y21577
X116350Y40898
X97150Y40898
X77900Y40898
X58600Y40898
X38094Y40927
X5716Y24900
M30