G75*
%MOIN*%
%OFA0B0*%
%FSLAX25Y25*%
%IPPOS*%
%LPD*%
%AMOC8*
5,1,8,0,0,1.08239X$1,22.5*
%
%ADD10C,0.61824*%
%ADD11R,0.05131X0.04737*%
%ADD12R,0.03950X0.03950*%
%ADD13R,0.04737X0.05131*%
%ADD14C,0.06800*%
%ADD15C,0.03378*%
D10*
X0080717Y0057361D03*
X0156701Y0057361D03*
X0232685Y0057361D03*
X0308669Y0057361D03*
X0384654Y0057361D03*
X0460638Y0057361D03*
X0460638Y0133346D03*
X0384654Y0133346D03*
X0308669Y0133346D03*
X0232685Y0133346D03*
X0156701Y0133346D03*
X0080717Y0133346D03*
X0080717Y0209330D03*
X0156701Y0209330D03*
X0232685Y0209330D03*
X0308669Y0209330D03*
X0384654Y0209330D03*
X0460638Y0209330D03*
X0460638Y0285314D03*
X0384654Y0285314D03*
X0308669Y0285314D03*
X0232685Y0285314D03*
X0156701Y0285314D03*
X0080717Y0285314D03*
D11*
X0046291Y0267755D03*
X0040291Y0267755D03*
X0040291Y0261062D03*
X0046291Y0261062D03*
X0046291Y0234771D03*
X0040291Y0234771D03*
X0040291Y0228078D03*
X0046291Y0228078D03*
X0046291Y0191771D03*
X0040291Y0191771D03*
X0040291Y0185078D03*
X0046291Y0185078D03*
X0046291Y0158787D03*
X0040291Y0158787D03*
X0040291Y0152094D03*
X0046291Y0152094D03*
X0046291Y0115787D03*
X0040291Y0115787D03*
X0040291Y0109094D03*
X0046291Y0109094D03*
X0046291Y0082802D03*
X0040291Y0082802D03*
X0040291Y0076109D03*
X0046291Y0076109D03*
X0046291Y0039802D03*
X0040291Y0039802D03*
X0040291Y0033109D03*
X0046291Y0033109D03*
X0116276Y0033109D03*
X0122276Y0033109D03*
X0122276Y0039802D03*
X0116276Y0039802D03*
X0116276Y0076109D03*
X0122276Y0076109D03*
X0122276Y0082802D03*
X0116276Y0082802D03*
X0116276Y0109094D03*
X0122276Y0109094D03*
X0122276Y0115787D03*
X0116276Y0115787D03*
X0116276Y0152094D03*
X0122276Y0152094D03*
X0122276Y0158787D03*
X0116276Y0158787D03*
X0116276Y0185078D03*
X0122276Y0185078D03*
X0122276Y0191771D03*
X0116276Y0191771D03*
X0116276Y0228078D03*
X0122276Y0228078D03*
X0122276Y0234771D03*
X0116276Y0234771D03*
X0116276Y0261062D03*
X0122276Y0261062D03*
X0122276Y0267755D03*
X0116276Y0267755D03*
X0116276Y0304062D03*
X0122276Y0304062D03*
X0122276Y0310755D03*
X0116276Y0310755D03*
X0046291Y0310755D03*
X0040291Y0310755D03*
X0040291Y0304062D03*
X0046291Y0304062D03*
X0192260Y0304062D03*
X0198260Y0304062D03*
X0198260Y0310755D03*
X0192260Y0310755D03*
X0192260Y0267755D03*
X0198260Y0267755D03*
X0198260Y0261062D03*
X0192260Y0261062D03*
X0192260Y0234771D03*
X0198260Y0234771D03*
X0198260Y0228078D03*
X0192260Y0228078D03*
X0192260Y0191771D03*
X0198260Y0191771D03*
X0198260Y0185078D03*
X0192260Y0185078D03*
X0192260Y0158787D03*
X0198260Y0158787D03*
X0198260Y0152094D03*
X0192260Y0152094D03*
X0192260Y0115787D03*
X0198260Y0115787D03*
X0198260Y0109094D03*
X0192260Y0109094D03*
X0192260Y0082802D03*
X0198260Y0082802D03*
X0198260Y0076109D03*
X0192260Y0076109D03*
X0192260Y0039802D03*
X0198260Y0039802D03*
X0198260Y0033109D03*
X0192260Y0033109D03*
X0268244Y0033109D03*
X0274244Y0033109D03*
X0274244Y0039802D03*
X0268244Y0039802D03*
X0268244Y0076109D03*
X0274244Y0076109D03*
X0274244Y0082802D03*
X0268244Y0082802D03*
X0268244Y0109094D03*
X0274244Y0109094D03*
X0274244Y0115787D03*
X0268244Y0115787D03*
X0268244Y0152094D03*
X0274244Y0152094D03*
X0274244Y0158787D03*
X0268244Y0158787D03*
X0268244Y0185078D03*
X0274244Y0185078D03*
X0274244Y0191771D03*
X0268244Y0191771D03*
X0268244Y0228078D03*
X0274244Y0228078D03*
X0274244Y0234771D03*
X0268244Y0234771D03*
X0268244Y0261062D03*
X0274244Y0261062D03*
X0274244Y0267755D03*
X0268244Y0267755D03*
X0268244Y0304062D03*
X0274244Y0304062D03*
X0274244Y0310755D03*
X0268244Y0310755D03*
X0344228Y0310755D03*
X0350228Y0310755D03*
X0350228Y0304062D03*
X0344228Y0304062D03*
X0344228Y0267755D03*
X0350228Y0267755D03*
X0350228Y0261062D03*
X0344228Y0261062D03*
X0344228Y0234771D03*
X0350228Y0234771D03*
X0350228Y0228078D03*
X0344228Y0228078D03*
X0344228Y0191771D03*
X0350228Y0191771D03*
X0350228Y0185078D03*
X0344228Y0185078D03*
X0344228Y0158787D03*
X0350228Y0158787D03*
X0350228Y0152094D03*
X0344228Y0152094D03*
X0344228Y0115787D03*
X0350228Y0115787D03*
X0350228Y0109094D03*
X0344228Y0109094D03*
X0344228Y0082802D03*
X0350228Y0082802D03*
X0350228Y0076109D03*
X0344228Y0076109D03*
X0344228Y0039802D03*
X0350228Y0039802D03*
X0350228Y0033109D03*
X0344228Y0033109D03*
X0420213Y0033109D03*
X0426213Y0033109D03*
X0426213Y0039802D03*
X0420213Y0039802D03*
X0420213Y0076109D03*
X0426213Y0076109D03*
X0426213Y0082802D03*
X0420213Y0082802D03*
X0420213Y0109094D03*
X0426213Y0109094D03*
X0426213Y0115787D03*
X0420213Y0115787D03*
X0420213Y0152094D03*
X0426213Y0152094D03*
X0426213Y0158787D03*
X0420213Y0158787D03*
X0420213Y0185078D03*
X0426213Y0185078D03*
X0426213Y0191771D03*
X0420213Y0191771D03*
X0420213Y0228078D03*
X0426213Y0228078D03*
X0426213Y0234771D03*
X0420213Y0234771D03*
X0420213Y0261062D03*
X0426213Y0261062D03*
X0426213Y0267755D03*
X0420213Y0267755D03*
X0420213Y0304062D03*
X0426213Y0304062D03*
X0426213Y0310755D03*
X0420213Y0310755D03*
X0496197Y0310755D03*
X0502197Y0310755D03*
X0502197Y0304062D03*
X0496197Y0304062D03*
X0496197Y0267755D03*
X0502197Y0267755D03*
X0502197Y0261062D03*
X0496197Y0261062D03*
X0496197Y0234771D03*
X0502197Y0234771D03*
X0502197Y0228078D03*
X0496197Y0228078D03*
X0496197Y0191771D03*
X0502197Y0191771D03*
X0502197Y0185078D03*
X0496197Y0185078D03*
X0496197Y0158787D03*
X0502197Y0158787D03*
X0502197Y0152094D03*
X0496197Y0152094D03*
X0496197Y0115787D03*
X0502197Y0115787D03*
X0502197Y0109094D03*
X0496197Y0109094D03*
X0496197Y0082802D03*
X0502197Y0082802D03*
X0502197Y0076109D03*
X0496197Y0076109D03*
X0496197Y0039802D03*
X0502197Y0039802D03*
X0502197Y0033109D03*
X0496197Y0033109D03*
D12*
X0496197Y0047503D03*
X0502197Y0047503D03*
X0502197Y0053409D03*
X0496197Y0053409D03*
X0496197Y0062503D03*
X0496197Y0068409D03*
X0502197Y0068409D03*
X0502197Y0062503D03*
X0471913Y0092684D03*
X0471913Y0098684D03*
X0466008Y0098684D03*
X0466008Y0092684D03*
X0456913Y0092684D03*
X0451008Y0092684D03*
X0451008Y0098684D03*
X0456913Y0098684D03*
X0426213Y0123487D03*
X0426213Y0129393D03*
X0420213Y0129393D03*
X0420213Y0123487D03*
X0420213Y0138487D03*
X0426213Y0138487D03*
X0426213Y0144393D03*
X0420213Y0144393D03*
X0395929Y0168669D03*
X0390024Y0168669D03*
X0390024Y0174669D03*
X0395929Y0174669D03*
X0380929Y0174669D03*
X0375024Y0174669D03*
X0375024Y0168669D03*
X0380929Y0168669D03*
X0350228Y0144393D03*
X0344228Y0144393D03*
X0344228Y0138487D03*
X0350228Y0138487D03*
X0350228Y0129393D03*
X0350228Y0123487D03*
X0344228Y0123487D03*
X0344228Y0129393D03*
X0319945Y0098684D03*
X0314039Y0098684D03*
X0314039Y0092684D03*
X0319945Y0092684D03*
X0304945Y0092684D03*
X0299039Y0092684D03*
X0299039Y0098684D03*
X0304945Y0098684D03*
X0274244Y0123487D03*
X0274244Y0129393D03*
X0268244Y0129393D03*
X0268244Y0123487D03*
X0268244Y0138487D03*
X0274244Y0138487D03*
X0274244Y0144393D03*
X0268244Y0144393D03*
X0243961Y0168669D03*
X0238055Y0168669D03*
X0228961Y0168669D03*
X0223055Y0168669D03*
X0223055Y0174669D03*
X0228961Y0174669D03*
X0238055Y0174669D03*
X0243961Y0174669D03*
X0268244Y0199472D03*
X0268244Y0205377D03*
X0274244Y0205377D03*
X0274244Y0199472D03*
X0274244Y0214472D03*
X0268244Y0214472D03*
X0268244Y0220377D03*
X0274244Y0220377D03*
X0299039Y0244653D03*
X0304945Y0244653D03*
X0304945Y0250653D03*
X0299039Y0250653D03*
X0314039Y0250653D03*
X0319945Y0250653D03*
X0319945Y0244653D03*
X0314039Y0244653D03*
X0344228Y0220377D03*
X0350228Y0220377D03*
X0350228Y0214472D03*
X0344228Y0214472D03*
X0344228Y0205377D03*
X0344228Y0199472D03*
X0350228Y0199472D03*
X0350228Y0205377D03*
X0319945Y0174669D03*
X0314039Y0174669D03*
X0314039Y0168669D03*
X0319945Y0168669D03*
X0304945Y0168669D03*
X0299039Y0168669D03*
X0299039Y0174669D03*
X0304945Y0174669D03*
X0243961Y0244653D03*
X0238055Y0244653D03*
X0228961Y0244653D03*
X0223055Y0244653D03*
X0223055Y0250653D03*
X0228961Y0250653D03*
X0238055Y0250653D03*
X0243961Y0250653D03*
X0268244Y0275456D03*
X0274244Y0275456D03*
X0274244Y0281361D03*
X0268244Y0281361D03*
X0268244Y0290456D03*
X0274244Y0290456D03*
X0274244Y0296361D03*
X0268244Y0296361D03*
X0243961Y0320637D03*
X0238055Y0320637D03*
X0228961Y0320637D03*
X0223055Y0320637D03*
X0223055Y0326637D03*
X0228961Y0326637D03*
X0238055Y0326637D03*
X0243961Y0326637D03*
X0198260Y0296361D03*
X0192260Y0296361D03*
X0192260Y0290456D03*
X0198260Y0290456D03*
X0198260Y0281361D03*
X0192260Y0281361D03*
X0192260Y0275456D03*
X0198260Y0275456D03*
X0167976Y0250653D03*
X0162071Y0250653D03*
X0162071Y0244653D03*
X0167976Y0244653D03*
X0152976Y0244653D03*
X0147071Y0244653D03*
X0147071Y0250653D03*
X0152976Y0250653D03*
X0122276Y0275456D03*
X0116276Y0275456D03*
X0116276Y0281361D03*
X0122276Y0281361D03*
X0122276Y0290456D03*
X0116276Y0290456D03*
X0116276Y0296361D03*
X0122276Y0296361D03*
X0147071Y0320637D03*
X0152976Y0320637D03*
X0152976Y0326637D03*
X0147071Y0326637D03*
X0162071Y0326637D03*
X0167976Y0326637D03*
X0167976Y0320637D03*
X0162071Y0320637D03*
X0091992Y0320637D03*
X0086087Y0320637D03*
X0086087Y0326637D03*
X0091992Y0326637D03*
X0076992Y0326637D03*
X0071087Y0326637D03*
X0071087Y0320637D03*
X0076992Y0320637D03*
X0046291Y0296361D03*
X0040291Y0296361D03*
X0040291Y0290456D03*
X0046291Y0290456D03*
X0046291Y0281361D03*
X0040291Y0281361D03*
X0040291Y0275456D03*
X0046291Y0275456D03*
X0071087Y0250653D03*
X0076992Y0250653D03*
X0076992Y0244653D03*
X0071087Y0244653D03*
X0086087Y0244653D03*
X0091992Y0244653D03*
X0091992Y0250653D03*
X0086087Y0250653D03*
X0116276Y0220377D03*
X0122276Y0220377D03*
X0122276Y0214472D03*
X0116276Y0214472D03*
X0116276Y0205377D03*
X0116276Y0199472D03*
X0122276Y0199472D03*
X0122276Y0205377D03*
X0147071Y0174669D03*
X0152976Y0174669D03*
X0152976Y0168669D03*
X0147071Y0168669D03*
X0162071Y0168669D03*
X0167976Y0168669D03*
X0167976Y0174669D03*
X0162071Y0174669D03*
X0192260Y0199472D03*
X0192260Y0205377D03*
X0198260Y0205377D03*
X0198260Y0199472D03*
X0198260Y0214472D03*
X0192260Y0214472D03*
X0192260Y0220377D03*
X0198260Y0220377D03*
X0091992Y0174669D03*
X0086087Y0174669D03*
X0086087Y0168669D03*
X0091992Y0168669D03*
X0076992Y0168669D03*
X0071087Y0168669D03*
X0071087Y0174669D03*
X0076992Y0174669D03*
X0046291Y0199472D03*
X0046291Y0205377D03*
X0040291Y0205377D03*
X0040291Y0199472D03*
X0040291Y0214472D03*
X0046291Y0214472D03*
X0046291Y0220377D03*
X0040291Y0220377D03*
X0040291Y0144393D03*
X0046291Y0144393D03*
X0046291Y0138487D03*
X0040291Y0138487D03*
X0040291Y0129393D03*
X0040291Y0123487D03*
X0046291Y0123487D03*
X0046291Y0129393D03*
X0071087Y0098684D03*
X0076992Y0098684D03*
X0076992Y0092684D03*
X0071087Y0092684D03*
X0086087Y0092684D03*
X0091992Y0092684D03*
X0091992Y0098684D03*
X0086087Y0098684D03*
X0116276Y0123487D03*
X0116276Y0129393D03*
X0122276Y0129393D03*
X0122276Y0123487D03*
X0122276Y0138487D03*
X0116276Y0138487D03*
X0116276Y0144393D03*
X0122276Y0144393D03*
X0147071Y0098684D03*
X0152976Y0098684D03*
X0152976Y0092684D03*
X0147071Y0092684D03*
X0162071Y0092684D03*
X0167976Y0092684D03*
X0167976Y0098684D03*
X0162071Y0098684D03*
X0192260Y0123487D03*
X0192260Y0129393D03*
X0198260Y0129393D03*
X0198260Y0123487D03*
X0198260Y0138487D03*
X0192260Y0138487D03*
X0192260Y0144393D03*
X0198260Y0144393D03*
X0223055Y0098684D03*
X0228961Y0098684D03*
X0228961Y0092684D03*
X0223055Y0092684D03*
X0238055Y0092684D03*
X0238055Y0098684D03*
X0243961Y0098684D03*
X0243961Y0092684D03*
X0268244Y0068409D03*
X0268244Y0062503D03*
X0274244Y0062503D03*
X0274244Y0068409D03*
X0274244Y0053409D03*
X0268244Y0053409D03*
X0268244Y0047503D03*
X0274244Y0047503D03*
X0299039Y0022700D03*
X0304945Y0022700D03*
X0304945Y0016700D03*
X0299039Y0016700D03*
X0314039Y0016700D03*
X0319945Y0016700D03*
X0319945Y0022700D03*
X0314039Y0022700D03*
X0344228Y0047503D03*
X0350228Y0047503D03*
X0350228Y0053409D03*
X0344228Y0053409D03*
X0344228Y0062503D03*
X0344228Y0068409D03*
X0350228Y0068409D03*
X0350228Y0062503D03*
X0375024Y0092684D03*
X0380929Y0092684D03*
X0380929Y0098684D03*
X0375024Y0098684D03*
X0390024Y0098684D03*
X0395929Y0098684D03*
X0395929Y0092684D03*
X0390024Y0092684D03*
X0420213Y0068409D03*
X0420213Y0062503D03*
X0426213Y0062503D03*
X0426213Y0068409D03*
X0426213Y0053409D03*
X0420213Y0053409D03*
X0420213Y0047503D03*
X0426213Y0047503D03*
X0451008Y0022700D03*
X0456913Y0022700D03*
X0466008Y0022700D03*
X0471913Y0022700D03*
X0471913Y0016700D03*
X0466008Y0016700D03*
X0456913Y0016700D03*
X0451008Y0016700D03*
X0395929Y0016700D03*
X0390024Y0016700D03*
X0390024Y0022700D03*
X0395929Y0022700D03*
X0380929Y0022700D03*
X0375024Y0022700D03*
X0375024Y0016700D03*
X0380929Y0016700D03*
X0243961Y0016700D03*
X0238055Y0016700D03*
X0228961Y0016700D03*
X0223055Y0016700D03*
X0223055Y0022700D03*
X0228961Y0022700D03*
X0238055Y0022700D03*
X0243961Y0022700D03*
X0198260Y0047503D03*
X0192260Y0047503D03*
X0192260Y0053409D03*
X0198260Y0053409D03*
X0198260Y0062503D03*
X0198260Y0068409D03*
X0192260Y0068409D03*
X0192260Y0062503D03*
X0167976Y0022700D03*
X0162071Y0022700D03*
X0162071Y0016700D03*
X0167976Y0016700D03*
X0152976Y0016700D03*
X0147071Y0016700D03*
X0147071Y0022700D03*
X0152976Y0022700D03*
X0122276Y0047503D03*
X0116276Y0047503D03*
X0116276Y0053409D03*
X0122276Y0053409D03*
X0122276Y0062503D03*
X0122276Y0068409D03*
X0116276Y0068409D03*
X0116276Y0062503D03*
X0091992Y0022700D03*
X0086087Y0022700D03*
X0086087Y0016700D03*
X0091992Y0016700D03*
X0076992Y0016700D03*
X0071087Y0016700D03*
X0071087Y0022700D03*
X0076992Y0022700D03*
X0046291Y0047503D03*
X0040291Y0047503D03*
X0040291Y0053409D03*
X0046291Y0053409D03*
X0046291Y0062503D03*
X0046291Y0068409D03*
X0040291Y0068409D03*
X0040291Y0062503D03*
X0344228Y0275456D03*
X0350228Y0275456D03*
X0350228Y0281361D03*
X0344228Y0281361D03*
X0344228Y0290456D03*
X0350228Y0290456D03*
X0350228Y0296361D03*
X0344228Y0296361D03*
X0319945Y0320637D03*
X0314039Y0320637D03*
X0314039Y0326637D03*
X0319945Y0326637D03*
X0304945Y0326637D03*
X0299039Y0326637D03*
X0299039Y0320637D03*
X0304945Y0320637D03*
X0375024Y0320637D03*
X0380929Y0320637D03*
X0380929Y0326637D03*
X0375024Y0326637D03*
X0390024Y0326637D03*
X0395929Y0326637D03*
X0395929Y0320637D03*
X0390024Y0320637D03*
X0420213Y0296361D03*
X0426213Y0296361D03*
X0426213Y0290456D03*
X0420213Y0290456D03*
X0420213Y0281361D03*
X0426213Y0281361D03*
X0426213Y0275456D03*
X0420213Y0275456D03*
X0395929Y0250653D03*
X0390024Y0250653D03*
X0390024Y0244653D03*
X0395929Y0244653D03*
X0380929Y0244653D03*
X0375024Y0244653D03*
X0375024Y0250653D03*
X0380929Y0250653D03*
X0420213Y0220377D03*
X0426213Y0220377D03*
X0426213Y0214472D03*
X0420213Y0214472D03*
X0420213Y0205377D03*
X0420213Y0199472D03*
X0426213Y0199472D03*
X0426213Y0205377D03*
X0451008Y0174669D03*
X0456913Y0174669D03*
X0466008Y0174669D03*
X0471913Y0174669D03*
X0471913Y0168669D03*
X0466008Y0168669D03*
X0456913Y0168669D03*
X0451008Y0168669D03*
X0496197Y0144393D03*
X0502197Y0144393D03*
X0502197Y0138487D03*
X0496197Y0138487D03*
X0496197Y0129393D03*
X0496197Y0123487D03*
X0502197Y0123487D03*
X0502197Y0129393D03*
X0502197Y0199472D03*
X0502197Y0205377D03*
X0496197Y0205377D03*
X0496197Y0199472D03*
X0496197Y0214472D03*
X0502197Y0214472D03*
X0502197Y0220377D03*
X0496197Y0220377D03*
X0471913Y0244653D03*
X0466008Y0244653D03*
X0456913Y0244653D03*
X0451008Y0244653D03*
X0451008Y0250653D03*
X0456913Y0250653D03*
X0466008Y0250653D03*
X0471913Y0250653D03*
X0496197Y0275456D03*
X0502197Y0275456D03*
X0502197Y0281361D03*
X0496197Y0281361D03*
X0496197Y0290456D03*
X0502197Y0290456D03*
X0502197Y0296361D03*
X0496197Y0296361D03*
X0471913Y0320637D03*
X0466008Y0320637D03*
X0456913Y0320637D03*
X0451008Y0320637D03*
X0451008Y0326637D03*
X0456913Y0326637D03*
X0466008Y0326637D03*
X0471913Y0326637D03*
D13*
X0479614Y0326637D03*
X0486307Y0326637D03*
X0486307Y0320637D03*
X0479614Y0320637D03*
X0443307Y0320637D03*
X0436614Y0320637D03*
X0436614Y0326637D03*
X0443307Y0326637D03*
X0410323Y0326637D03*
X0410323Y0320637D03*
X0403630Y0320637D03*
X0403630Y0326637D03*
X0367323Y0326637D03*
X0360630Y0326637D03*
X0360630Y0320637D03*
X0367323Y0320637D03*
X0334339Y0320637D03*
X0327646Y0320637D03*
X0327646Y0326637D03*
X0334339Y0326637D03*
X0291339Y0326637D03*
X0291339Y0320637D03*
X0284646Y0320637D03*
X0284646Y0326637D03*
X0258354Y0326637D03*
X0251661Y0326637D03*
X0251661Y0320637D03*
X0258354Y0320637D03*
X0215354Y0320637D03*
X0208661Y0320637D03*
X0208661Y0326637D03*
X0215354Y0326637D03*
X0182370Y0326637D03*
X0182370Y0320637D03*
X0175677Y0320637D03*
X0175677Y0326637D03*
X0139370Y0326637D03*
X0132677Y0326637D03*
X0132677Y0320637D03*
X0139370Y0320637D03*
X0106386Y0320637D03*
X0099693Y0320637D03*
X0099693Y0326637D03*
X0106386Y0326637D03*
X0063386Y0326637D03*
X0063386Y0320637D03*
X0056693Y0320637D03*
X0056693Y0326637D03*
X0056693Y0250653D03*
X0056693Y0244653D03*
X0063386Y0244653D03*
X0063386Y0250653D03*
X0099693Y0250653D03*
X0106386Y0250653D03*
X0106386Y0244653D03*
X0099693Y0244653D03*
X0132677Y0244653D03*
X0139370Y0244653D03*
X0139370Y0250653D03*
X0132677Y0250653D03*
X0175677Y0250653D03*
X0175677Y0244653D03*
X0182370Y0244653D03*
X0182370Y0250653D03*
X0208661Y0250653D03*
X0215354Y0250653D03*
X0215354Y0244653D03*
X0208661Y0244653D03*
X0251661Y0244653D03*
X0258354Y0244653D03*
X0258354Y0250653D03*
X0251661Y0250653D03*
X0284646Y0250653D03*
X0284646Y0244653D03*
X0291339Y0244653D03*
X0291339Y0250653D03*
X0327646Y0250653D03*
X0334339Y0250653D03*
X0334339Y0244653D03*
X0327646Y0244653D03*
X0360630Y0244653D03*
X0367323Y0244653D03*
X0367323Y0250653D03*
X0360630Y0250653D03*
X0403630Y0250653D03*
X0403630Y0244653D03*
X0410323Y0244653D03*
X0410323Y0250653D03*
X0436614Y0250653D03*
X0443307Y0250653D03*
X0443307Y0244653D03*
X0436614Y0244653D03*
X0479614Y0244653D03*
X0486307Y0244653D03*
X0486307Y0250653D03*
X0479614Y0250653D03*
X0479614Y0174669D03*
X0486307Y0174669D03*
X0486307Y0168669D03*
X0479614Y0168669D03*
X0443307Y0168669D03*
X0436614Y0168669D03*
X0436614Y0174669D03*
X0443307Y0174669D03*
X0410323Y0174669D03*
X0410323Y0168669D03*
X0403630Y0168669D03*
X0403630Y0174669D03*
X0367323Y0174669D03*
X0360630Y0174669D03*
X0360630Y0168669D03*
X0367323Y0168669D03*
X0334339Y0168669D03*
X0327646Y0168669D03*
X0327646Y0174669D03*
X0334339Y0174669D03*
X0291339Y0174669D03*
X0291339Y0168669D03*
X0284646Y0168669D03*
X0284646Y0174669D03*
X0258354Y0174669D03*
X0251661Y0174669D03*
X0251661Y0168669D03*
X0258354Y0168669D03*
X0215354Y0168669D03*
X0208661Y0168669D03*
X0208661Y0174669D03*
X0215354Y0174669D03*
X0182370Y0174669D03*
X0182370Y0168669D03*
X0175677Y0168669D03*
X0175677Y0174669D03*
X0139370Y0174669D03*
X0132677Y0174669D03*
X0132677Y0168669D03*
X0139370Y0168669D03*
X0106386Y0168669D03*
X0099693Y0168669D03*
X0099693Y0174669D03*
X0106386Y0174669D03*
X0063386Y0174669D03*
X0063386Y0168669D03*
X0056693Y0168669D03*
X0056693Y0174669D03*
X0056693Y0098684D03*
X0056693Y0092684D03*
X0063386Y0092684D03*
X0063386Y0098684D03*
X0099693Y0098684D03*
X0099693Y0092684D03*
X0106386Y0092684D03*
X0106386Y0098684D03*
X0132677Y0098684D03*
X0132677Y0092684D03*
X0139370Y0092684D03*
X0139370Y0098684D03*
X0175677Y0098684D03*
X0175677Y0092684D03*
X0182370Y0092684D03*
X0182370Y0098684D03*
X0208661Y0098684D03*
X0208661Y0092684D03*
X0215354Y0092684D03*
X0215354Y0098684D03*
X0251661Y0098684D03*
X0251661Y0092684D03*
X0258354Y0092684D03*
X0258354Y0098684D03*
X0284646Y0098684D03*
X0284646Y0092684D03*
X0291339Y0092684D03*
X0291339Y0098684D03*
X0327646Y0098684D03*
X0327646Y0092684D03*
X0334339Y0092684D03*
X0334339Y0098684D03*
X0360630Y0098684D03*
X0360630Y0092684D03*
X0367323Y0092684D03*
X0367323Y0098684D03*
X0403630Y0098684D03*
X0403630Y0092684D03*
X0410323Y0092684D03*
X0410323Y0098684D03*
X0436614Y0098684D03*
X0436614Y0092684D03*
X0443307Y0092684D03*
X0443307Y0098684D03*
X0479614Y0098684D03*
X0479614Y0092684D03*
X0486307Y0092684D03*
X0486307Y0098684D03*
X0486307Y0022700D03*
X0479614Y0022700D03*
X0479614Y0016700D03*
X0486307Y0016700D03*
X0443307Y0016700D03*
X0436614Y0016700D03*
X0436614Y0022700D03*
X0443307Y0022700D03*
X0410323Y0022700D03*
X0410323Y0016700D03*
X0403630Y0016700D03*
X0403630Y0022700D03*
X0367323Y0022700D03*
X0360630Y0022700D03*
X0360630Y0016700D03*
X0367323Y0016700D03*
X0334339Y0016700D03*
X0327646Y0016700D03*
X0327646Y0022700D03*
X0334339Y0022700D03*
X0291339Y0022700D03*
X0291339Y0016700D03*
X0284646Y0016700D03*
X0284646Y0022700D03*
X0258354Y0022700D03*
X0251661Y0022700D03*
X0251661Y0016700D03*
X0258354Y0016700D03*
X0215354Y0016700D03*
X0208661Y0016700D03*
X0208661Y0022700D03*
X0215354Y0022700D03*
X0182370Y0022700D03*
X0182370Y0016700D03*
X0175677Y0016700D03*
X0175677Y0022700D03*
X0139370Y0022700D03*
X0132677Y0022700D03*
X0132677Y0016700D03*
X0139370Y0016700D03*
X0106386Y0016700D03*
X0099693Y0016700D03*
X0099693Y0022700D03*
X0106386Y0022700D03*
X0063386Y0022700D03*
X0063386Y0016700D03*
X0056693Y0016700D03*
X0056693Y0022700D03*
D14*
X0022929Y0151535D02*
X0016929Y0151535D01*
X0016929Y0161535D02*
X0022929Y0161535D01*
X0022929Y0171535D02*
X0016929Y0171535D01*
X0016929Y0181535D02*
X0022929Y0181535D01*
X0022929Y0191535D02*
X0016929Y0191535D01*
D15*
X0022488Y0014251D03*
X0027565Y0015588D03*
X0016189Y0018779D03*
X0011661Y0023109D03*
X0009299Y0026259D03*
X0022488Y0032952D03*
X0034496Y0032952D03*
X0035480Y0025055D03*
X0049850Y0027834D03*
X0082528Y0019172D03*
X0112843Y0012800D03*
X0121898Y0016087D03*
X0127803Y0022700D03*
X0136465Y0028228D03*
X0157724Y0018976D03*
X0188236Y0012676D03*
X0197685Y0016083D03*
X0203787Y0025472D03*
X0210432Y0028573D03*
X0233315Y0018976D03*
X0264614Y0012676D03*
X0274260Y0015690D03*
X0284401Y0029708D03*
X0288112Y0031056D03*
X0309102Y0018976D03*
X0339220Y0012676D03*
X0353787Y0015826D03*
X0359871Y0028406D03*
X0363385Y0029951D03*
X0385480Y0018976D03*
X0414614Y0012873D03*
X0426228Y0015493D03*
X0435068Y0027224D03*
X0439369Y0027983D03*
X0461661Y0018976D03*
X0499850Y0014054D03*
X0501838Y0017579D03*
X0409347Y0083590D03*
X0414811Y0086889D03*
X0436643Y0102815D03*
X0435826Y0108691D03*
X0461465Y0095542D03*
X0486465Y0086102D03*
X0502190Y0093128D03*
X0504969Y0097125D03*
X0499457Y0101323D03*
X0409741Y0158000D03*
X0414024Y0161298D03*
X0436249Y0179587D03*
X0433661Y0187235D03*
X0461071Y0171526D03*
X0486465Y0162480D03*
X0492764Y0168446D03*
X0504575Y0172716D03*
X0503953Y0176818D03*
X0491976Y0238070D03*
X0486465Y0238857D03*
X0503787Y0249713D03*
X0503000Y0255393D03*
X0460874Y0247510D03*
X0435039Y0261054D03*
X0433315Y0254212D03*
X0414024Y0238070D03*
X0408757Y0235165D03*
X0385087Y0247510D03*
X0359871Y0257146D03*
X0358661Y0263416D03*
X0338433Y0238464D03*
X0333560Y0234378D03*
X0309890Y0247510D03*
X0284992Y0257857D03*
X0281195Y0266118D03*
X0262055Y0237676D03*
X0257576Y0234181D03*
X0233315Y0247510D03*
X0208296Y0254390D03*
X0206692Y0261054D03*
X0186858Y0238464D03*
X0181001Y0234968D03*
X0157724Y0247427D03*
X0131168Y0259152D03*
X0128591Y0250653D03*
X0109251Y0239203D03*
X0105362Y0234920D03*
X0081740Y0247427D03*
X0045323Y0256377D03*
X0028394Y0256771D03*
X0015598Y0247427D03*
X0012073Y0250027D03*
X0009184Y0252916D03*
X0028394Y0242007D03*
X0032921Y0235314D03*
X0031346Y0232361D03*
X0031543Y0228031D03*
X0012073Y0228031D03*
X0008895Y0232361D03*
X0031543Y0208936D03*
X0016976Y0208346D03*
X0012843Y0204802D03*
X0032921Y0186889D03*
X0038039Y0180983D03*
X0051228Y0177417D03*
X0032980Y0164586D03*
X0076992Y0171430D03*
X0106150Y0158936D03*
X0110039Y0163219D03*
X0128787Y0174669D03*
X0135499Y0179624D03*
X0152976Y0171639D03*
X0182969Y0157803D03*
X0187646Y0164448D03*
X0206937Y0177046D03*
X0208464Y0184085D03*
X0233709Y0171526D03*
X0257772Y0158787D03*
X0262449Y0162480D03*
X0282921Y0182165D03*
X0281195Y0190134D03*
X0309693Y0171526D03*
X0333560Y0158787D03*
X0336149Y0160668D03*
X0360658Y0181161D03*
X0356150Y0188953D03*
X0385480Y0171526D03*
X0359448Y0111054D03*
X0360855Y0104587D03*
X0385677Y0095542D03*
X0339614Y0087283D03*
X0334150Y0083000D03*
X0309496Y0095550D03*
X0284102Y0104606D03*
X0281195Y0114150D03*
X0262843Y0086102D03*
X0256788Y0082409D03*
X0232724Y0095542D03*
X0208493Y0102618D03*
X0207676Y0108495D03*
X0186858Y0087283D03*
X0181788Y0082606D03*
X0157134Y0095458D03*
X0131562Y0107183D03*
X0128591Y0098684D03*
X0112055Y0087676D03*
X0105756Y0082952D03*
X0081346Y0095458D03*
X0033709Y0108739D03*
X0025505Y0108543D03*
X0015205Y0104015D03*
X0009299Y0100865D03*
X0012188Y0097976D03*
X0015992Y0095376D03*
X0022291Y0089054D03*
X0028943Y0092360D03*
X0032921Y0082558D03*
X0033315Y0078818D03*
X0012188Y0078424D03*
X0009299Y0081574D03*
X0015992Y0057558D03*
X0040291Y0057361D03*
X0032724Y0132952D03*
X0040291Y0285905D03*
X0015598Y0285905D03*
X0011661Y0307165D03*
X0008709Y0310314D03*
X0019339Y0323503D03*
X0011661Y0326259D03*
X0008709Y0329212D03*
X0028353Y0320509D03*
X0033942Y0317620D03*
X0036071Y0310511D03*
X0036268Y0307333D03*
X0081740Y0323503D03*
X0106937Y0312086D03*
X0111661Y0316023D03*
X0126622Y0326395D03*
X0121898Y0329606D03*
X0157331Y0323503D03*
X0183363Y0311740D03*
X0185677Y0314448D03*
X0203984Y0326456D03*
X0198276Y0329999D03*
X0226425Y0323503D03*
X0256985Y0311150D03*
X0262055Y0312873D03*
X0280165Y0326456D03*
X0276228Y0329409D03*
X0308315Y0323503D03*
X0332969Y0311937D03*
X0338827Y0313661D03*
X0357105Y0326485D03*
X0355362Y0329802D03*
X0378184Y0323298D03*
X0408757Y0311937D03*
X0412861Y0312498D03*
X0432134Y0326653D03*
X0429181Y0329212D03*
X0460677Y0323503D03*
X0486465Y0313267D03*
X0492370Y0320020D03*
X0504743Y0324910D03*
X0503165Y0328393D03*
M02*
