G75*
%MOIN*%
%OFA0B0*%
%FSLAX25Y25*%
%IPPOS*%
%LPD*%
%AMOC8*
5,1,8,0,0,1.08239X$1,22.5*
%
%ADD10C,0.00300*%
%ADD11C,0.00900*%
%ADD12R,0.00591X0.01181*%
%ADD13R,0.01181X0.01181*%
%ADD14R,0.01181X0.00591*%
%ADD15C,0.00600*%
D10*
X0005906Y0148093D02*
X0005906Y0149121D01*
X0005908Y0149184D01*
X0005914Y0149247D01*
X0005924Y0149310D01*
X0005937Y0149372D01*
X0005954Y0149433D01*
X0005975Y0149492D01*
X0006000Y0149551D01*
X0006028Y0149607D01*
X0006060Y0149662D01*
X0006095Y0149715D01*
X0006133Y0149765D01*
X0006174Y0149814D01*
X0006218Y0149859D01*
X0006265Y0149902D01*
X0006314Y0149941D01*
X0006366Y0149978D01*
X0006420Y0150011D01*
X0006476Y0150041D01*
X0006533Y0150068D01*
X0006592Y0150091D01*
X0006653Y0150110D01*
X0006714Y0150125D01*
X0006776Y0150137D01*
X0006839Y0150145D01*
X0006902Y0150149D01*
X0006966Y0150149D01*
X0007029Y0150145D01*
X0007092Y0150137D01*
X0007154Y0150125D01*
X0007215Y0150110D01*
X0007276Y0150091D01*
X0007335Y0150068D01*
X0007392Y0150041D01*
X0007448Y0150011D01*
X0007502Y0149978D01*
X0007554Y0149941D01*
X0007603Y0149902D01*
X0007650Y0149859D01*
X0007694Y0149814D01*
X0007735Y0149765D01*
X0007773Y0149715D01*
X0007808Y0149662D01*
X0007840Y0149607D01*
X0007868Y0149551D01*
X0007893Y0149492D01*
X0007914Y0149433D01*
X0007931Y0149372D01*
X0007944Y0149310D01*
X0007954Y0149247D01*
X0007960Y0149184D01*
X0007962Y0149121D01*
X0007961Y0149121D02*
X0007961Y0148093D01*
X0009606Y0148093D02*
X0005906Y0148093D01*
X0006728Y0151521D02*
X0005906Y0152549D01*
X0009606Y0152549D01*
X0009606Y0151521D02*
X0009606Y0153577D01*
X0009606Y0157213D02*
X0005906Y0157213D01*
X0005906Y0158241D01*
X0005908Y0158304D01*
X0005914Y0158367D01*
X0005924Y0158430D01*
X0005937Y0158492D01*
X0005954Y0158553D01*
X0005975Y0158612D01*
X0006000Y0158671D01*
X0006028Y0158727D01*
X0006060Y0158782D01*
X0006095Y0158835D01*
X0006133Y0158885D01*
X0006174Y0158934D01*
X0006218Y0158979D01*
X0006265Y0159022D01*
X0006314Y0159061D01*
X0006366Y0159098D01*
X0006420Y0159131D01*
X0006476Y0159161D01*
X0006533Y0159188D01*
X0006592Y0159211D01*
X0006653Y0159230D01*
X0006714Y0159245D01*
X0006776Y0159257D01*
X0006839Y0159265D01*
X0006902Y0159269D01*
X0006966Y0159269D01*
X0007029Y0159265D01*
X0007092Y0159257D01*
X0007154Y0159245D01*
X0007215Y0159230D01*
X0007276Y0159211D01*
X0007335Y0159188D01*
X0007392Y0159161D01*
X0007448Y0159131D01*
X0007502Y0159098D01*
X0007554Y0159061D01*
X0007603Y0159022D01*
X0007650Y0158979D01*
X0007694Y0158934D01*
X0007735Y0158885D01*
X0007773Y0158835D01*
X0007808Y0158782D01*
X0007840Y0158727D01*
X0007868Y0158671D01*
X0007893Y0158612D01*
X0007914Y0158553D01*
X0007931Y0158492D01*
X0007944Y0158430D01*
X0007954Y0158367D01*
X0007960Y0158304D01*
X0007962Y0158241D01*
X0007961Y0158241D02*
X0007961Y0157213D01*
X0009606Y0160641D02*
X0009606Y0162697D01*
X0009606Y0160641D02*
X0007550Y0162389D01*
X0005906Y0161772D02*
X0005908Y0161704D01*
X0005914Y0161636D01*
X0005923Y0161569D01*
X0005937Y0161503D01*
X0005954Y0161437D01*
X0005975Y0161372D01*
X0006000Y0161309D01*
X0006028Y0161247D01*
X0006060Y0161187D01*
X0006095Y0161129D01*
X0006133Y0161073D01*
X0006175Y0161019D01*
X0006219Y0160968D01*
X0006267Y0160920D01*
X0006317Y0160874D01*
X0006369Y0160831D01*
X0006424Y0160791D01*
X0006481Y0160754D01*
X0006540Y0160721D01*
X0006601Y0160691D01*
X0006664Y0160665D01*
X0006728Y0160642D01*
X0007551Y0162389D02*
X0007507Y0162432D01*
X0007460Y0162473D01*
X0007411Y0162510D01*
X0007360Y0162545D01*
X0007306Y0162576D01*
X0007251Y0162604D01*
X0007194Y0162628D01*
X0007136Y0162649D01*
X0007076Y0162666D01*
X0007016Y0162680D01*
X0006955Y0162689D01*
X0006893Y0162695D01*
X0006831Y0162697D01*
X0006773Y0162695D01*
X0006715Y0162690D01*
X0006658Y0162681D01*
X0006601Y0162668D01*
X0006545Y0162652D01*
X0006490Y0162632D01*
X0006437Y0162609D01*
X0006385Y0162583D01*
X0006335Y0162553D01*
X0006287Y0162520D01*
X0006241Y0162485D01*
X0006198Y0162446D01*
X0006157Y0162405D01*
X0006118Y0162362D01*
X0006083Y0162316D01*
X0006050Y0162268D01*
X0006020Y0162218D01*
X0005994Y0162166D01*
X0005971Y0162113D01*
X0005951Y0162058D01*
X0005935Y0162002D01*
X0005922Y0161945D01*
X0005913Y0161888D01*
X0005908Y0161830D01*
X0005906Y0161772D01*
X0006728Y0166281D02*
X0008784Y0166281D01*
X0008784Y0166282D02*
X0008840Y0166284D01*
X0008896Y0166290D01*
X0008951Y0166299D01*
X0009006Y0166312D01*
X0009059Y0166329D01*
X0009111Y0166350D01*
X0009162Y0166374D01*
X0009211Y0166402D01*
X0009258Y0166432D01*
X0009303Y0166466D01*
X0009345Y0166503D01*
X0009385Y0166543D01*
X0009422Y0166585D01*
X0009456Y0166630D01*
X0009486Y0166677D01*
X0009514Y0166726D01*
X0009538Y0166777D01*
X0009559Y0166829D01*
X0009576Y0166882D01*
X0009589Y0166937D01*
X0009598Y0166992D01*
X0009604Y0167048D01*
X0009606Y0167104D01*
X0009606Y0168337D01*
X0007550Y0168337D01*
X0007550Y0167720D01*
X0006728Y0166282D02*
X0006672Y0166284D01*
X0006616Y0166290D01*
X0006561Y0166299D01*
X0006506Y0166312D01*
X0006453Y0166329D01*
X0006401Y0166350D01*
X0006350Y0166374D01*
X0006301Y0166402D01*
X0006254Y0166432D01*
X0006209Y0166466D01*
X0006167Y0166503D01*
X0006127Y0166543D01*
X0006090Y0166585D01*
X0006056Y0166630D01*
X0006026Y0166677D01*
X0005998Y0166726D01*
X0005974Y0166776D01*
X0005953Y0166829D01*
X0005936Y0166882D01*
X0005923Y0166937D01*
X0005914Y0166992D01*
X0005908Y0167048D01*
X0005906Y0167104D01*
X0005906Y0168337D01*
X0005906Y0170121D02*
X0009606Y0172177D01*
X0005906Y0172177D01*
X0005906Y0173961D02*
X0005906Y0174989D01*
X0005908Y0175051D01*
X0005913Y0175113D01*
X0005923Y0175174D01*
X0005936Y0175235D01*
X0005953Y0175295D01*
X0005973Y0175354D01*
X0005997Y0175411D01*
X0006024Y0175467D01*
X0006054Y0175521D01*
X0006088Y0175573D01*
X0006125Y0175623D01*
X0006165Y0175671D01*
X0006207Y0175716D01*
X0006252Y0175758D01*
X0006300Y0175798D01*
X0006350Y0175835D01*
X0006402Y0175869D01*
X0006456Y0175899D01*
X0006512Y0175926D01*
X0006569Y0175950D01*
X0006628Y0175970D01*
X0006688Y0175987D01*
X0006749Y0176000D01*
X0006810Y0176010D01*
X0006872Y0176015D01*
X0006934Y0176017D01*
X0008578Y0176017D01*
X0008640Y0176015D01*
X0008702Y0176010D01*
X0008763Y0176000D01*
X0008824Y0175987D01*
X0008884Y0175970D01*
X0008943Y0175950D01*
X0009000Y0175926D01*
X0009056Y0175899D01*
X0009110Y0175869D01*
X0009162Y0175835D01*
X0009212Y0175798D01*
X0009260Y0175758D01*
X0009305Y0175716D01*
X0009347Y0175671D01*
X0009387Y0175623D01*
X0009424Y0175573D01*
X0009458Y0175521D01*
X0009488Y0175467D01*
X0009515Y0175411D01*
X0009539Y0175354D01*
X0009559Y0175295D01*
X0009576Y0175235D01*
X0009589Y0175174D01*
X0009599Y0175113D01*
X0009604Y0175051D01*
X0009606Y0174989D01*
X0009606Y0173961D01*
X0005906Y0173961D01*
X0005906Y0170121D02*
X0009606Y0170121D01*
X0009606Y0179773D02*
X0005906Y0179773D01*
X0005906Y0180801D01*
X0005908Y0180864D01*
X0005914Y0180927D01*
X0005924Y0180990D01*
X0005937Y0181052D01*
X0005954Y0181113D01*
X0005975Y0181172D01*
X0006000Y0181231D01*
X0006028Y0181287D01*
X0006060Y0181342D01*
X0006095Y0181395D01*
X0006133Y0181445D01*
X0006174Y0181494D01*
X0006218Y0181539D01*
X0006265Y0181582D01*
X0006314Y0181621D01*
X0006366Y0181658D01*
X0006420Y0181691D01*
X0006476Y0181721D01*
X0006533Y0181748D01*
X0006592Y0181771D01*
X0006653Y0181790D01*
X0006714Y0181805D01*
X0006776Y0181817D01*
X0006839Y0181825D01*
X0006902Y0181829D01*
X0006966Y0181829D01*
X0007029Y0181825D01*
X0007092Y0181817D01*
X0007154Y0181805D01*
X0007215Y0181790D01*
X0007276Y0181771D01*
X0007335Y0181748D01*
X0007392Y0181721D01*
X0007448Y0181691D01*
X0007502Y0181658D01*
X0007554Y0181621D01*
X0007603Y0181582D01*
X0007650Y0181539D01*
X0007694Y0181494D01*
X0007735Y0181445D01*
X0007773Y0181395D01*
X0007808Y0181342D01*
X0007840Y0181287D01*
X0007868Y0181231D01*
X0007893Y0181172D01*
X0007914Y0181113D01*
X0007931Y0181052D01*
X0007944Y0180990D01*
X0007954Y0180927D01*
X0007960Y0180864D01*
X0007962Y0180801D01*
X0007961Y0180801D02*
X0007961Y0179773D01*
X0009606Y0183201D02*
X0009606Y0184229D01*
X0009604Y0184292D01*
X0009598Y0184355D01*
X0009588Y0184418D01*
X0009575Y0184480D01*
X0009558Y0184541D01*
X0009537Y0184600D01*
X0009512Y0184659D01*
X0009484Y0184715D01*
X0009452Y0184770D01*
X0009417Y0184823D01*
X0009379Y0184873D01*
X0009338Y0184922D01*
X0009294Y0184967D01*
X0009247Y0185010D01*
X0009198Y0185049D01*
X0009146Y0185086D01*
X0009092Y0185119D01*
X0009036Y0185149D01*
X0008979Y0185176D01*
X0008920Y0185199D01*
X0008859Y0185218D01*
X0008798Y0185233D01*
X0008736Y0185245D01*
X0008673Y0185253D01*
X0008610Y0185257D01*
X0008546Y0185257D01*
X0008483Y0185253D01*
X0008420Y0185245D01*
X0008358Y0185233D01*
X0008297Y0185218D01*
X0008236Y0185199D01*
X0008177Y0185176D01*
X0008120Y0185149D01*
X0008064Y0185119D01*
X0008010Y0185086D01*
X0007958Y0185049D01*
X0007909Y0185010D01*
X0007862Y0184967D01*
X0007818Y0184922D01*
X0007777Y0184873D01*
X0007739Y0184823D01*
X0007704Y0184770D01*
X0007672Y0184715D01*
X0007644Y0184659D01*
X0007619Y0184600D01*
X0007598Y0184541D01*
X0007581Y0184480D01*
X0007568Y0184418D01*
X0007558Y0184355D01*
X0007552Y0184292D01*
X0007550Y0184229D01*
X0007550Y0184435D02*
X0007550Y0183612D01*
X0007550Y0184435D02*
X0007548Y0184491D01*
X0007542Y0184547D01*
X0007533Y0184602D01*
X0007520Y0184657D01*
X0007503Y0184710D01*
X0007482Y0184762D01*
X0007458Y0184813D01*
X0007430Y0184862D01*
X0007400Y0184909D01*
X0007366Y0184954D01*
X0007329Y0184996D01*
X0007289Y0185036D01*
X0007247Y0185073D01*
X0007202Y0185107D01*
X0007155Y0185137D01*
X0007106Y0185165D01*
X0007055Y0185189D01*
X0007003Y0185210D01*
X0006950Y0185227D01*
X0006895Y0185240D01*
X0006840Y0185249D01*
X0006784Y0185255D01*
X0006728Y0185257D01*
X0006672Y0185255D01*
X0006616Y0185249D01*
X0006561Y0185240D01*
X0006506Y0185227D01*
X0006453Y0185210D01*
X0006401Y0185189D01*
X0006350Y0185165D01*
X0006301Y0185137D01*
X0006254Y0185107D01*
X0006209Y0185073D01*
X0006167Y0185036D01*
X0006127Y0184996D01*
X0006090Y0184954D01*
X0006056Y0184909D01*
X0006026Y0184862D01*
X0005998Y0184813D01*
X0005974Y0184762D01*
X0005953Y0184710D01*
X0005936Y0184657D01*
X0005923Y0184602D01*
X0005914Y0184547D01*
X0005908Y0184491D01*
X0005906Y0184435D01*
X0005906Y0183201D01*
X0005906Y0188893D02*
X0005906Y0189921D01*
X0005908Y0189984D01*
X0005914Y0190047D01*
X0005924Y0190110D01*
X0005937Y0190172D01*
X0005954Y0190233D01*
X0005975Y0190292D01*
X0006000Y0190351D01*
X0006028Y0190407D01*
X0006060Y0190462D01*
X0006095Y0190515D01*
X0006133Y0190565D01*
X0006174Y0190614D01*
X0006218Y0190659D01*
X0006265Y0190702D01*
X0006314Y0190741D01*
X0006366Y0190778D01*
X0006420Y0190811D01*
X0006476Y0190841D01*
X0006533Y0190868D01*
X0006592Y0190891D01*
X0006653Y0190910D01*
X0006714Y0190925D01*
X0006776Y0190937D01*
X0006839Y0190945D01*
X0006902Y0190949D01*
X0006966Y0190949D01*
X0007029Y0190945D01*
X0007092Y0190937D01*
X0007154Y0190925D01*
X0007215Y0190910D01*
X0007276Y0190891D01*
X0007335Y0190868D01*
X0007392Y0190841D01*
X0007448Y0190811D01*
X0007502Y0190778D01*
X0007554Y0190741D01*
X0007603Y0190702D01*
X0007650Y0190659D01*
X0007694Y0190614D01*
X0007735Y0190565D01*
X0007773Y0190515D01*
X0007808Y0190462D01*
X0007840Y0190407D01*
X0007868Y0190351D01*
X0007893Y0190292D01*
X0007914Y0190233D01*
X0007931Y0190172D01*
X0007944Y0190110D01*
X0007954Y0190047D01*
X0007960Y0189984D01*
X0007962Y0189921D01*
X0007961Y0189921D02*
X0007961Y0188893D01*
X0009606Y0188893D02*
X0005906Y0188893D01*
X0005906Y0193143D02*
X0008784Y0192321D01*
X0008784Y0194377D01*
X0009606Y0193760D02*
X0007961Y0193760D01*
D11*
X0026738Y0210967D02*
X0026738Y0217028D01*
X0024314Y0220268D02*
X0024314Y0226329D01*
X0021889Y0224511D02*
X0026738Y0224511D01*
X0024314Y0220268D02*
X0015827Y0222692D01*
X0020677Y0216119D02*
X0026738Y0210967D01*
X0018252Y0210966D02*
X0018143Y0211004D01*
X0018034Y0211045D01*
X0017927Y0211090D01*
X0017822Y0211138D01*
X0017718Y0211190D01*
X0017616Y0211245D01*
X0017516Y0211303D01*
X0017418Y0211365D01*
X0017322Y0211430D01*
X0017228Y0211498D01*
X0017136Y0211569D01*
X0017047Y0211643D01*
X0016960Y0211721D01*
X0016876Y0211800D01*
X0016795Y0211883D01*
X0016716Y0211968D01*
X0016641Y0212056D01*
X0016568Y0212146D01*
X0016498Y0212239D01*
X0016432Y0212334D01*
X0016368Y0212431D01*
X0016308Y0212530D01*
X0016251Y0212631D01*
X0016197Y0212734D01*
X0016147Y0212839D01*
X0016101Y0212945D01*
X0016058Y0213052D01*
X0016018Y0213161D01*
X0015982Y0213272D01*
X0015950Y0213383D01*
X0015922Y0213495D01*
X0015897Y0213609D01*
X0015876Y0213723D01*
X0015859Y0213837D01*
X0015845Y0213953D01*
X0015836Y0214068D01*
X0015830Y0214184D01*
X0015828Y0214300D01*
X0015827Y0214300D02*
X0015829Y0214402D01*
X0015835Y0214504D01*
X0015844Y0214605D01*
X0015857Y0214707D01*
X0015875Y0214807D01*
X0015895Y0214907D01*
X0015920Y0215006D01*
X0015948Y0215104D01*
X0015980Y0215201D01*
X0016016Y0215297D01*
X0016055Y0215391D01*
X0016097Y0215484D01*
X0016143Y0215575D01*
X0016192Y0215664D01*
X0016245Y0215751D01*
X0016301Y0215837D01*
X0016360Y0215920D01*
X0016422Y0216001D01*
X0016487Y0216079D01*
X0016555Y0216156D01*
X0016626Y0216229D01*
X0016699Y0216300D01*
X0016776Y0216368D01*
X0016854Y0216433D01*
X0016935Y0216495D01*
X0017018Y0216554D01*
X0017104Y0216610D01*
X0017191Y0216663D01*
X0017280Y0216712D01*
X0017371Y0216758D01*
X0017464Y0216800D01*
X0017558Y0216839D01*
X0017654Y0216875D01*
X0017751Y0216907D01*
X0017849Y0216935D01*
X0017948Y0216960D01*
X0018048Y0216980D01*
X0018148Y0216998D01*
X0018250Y0217011D01*
X0018351Y0217020D01*
X0018453Y0217026D01*
X0018555Y0217028D01*
X0018658Y0217026D01*
X0018761Y0217021D01*
X0018864Y0217012D01*
X0018966Y0216999D01*
X0019068Y0216983D01*
X0019169Y0216963D01*
X0019270Y0216939D01*
X0019369Y0216913D01*
X0019468Y0216882D01*
X0019565Y0216848D01*
X0019662Y0216811D01*
X0019756Y0216770D01*
X0019850Y0216726D01*
X0019941Y0216679D01*
X0020031Y0216629D01*
X0020120Y0216575D01*
X0020206Y0216519D01*
X0020290Y0216459D01*
X0020372Y0216397D01*
X0020452Y0216331D01*
X0020529Y0216263D01*
X0020604Y0216192D01*
X0020677Y0216119D01*
X0022495Y0229583D02*
X0022495Y0236857D01*
X0026738Y0241956D02*
X0019464Y0244381D01*
X0026738Y0246806D01*
X0015827Y0249231D01*
X0021889Y0251878D02*
X0024920Y0251878D01*
X0024920Y0251877D02*
X0025004Y0251879D01*
X0025088Y0251885D01*
X0025171Y0251894D01*
X0025254Y0251908D01*
X0025336Y0251925D01*
X0025418Y0251946D01*
X0025498Y0251971D01*
X0025577Y0252000D01*
X0025655Y0252032D01*
X0025731Y0252068D01*
X0025805Y0252107D01*
X0025878Y0252149D01*
X0025948Y0252195D01*
X0026016Y0252244D01*
X0026082Y0252297D01*
X0026145Y0252352D01*
X0026206Y0252410D01*
X0026264Y0252471D01*
X0026319Y0252534D01*
X0026372Y0252600D01*
X0026421Y0252668D01*
X0026467Y0252738D01*
X0026509Y0252811D01*
X0026548Y0252885D01*
X0026584Y0252961D01*
X0026616Y0253039D01*
X0026645Y0253118D01*
X0026670Y0253198D01*
X0026691Y0253280D01*
X0026708Y0253362D01*
X0026722Y0253445D01*
X0026731Y0253528D01*
X0026737Y0253612D01*
X0026739Y0253696D01*
X0026738Y0253696D02*
X0026738Y0256727D01*
X0023101Y0256727D02*
X0023101Y0251878D01*
X0021889Y0251877D02*
X0021791Y0251879D01*
X0021694Y0251885D01*
X0021597Y0251895D01*
X0021500Y0251908D01*
X0021404Y0251926D01*
X0021309Y0251947D01*
X0021214Y0251973D01*
X0021121Y0252002D01*
X0021029Y0252035D01*
X0020938Y0252071D01*
X0020849Y0252111D01*
X0020762Y0252155D01*
X0020676Y0252202D01*
X0020593Y0252252D01*
X0020511Y0252306D01*
X0020432Y0252363D01*
X0020355Y0252424D01*
X0020281Y0252487D01*
X0020209Y0252553D01*
X0020140Y0252622D01*
X0020074Y0252694D01*
X0020011Y0252768D01*
X0019950Y0252845D01*
X0019893Y0252924D01*
X0019839Y0253006D01*
X0019789Y0253090D01*
X0019742Y0253175D01*
X0019698Y0253262D01*
X0019658Y0253351D01*
X0019622Y0253442D01*
X0019589Y0253534D01*
X0019560Y0253627D01*
X0019534Y0253722D01*
X0019513Y0253817D01*
X0019495Y0253913D01*
X0019482Y0254010D01*
X0019472Y0254107D01*
X0019466Y0254204D01*
X0019464Y0254302D01*
X0019466Y0254400D01*
X0019472Y0254497D01*
X0019482Y0254594D01*
X0019495Y0254691D01*
X0019513Y0254787D01*
X0019534Y0254882D01*
X0019560Y0254977D01*
X0019589Y0255070D01*
X0019622Y0255162D01*
X0019658Y0255253D01*
X0019698Y0255342D01*
X0019742Y0255429D01*
X0019789Y0255515D01*
X0019839Y0255598D01*
X0019893Y0255680D01*
X0019950Y0255759D01*
X0020011Y0255836D01*
X0020074Y0255910D01*
X0020140Y0255982D01*
X0020209Y0256051D01*
X0020281Y0256117D01*
X0020355Y0256180D01*
X0020432Y0256241D01*
X0020511Y0256298D01*
X0020593Y0256352D01*
X0020677Y0256402D01*
X0020762Y0256449D01*
X0020849Y0256493D01*
X0020938Y0256533D01*
X0021029Y0256569D01*
X0021121Y0256602D01*
X0021214Y0256631D01*
X0021309Y0256657D01*
X0021404Y0256678D01*
X0021500Y0256696D01*
X0021597Y0256709D01*
X0021694Y0256719D01*
X0021791Y0256725D01*
X0021889Y0256727D01*
X0023101Y0256727D01*
X0024920Y0260221D02*
X0015827Y0260221D01*
X0015827Y0265181D02*
X0024920Y0265181D01*
X0025004Y0265183D01*
X0025088Y0265189D01*
X0025171Y0265198D01*
X0025254Y0265212D01*
X0025336Y0265229D01*
X0025418Y0265250D01*
X0025498Y0265275D01*
X0025577Y0265304D01*
X0025655Y0265336D01*
X0025731Y0265372D01*
X0025805Y0265411D01*
X0025878Y0265453D01*
X0025948Y0265499D01*
X0026016Y0265548D01*
X0026082Y0265601D01*
X0026145Y0265656D01*
X0026206Y0265714D01*
X0026264Y0265775D01*
X0026319Y0265838D01*
X0026372Y0265904D01*
X0026421Y0265972D01*
X0026467Y0266042D01*
X0026509Y0266115D01*
X0026548Y0266189D01*
X0026584Y0266265D01*
X0026616Y0266343D01*
X0026645Y0266422D01*
X0026670Y0266502D01*
X0026691Y0266584D01*
X0026708Y0266666D01*
X0026722Y0266749D01*
X0026731Y0266832D01*
X0026737Y0266916D01*
X0026739Y0267000D01*
X0026739Y0262039D02*
X0026737Y0261955D01*
X0026731Y0261871D01*
X0026722Y0261788D01*
X0026708Y0261705D01*
X0026691Y0261623D01*
X0026670Y0261541D01*
X0026645Y0261461D01*
X0026616Y0261382D01*
X0026584Y0261304D01*
X0026548Y0261228D01*
X0026509Y0261154D01*
X0026467Y0261081D01*
X0026421Y0261011D01*
X0026372Y0260943D01*
X0026319Y0260877D01*
X0026264Y0260814D01*
X0026206Y0260753D01*
X0026145Y0260695D01*
X0026082Y0260640D01*
X0026016Y0260587D01*
X0025948Y0260538D01*
X0025878Y0260492D01*
X0025805Y0260450D01*
X0025731Y0260411D01*
X0025655Y0260375D01*
X0025577Y0260343D01*
X0025498Y0260314D01*
X0025418Y0260289D01*
X0025336Y0260268D01*
X0025254Y0260251D01*
X0025171Y0260237D01*
X0025088Y0260228D01*
X0025004Y0260222D01*
X0024920Y0260220D01*
X0026738Y0275149D02*
X0015827Y0275149D01*
X0015827Y0283210D02*
X0015827Y0288059D01*
X0015827Y0291266D02*
X0015827Y0294297D01*
X0015827Y0291266D02*
X0026738Y0291266D01*
X0026738Y0294297D01*
X0026736Y0294405D01*
X0026730Y0294513D01*
X0026721Y0294621D01*
X0026707Y0294728D01*
X0026690Y0294835D01*
X0026669Y0294941D01*
X0026644Y0295047D01*
X0026615Y0295151D01*
X0026583Y0295254D01*
X0026547Y0295356D01*
X0026507Y0295457D01*
X0026464Y0295556D01*
X0026417Y0295654D01*
X0026367Y0295750D01*
X0026314Y0295844D01*
X0026257Y0295936D01*
X0026197Y0296026D01*
X0026133Y0296113D01*
X0026067Y0296199D01*
X0025998Y0296282D01*
X0025925Y0296362D01*
X0025850Y0296440D01*
X0025772Y0296515D01*
X0025692Y0296588D01*
X0025609Y0296657D01*
X0025523Y0296723D01*
X0025436Y0296787D01*
X0025346Y0296847D01*
X0025254Y0296904D01*
X0025160Y0296957D01*
X0025064Y0297007D01*
X0024966Y0297054D01*
X0024867Y0297097D01*
X0024766Y0297137D01*
X0024664Y0297173D01*
X0024561Y0297205D01*
X0024457Y0297234D01*
X0024351Y0297259D01*
X0024245Y0297280D01*
X0024138Y0297297D01*
X0024031Y0297311D01*
X0023923Y0297320D01*
X0023815Y0297326D01*
X0023707Y0297328D01*
X0018858Y0297328D01*
X0018750Y0297326D01*
X0018642Y0297320D01*
X0018534Y0297311D01*
X0018427Y0297297D01*
X0018320Y0297280D01*
X0018214Y0297259D01*
X0018108Y0297234D01*
X0018004Y0297205D01*
X0017901Y0297173D01*
X0017799Y0297137D01*
X0017698Y0297097D01*
X0017599Y0297054D01*
X0017501Y0297007D01*
X0017405Y0296957D01*
X0017311Y0296904D01*
X0017219Y0296847D01*
X0017129Y0296787D01*
X0017042Y0296723D01*
X0016956Y0296657D01*
X0016873Y0296588D01*
X0016793Y0296515D01*
X0016715Y0296440D01*
X0016640Y0296362D01*
X0016567Y0296282D01*
X0016498Y0296199D01*
X0016432Y0296113D01*
X0016368Y0296026D01*
X0016308Y0295936D01*
X0016251Y0295844D01*
X0016198Y0295750D01*
X0016148Y0295654D01*
X0016101Y0295556D01*
X0016058Y0295457D01*
X0016018Y0295356D01*
X0015982Y0295254D01*
X0015950Y0295151D01*
X0015921Y0295047D01*
X0015896Y0294941D01*
X0015875Y0294835D01*
X0015858Y0294728D01*
X0015844Y0294621D01*
X0015835Y0294513D01*
X0015829Y0294405D01*
X0015827Y0294297D01*
X0020677Y0286847D02*
X0020677Y0283210D01*
X0015827Y0283210D02*
X0026738Y0283210D01*
X0026738Y0288059D01*
X0026738Y0279998D02*
X0026738Y0275149D01*
X0026738Y0306158D02*
X0015827Y0306158D01*
X0015827Y0309189D01*
X0015829Y0309298D01*
X0015835Y0309408D01*
X0015845Y0309517D01*
X0015859Y0309625D01*
X0015876Y0309733D01*
X0015898Y0309841D01*
X0015923Y0309947D01*
X0015953Y0310052D01*
X0015986Y0310157D01*
X0016022Y0310260D01*
X0016063Y0310362D01*
X0016107Y0310462D01*
X0016155Y0310560D01*
X0016206Y0310657D01*
X0016261Y0310752D01*
X0016319Y0310844D01*
X0016380Y0310935D01*
X0016445Y0311023D01*
X0016513Y0311109D01*
X0016584Y0311193D01*
X0016658Y0311273D01*
X0016734Y0311352D01*
X0016814Y0311427D01*
X0016896Y0311499D01*
X0016980Y0311568D01*
X0017068Y0311635D01*
X0017157Y0311698D01*
X0017249Y0311757D01*
X0017342Y0311814D01*
X0017438Y0311867D01*
X0017536Y0311916D01*
X0017635Y0311962D01*
X0017736Y0312005D01*
X0017838Y0312043D01*
X0017942Y0312078D01*
X0018047Y0312110D01*
X0018153Y0312137D01*
X0018260Y0312160D01*
X0018368Y0312180D01*
X0018476Y0312196D01*
X0018585Y0312208D01*
X0018694Y0312216D01*
X0018803Y0312220D01*
X0018913Y0312220D01*
X0019022Y0312216D01*
X0019131Y0312208D01*
X0019240Y0312196D01*
X0019348Y0312180D01*
X0019456Y0312160D01*
X0019563Y0312137D01*
X0019669Y0312110D01*
X0019774Y0312078D01*
X0019878Y0312043D01*
X0019980Y0312005D01*
X0020081Y0311962D01*
X0020180Y0311916D01*
X0020278Y0311867D01*
X0020374Y0311814D01*
X0020467Y0311757D01*
X0020559Y0311698D01*
X0020648Y0311635D01*
X0020736Y0311568D01*
X0020820Y0311499D01*
X0020902Y0311427D01*
X0020982Y0311352D01*
X0021058Y0311273D01*
X0021132Y0311193D01*
X0021203Y0311109D01*
X0021271Y0311023D01*
X0021336Y0310935D01*
X0021397Y0310844D01*
X0021455Y0310752D01*
X0021510Y0310657D01*
X0021561Y0310560D01*
X0021609Y0310462D01*
X0021653Y0310362D01*
X0021694Y0310260D01*
X0021730Y0310157D01*
X0021763Y0310052D01*
X0021793Y0309947D01*
X0021818Y0309841D01*
X0021840Y0309733D01*
X0021857Y0309625D01*
X0021871Y0309517D01*
X0021881Y0309408D01*
X0021887Y0309298D01*
X0021889Y0309189D01*
X0021889Y0306158D01*
X0021889Y0309795D02*
X0026738Y0312220D01*
X0026738Y0315449D02*
X0026738Y0319086D01*
X0026739Y0319086D02*
X0026737Y0319184D01*
X0026731Y0319281D01*
X0026721Y0319378D01*
X0026708Y0319475D01*
X0026690Y0319571D01*
X0026669Y0319666D01*
X0026643Y0319761D01*
X0026614Y0319854D01*
X0026581Y0319946D01*
X0026545Y0320037D01*
X0026505Y0320126D01*
X0026461Y0320213D01*
X0026414Y0320299D01*
X0026364Y0320382D01*
X0026310Y0320464D01*
X0026253Y0320543D01*
X0026192Y0320620D01*
X0026129Y0320694D01*
X0026063Y0320766D01*
X0025994Y0320835D01*
X0025922Y0320901D01*
X0025848Y0320964D01*
X0025771Y0321025D01*
X0025692Y0321082D01*
X0025610Y0321136D01*
X0025527Y0321186D01*
X0025441Y0321233D01*
X0025354Y0321277D01*
X0025265Y0321317D01*
X0025174Y0321353D01*
X0025082Y0321386D01*
X0024989Y0321415D01*
X0024894Y0321441D01*
X0024799Y0321462D01*
X0024703Y0321480D01*
X0024606Y0321493D01*
X0024509Y0321503D01*
X0024412Y0321509D01*
X0024314Y0321511D01*
X0023101Y0321511D01*
X0023003Y0321509D01*
X0022906Y0321503D01*
X0022809Y0321493D01*
X0022712Y0321480D01*
X0022616Y0321462D01*
X0022521Y0321441D01*
X0022426Y0321415D01*
X0022333Y0321386D01*
X0022241Y0321353D01*
X0022150Y0321317D01*
X0022061Y0321277D01*
X0021974Y0321233D01*
X0021889Y0321186D01*
X0021805Y0321136D01*
X0021723Y0321082D01*
X0021644Y0321025D01*
X0021567Y0320964D01*
X0021493Y0320901D01*
X0021421Y0320835D01*
X0021352Y0320766D01*
X0021286Y0320694D01*
X0021223Y0320620D01*
X0021162Y0320543D01*
X0021105Y0320464D01*
X0021051Y0320382D01*
X0021001Y0320299D01*
X0020954Y0320213D01*
X0020910Y0320126D01*
X0020870Y0320037D01*
X0020834Y0319946D01*
X0020801Y0319854D01*
X0020772Y0319761D01*
X0020746Y0319666D01*
X0020725Y0319571D01*
X0020707Y0319475D01*
X0020694Y0319378D01*
X0020684Y0319281D01*
X0020678Y0319184D01*
X0020676Y0319086D01*
X0020677Y0319086D02*
X0020677Y0315449D01*
X0015827Y0315449D01*
X0015827Y0321511D01*
X0026738Y0241956D02*
X0015827Y0239532D01*
D12*
X0038815Y0051046D03*
X0041768Y0051046D03*
X0044815Y0051046D03*
X0047768Y0051046D03*
X0047768Y0064865D03*
X0044815Y0064865D03*
X0041768Y0064865D03*
X0038815Y0064865D03*
X0114799Y0064865D03*
X0117752Y0064865D03*
X0120799Y0064865D03*
X0123752Y0064865D03*
X0123752Y0051046D03*
X0120799Y0051046D03*
X0117752Y0051046D03*
X0114799Y0051046D03*
X0190783Y0051046D03*
X0193736Y0051046D03*
X0196783Y0051046D03*
X0199736Y0051046D03*
X0199736Y0064865D03*
X0196783Y0064865D03*
X0193736Y0064865D03*
X0190783Y0064865D03*
X0266768Y0064865D03*
X0269720Y0064865D03*
X0272768Y0064865D03*
X0275720Y0064865D03*
X0275720Y0051046D03*
X0272768Y0051046D03*
X0269720Y0051046D03*
X0266768Y0051046D03*
X0342752Y0051046D03*
X0345705Y0051046D03*
X0348752Y0051046D03*
X0351705Y0051046D03*
X0351705Y0064865D03*
X0348752Y0064865D03*
X0345705Y0064865D03*
X0342752Y0064865D03*
X0418736Y0064865D03*
X0421689Y0064865D03*
X0424736Y0064865D03*
X0427689Y0064865D03*
X0427689Y0051046D03*
X0424736Y0051046D03*
X0421689Y0051046D03*
X0418736Y0051046D03*
X0494720Y0051046D03*
X0497673Y0051046D03*
X0500720Y0051046D03*
X0503673Y0051046D03*
X0503673Y0064865D03*
X0500720Y0064865D03*
X0497673Y0064865D03*
X0494720Y0064865D03*
X0494720Y0127031D03*
X0497673Y0127031D03*
X0500720Y0127031D03*
X0503673Y0127031D03*
X0503673Y0140850D03*
X0500720Y0140850D03*
X0497673Y0140850D03*
X0494720Y0140850D03*
X0427689Y0140850D03*
X0424736Y0140850D03*
X0421689Y0140850D03*
X0418736Y0140850D03*
X0418736Y0127031D03*
X0421689Y0127031D03*
X0424736Y0127031D03*
X0427689Y0127031D03*
X0351705Y0127031D03*
X0348752Y0127031D03*
X0345705Y0127031D03*
X0342752Y0127031D03*
X0342752Y0140850D03*
X0345705Y0140850D03*
X0348752Y0140850D03*
X0351705Y0140850D03*
X0275720Y0140850D03*
X0272768Y0140850D03*
X0269720Y0140850D03*
X0266768Y0140850D03*
X0266768Y0127031D03*
X0269720Y0127031D03*
X0272768Y0127031D03*
X0275720Y0127031D03*
X0199736Y0127031D03*
X0196783Y0127031D03*
X0193736Y0127031D03*
X0190783Y0127031D03*
X0190783Y0140850D03*
X0193736Y0140850D03*
X0196783Y0140850D03*
X0199736Y0140850D03*
X0123752Y0140850D03*
X0120799Y0140850D03*
X0117752Y0140850D03*
X0114799Y0140850D03*
X0114799Y0127031D03*
X0117752Y0127031D03*
X0120799Y0127031D03*
X0123752Y0127031D03*
X0047768Y0127031D03*
X0044815Y0127031D03*
X0041768Y0127031D03*
X0038815Y0127031D03*
X0038815Y0140850D03*
X0041768Y0140850D03*
X0044815Y0140850D03*
X0047768Y0140850D03*
X0047768Y0203015D03*
X0044815Y0203015D03*
X0041768Y0203015D03*
X0038815Y0203015D03*
X0038815Y0216834D03*
X0041768Y0216834D03*
X0044815Y0216834D03*
X0047768Y0216834D03*
X0114799Y0216834D03*
X0117752Y0216834D03*
X0120799Y0216834D03*
X0123752Y0216834D03*
X0123752Y0203015D03*
X0120799Y0203015D03*
X0117752Y0203015D03*
X0114799Y0203015D03*
X0190783Y0203015D03*
X0193736Y0203015D03*
X0196783Y0203015D03*
X0199736Y0203015D03*
X0199736Y0216834D03*
X0196783Y0216834D03*
X0193736Y0216834D03*
X0190783Y0216834D03*
X0266768Y0216834D03*
X0269720Y0216834D03*
X0272768Y0216834D03*
X0275720Y0216834D03*
X0275720Y0203015D03*
X0272768Y0203015D03*
X0269720Y0203015D03*
X0266768Y0203015D03*
X0342752Y0203015D03*
X0345705Y0203015D03*
X0348752Y0203015D03*
X0351705Y0203015D03*
X0351705Y0216834D03*
X0348752Y0216834D03*
X0345705Y0216834D03*
X0342752Y0216834D03*
X0418736Y0216834D03*
X0421689Y0216834D03*
X0424736Y0216834D03*
X0427689Y0216834D03*
X0427689Y0203015D03*
X0424736Y0203015D03*
X0421689Y0203015D03*
X0418736Y0203015D03*
X0494720Y0203015D03*
X0497673Y0203015D03*
X0500720Y0203015D03*
X0503673Y0203015D03*
X0503673Y0216834D03*
X0500720Y0216834D03*
X0497673Y0216834D03*
X0494720Y0216834D03*
X0494720Y0278999D03*
X0497673Y0278999D03*
X0500720Y0278999D03*
X0503673Y0278999D03*
X0503673Y0292818D03*
X0500720Y0292818D03*
X0497673Y0292818D03*
X0494720Y0292818D03*
X0427689Y0292818D03*
X0424736Y0292818D03*
X0421689Y0292818D03*
X0418736Y0292818D03*
X0418736Y0278999D03*
X0421689Y0278999D03*
X0424736Y0278999D03*
X0427689Y0278999D03*
X0351705Y0278999D03*
X0348752Y0278999D03*
X0345705Y0278999D03*
X0342752Y0278999D03*
X0342752Y0292818D03*
X0345705Y0292818D03*
X0348752Y0292818D03*
X0351705Y0292818D03*
X0275720Y0292818D03*
X0272768Y0292818D03*
X0269720Y0292818D03*
X0266768Y0292818D03*
X0266768Y0278999D03*
X0269720Y0278999D03*
X0272768Y0278999D03*
X0275720Y0278999D03*
X0199736Y0278999D03*
X0196783Y0278999D03*
X0193736Y0278999D03*
X0190783Y0278999D03*
X0190783Y0292818D03*
X0193736Y0292818D03*
X0196783Y0292818D03*
X0199736Y0292818D03*
X0123752Y0292818D03*
X0120799Y0292818D03*
X0117752Y0292818D03*
X0114799Y0292818D03*
X0114799Y0278999D03*
X0117752Y0278999D03*
X0120799Y0278999D03*
X0123752Y0278999D03*
X0047768Y0278999D03*
X0044815Y0278999D03*
X0041768Y0278999D03*
X0038815Y0278999D03*
X0038815Y0292818D03*
X0041768Y0292818D03*
X0044815Y0292818D03*
X0047768Y0292818D03*
D13*
X0046291Y0292818D03*
X0040291Y0292818D03*
X0040291Y0278999D03*
X0046291Y0278999D03*
X0074630Y0250653D03*
X0074630Y0244653D03*
X0088449Y0244653D03*
X0088449Y0250653D03*
X0116276Y0278999D03*
X0122276Y0278999D03*
X0122276Y0292818D03*
X0116276Y0292818D03*
X0088449Y0320637D03*
X0088449Y0326637D03*
X0074630Y0326637D03*
X0074630Y0320637D03*
X0150614Y0320637D03*
X0150614Y0326637D03*
X0164433Y0326637D03*
X0164433Y0320637D03*
X0192260Y0292818D03*
X0198260Y0292818D03*
X0198260Y0278999D03*
X0192260Y0278999D03*
X0164433Y0250653D03*
X0164433Y0244653D03*
X0150614Y0244653D03*
X0150614Y0250653D03*
X0122276Y0216834D03*
X0116276Y0216834D03*
X0116276Y0203015D03*
X0122276Y0203015D03*
X0150614Y0174669D03*
X0150614Y0168669D03*
X0164433Y0168669D03*
X0164433Y0174669D03*
X0192260Y0203015D03*
X0198260Y0203015D03*
X0198260Y0216834D03*
X0192260Y0216834D03*
X0226598Y0244653D03*
X0226598Y0250653D03*
X0240417Y0250653D03*
X0240417Y0244653D03*
X0268244Y0216834D03*
X0274244Y0216834D03*
X0274244Y0203015D03*
X0268244Y0203015D03*
X0240417Y0174669D03*
X0240417Y0168669D03*
X0226598Y0168669D03*
X0226598Y0174669D03*
X0198260Y0140850D03*
X0192260Y0140850D03*
X0192260Y0127031D03*
X0198260Y0127031D03*
X0226598Y0098684D03*
X0226598Y0092684D03*
X0240417Y0092684D03*
X0240417Y0098684D03*
X0268244Y0127031D03*
X0274244Y0127031D03*
X0274244Y0140850D03*
X0268244Y0140850D03*
X0302583Y0168669D03*
X0302583Y0174669D03*
X0316402Y0174669D03*
X0316402Y0168669D03*
X0344228Y0140850D03*
X0350228Y0140850D03*
X0350228Y0127031D03*
X0344228Y0127031D03*
X0316402Y0098684D03*
X0316402Y0092684D03*
X0302583Y0092684D03*
X0302583Y0098684D03*
X0274244Y0064865D03*
X0268244Y0064865D03*
X0268244Y0051046D03*
X0274244Y0051046D03*
X0302583Y0022700D03*
X0302583Y0016700D03*
X0316402Y0016700D03*
X0316402Y0022700D03*
X0344228Y0051046D03*
X0350228Y0051046D03*
X0350228Y0064865D03*
X0344228Y0064865D03*
X0378567Y0092684D03*
X0378567Y0098684D03*
X0392386Y0098684D03*
X0392386Y0092684D03*
X0420213Y0064865D03*
X0426213Y0064865D03*
X0426213Y0051046D03*
X0420213Y0051046D03*
X0392386Y0022700D03*
X0392386Y0016700D03*
X0378567Y0016700D03*
X0378567Y0022700D03*
X0454551Y0022700D03*
X0454551Y0016700D03*
X0468370Y0016700D03*
X0468370Y0022700D03*
X0496197Y0051046D03*
X0502197Y0051046D03*
X0502197Y0064865D03*
X0496197Y0064865D03*
X0468370Y0092684D03*
X0468370Y0098684D03*
X0454551Y0098684D03*
X0454551Y0092684D03*
X0426213Y0127031D03*
X0420213Y0127031D03*
X0420213Y0140850D03*
X0426213Y0140850D03*
X0454551Y0168669D03*
X0454551Y0174669D03*
X0468370Y0174669D03*
X0468370Y0168669D03*
X0496197Y0140850D03*
X0502197Y0140850D03*
X0502197Y0127031D03*
X0496197Y0127031D03*
X0392386Y0168669D03*
X0392386Y0174669D03*
X0378567Y0174669D03*
X0378567Y0168669D03*
X0350228Y0203015D03*
X0344228Y0203015D03*
X0344228Y0216834D03*
X0350228Y0216834D03*
X0378567Y0244653D03*
X0378567Y0250653D03*
X0392386Y0250653D03*
X0392386Y0244653D03*
X0420213Y0216834D03*
X0426213Y0216834D03*
X0426213Y0203015D03*
X0420213Y0203015D03*
X0454551Y0244653D03*
X0454551Y0250653D03*
X0468370Y0250653D03*
X0468370Y0244653D03*
X0496197Y0216834D03*
X0502197Y0216834D03*
X0502197Y0203015D03*
X0496197Y0203015D03*
X0496197Y0278999D03*
X0502197Y0278999D03*
X0502197Y0292818D03*
X0496197Y0292818D03*
X0468370Y0320637D03*
X0468370Y0326637D03*
X0454551Y0326637D03*
X0454551Y0320637D03*
X0426213Y0292818D03*
X0420213Y0292818D03*
X0420213Y0278999D03*
X0426213Y0278999D03*
X0392386Y0320637D03*
X0392386Y0326637D03*
X0378567Y0326637D03*
X0378567Y0320637D03*
X0350228Y0292818D03*
X0344228Y0292818D03*
X0344228Y0278999D03*
X0350228Y0278999D03*
X0316402Y0250653D03*
X0316402Y0244653D03*
X0302583Y0244653D03*
X0302583Y0250653D03*
X0274244Y0278999D03*
X0268244Y0278999D03*
X0268244Y0292818D03*
X0274244Y0292818D03*
X0302583Y0320637D03*
X0302583Y0326637D03*
X0316402Y0326637D03*
X0316402Y0320637D03*
X0240417Y0320637D03*
X0240417Y0326637D03*
X0226598Y0326637D03*
X0226598Y0320637D03*
X0046291Y0216834D03*
X0040291Y0216834D03*
X0040291Y0203015D03*
X0046291Y0203015D03*
X0074630Y0174669D03*
X0074630Y0168669D03*
X0088449Y0168669D03*
X0088449Y0174669D03*
X0116276Y0140850D03*
X0122276Y0140850D03*
X0122276Y0127031D03*
X0116276Y0127031D03*
X0088449Y0098684D03*
X0088449Y0092684D03*
X0074630Y0092684D03*
X0074630Y0098684D03*
X0046291Y0127031D03*
X0040291Y0127031D03*
X0040291Y0140850D03*
X0046291Y0140850D03*
X0150614Y0098684D03*
X0150614Y0092684D03*
X0164433Y0092684D03*
X0164433Y0098684D03*
X0192260Y0064865D03*
X0198260Y0064865D03*
X0198260Y0051046D03*
X0192260Y0051046D03*
X0164433Y0022700D03*
X0164433Y0016700D03*
X0150614Y0016700D03*
X0150614Y0022700D03*
X0122276Y0051046D03*
X0116276Y0051046D03*
X0116276Y0064865D03*
X0122276Y0064865D03*
X0088449Y0022700D03*
X0088449Y0016700D03*
X0074630Y0016700D03*
X0074630Y0022700D03*
X0046291Y0051046D03*
X0040291Y0051046D03*
X0040291Y0064865D03*
X0046291Y0064865D03*
X0226598Y0022700D03*
X0226598Y0016700D03*
X0240417Y0016700D03*
X0240417Y0022700D03*
D14*
X0240417Y0021224D03*
X0240417Y0024176D03*
X0240417Y0018176D03*
X0240417Y0015224D03*
X0226598Y0015224D03*
X0226598Y0018176D03*
X0226598Y0021224D03*
X0226598Y0024176D03*
X0164433Y0024176D03*
X0164433Y0021224D03*
X0164433Y0018176D03*
X0164433Y0015224D03*
X0150614Y0015224D03*
X0150614Y0018176D03*
X0150614Y0021224D03*
X0150614Y0024176D03*
X0088449Y0024176D03*
X0088449Y0021224D03*
X0088449Y0018176D03*
X0088449Y0015224D03*
X0074630Y0015224D03*
X0074630Y0018176D03*
X0074630Y0021224D03*
X0074630Y0024176D03*
X0074630Y0091208D03*
X0074630Y0094161D03*
X0074630Y0097208D03*
X0074630Y0100161D03*
X0088449Y0100161D03*
X0088449Y0097208D03*
X0088449Y0094161D03*
X0088449Y0091208D03*
X0150614Y0091208D03*
X0150614Y0094161D03*
X0150614Y0097208D03*
X0150614Y0100161D03*
X0164433Y0100161D03*
X0164433Y0097208D03*
X0164433Y0094161D03*
X0164433Y0091208D03*
X0226598Y0091208D03*
X0226598Y0094161D03*
X0226598Y0097208D03*
X0226598Y0100161D03*
X0240417Y0100161D03*
X0240417Y0097208D03*
X0240417Y0094161D03*
X0240417Y0091208D03*
X0302583Y0091208D03*
X0302583Y0094161D03*
X0302583Y0097208D03*
X0302583Y0100161D03*
X0316402Y0100161D03*
X0316402Y0097208D03*
X0316402Y0094161D03*
X0316402Y0091208D03*
X0378567Y0091208D03*
X0378567Y0094161D03*
X0378567Y0097208D03*
X0378567Y0100161D03*
X0392386Y0100161D03*
X0392386Y0097208D03*
X0392386Y0094161D03*
X0392386Y0091208D03*
X0454551Y0091208D03*
X0454551Y0094161D03*
X0454551Y0097208D03*
X0454551Y0100161D03*
X0468370Y0100161D03*
X0468370Y0097208D03*
X0468370Y0094161D03*
X0468370Y0091208D03*
X0468370Y0024176D03*
X0468370Y0021224D03*
X0468370Y0018176D03*
X0468370Y0015224D03*
X0454551Y0015224D03*
X0454551Y0018176D03*
X0454551Y0021224D03*
X0454551Y0024176D03*
X0392386Y0024176D03*
X0392386Y0021224D03*
X0392386Y0018176D03*
X0392386Y0015224D03*
X0378567Y0015224D03*
X0378567Y0018176D03*
X0378567Y0021224D03*
X0378567Y0024176D03*
X0316402Y0024176D03*
X0316402Y0021224D03*
X0316402Y0018176D03*
X0316402Y0015224D03*
X0302583Y0015224D03*
X0302583Y0018176D03*
X0302583Y0021224D03*
X0302583Y0024176D03*
X0302583Y0167192D03*
X0302583Y0170145D03*
X0302583Y0173192D03*
X0302583Y0176145D03*
X0316402Y0176145D03*
X0316402Y0173192D03*
X0316402Y0170145D03*
X0316402Y0167192D03*
X0378567Y0167192D03*
X0378567Y0170145D03*
X0378567Y0173192D03*
X0378567Y0176145D03*
X0392386Y0176145D03*
X0392386Y0173192D03*
X0392386Y0170145D03*
X0392386Y0167192D03*
X0454551Y0167192D03*
X0454551Y0170145D03*
X0454551Y0173192D03*
X0454551Y0176145D03*
X0468370Y0176145D03*
X0468370Y0173192D03*
X0468370Y0170145D03*
X0468370Y0167192D03*
X0468370Y0243176D03*
X0468370Y0246129D03*
X0468370Y0249176D03*
X0468370Y0252129D03*
X0454551Y0252129D03*
X0454551Y0249176D03*
X0454551Y0246129D03*
X0454551Y0243176D03*
X0392386Y0243176D03*
X0392386Y0246129D03*
X0392386Y0249176D03*
X0392386Y0252129D03*
X0378567Y0252129D03*
X0378567Y0249176D03*
X0378567Y0246129D03*
X0378567Y0243176D03*
X0316402Y0243176D03*
X0316402Y0246129D03*
X0316402Y0249176D03*
X0316402Y0252129D03*
X0302583Y0252129D03*
X0302583Y0249176D03*
X0302583Y0246129D03*
X0302583Y0243176D03*
X0240417Y0243176D03*
X0240417Y0246129D03*
X0240417Y0249176D03*
X0240417Y0252129D03*
X0226598Y0252129D03*
X0226598Y0249176D03*
X0226598Y0246129D03*
X0226598Y0243176D03*
X0164433Y0243176D03*
X0164433Y0246129D03*
X0164433Y0249176D03*
X0164433Y0252129D03*
X0150614Y0252129D03*
X0150614Y0249176D03*
X0150614Y0246129D03*
X0150614Y0243176D03*
X0088449Y0243176D03*
X0088449Y0246129D03*
X0088449Y0249176D03*
X0088449Y0252129D03*
X0074630Y0252129D03*
X0074630Y0249176D03*
X0074630Y0246129D03*
X0074630Y0243176D03*
X0074630Y0176145D03*
X0074630Y0173192D03*
X0074630Y0170145D03*
X0074630Y0167192D03*
X0088449Y0167192D03*
X0088449Y0170145D03*
X0088449Y0173192D03*
X0088449Y0176145D03*
X0150614Y0176145D03*
X0150614Y0173192D03*
X0150614Y0170145D03*
X0150614Y0167192D03*
X0164433Y0167192D03*
X0164433Y0170145D03*
X0164433Y0173192D03*
X0164433Y0176145D03*
X0226598Y0176145D03*
X0226598Y0173192D03*
X0226598Y0170145D03*
X0226598Y0167192D03*
X0240417Y0167192D03*
X0240417Y0170145D03*
X0240417Y0173192D03*
X0240417Y0176145D03*
X0240417Y0319161D03*
X0240417Y0322113D03*
X0240417Y0325161D03*
X0240417Y0328113D03*
X0226598Y0328113D03*
X0226598Y0325161D03*
X0226598Y0322113D03*
X0226598Y0319161D03*
X0164433Y0319161D03*
X0164433Y0322113D03*
X0164433Y0325161D03*
X0164433Y0328113D03*
X0150614Y0328113D03*
X0150614Y0325161D03*
X0150614Y0322113D03*
X0150614Y0319161D03*
X0088449Y0319161D03*
X0088449Y0322113D03*
X0088449Y0325161D03*
X0088449Y0328113D03*
X0074630Y0328113D03*
X0074630Y0325161D03*
X0074630Y0322113D03*
X0074630Y0319161D03*
X0302583Y0319161D03*
X0302583Y0322113D03*
X0302583Y0325161D03*
X0302583Y0328113D03*
X0316402Y0328113D03*
X0316402Y0325161D03*
X0316402Y0322113D03*
X0316402Y0319161D03*
X0378567Y0319161D03*
X0378567Y0322113D03*
X0378567Y0325161D03*
X0378567Y0328113D03*
X0392386Y0328113D03*
X0392386Y0325161D03*
X0392386Y0322113D03*
X0392386Y0319161D03*
X0454551Y0319161D03*
X0454551Y0322113D03*
X0454551Y0325161D03*
X0454551Y0328113D03*
X0468370Y0328113D03*
X0468370Y0325161D03*
X0468370Y0322113D03*
X0468370Y0319161D03*
D15*
X0024929Y0194035D02*
X0024929Y0189035D01*
X0022429Y0186535D01*
X0024929Y0184035D01*
X0024929Y0179035D01*
X0022429Y0176535D01*
X0024929Y0174035D01*
X0024929Y0169035D01*
X0022429Y0166535D01*
X0024929Y0164035D01*
X0024929Y0159035D01*
X0022429Y0156535D01*
X0024929Y0154035D01*
X0024929Y0149035D01*
X0022429Y0146535D01*
X0017429Y0146535D01*
X0014929Y0149035D01*
X0014929Y0154035D01*
X0017429Y0156535D01*
X0014929Y0159035D01*
X0014929Y0164035D01*
X0017429Y0166535D01*
X0022429Y0166535D01*
X0017429Y0166535D02*
X0014929Y0169035D01*
X0014929Y0174035D01*
X0017429Y0176535D01*
X0014929Y0179035D01*
X0014929Y0184035D01*
X0017429Y0186535D01*
X0014929Y0189035D01*
X0014929Y0194035D01*
X0017429Y0196535D01*
X0022429Y0196535D01*
X0024929Y0194035D01*
X0022429Y0186535D02*
X0017429Y0186535D01*
X0017429Y0176535D02*
X0022429Y0176535D01*
X0022429Y0156535D02*
X0017429Y0156535D01*
M02*
