G75*
%MOIN*%
%OFA0B0*%
%FSLAX25Y25*%
%IPPOS*%
%LPD*%
%AMOC8*
5,1,8,0,0,1.08239X$1,22.5*
%
%ADD10C,0.06000*%
%ADD11C,0.04000*%
%ADD12C,0.02000*%
%ADD13C,0.01000*%
%ADD14C,0.02578*%
%ADD15C,0.00700*%
D10*
X0016929Y0151535D02*
X0022929Y0151535D01*
X0022929Y0161535D02*
X0016929Y0161535D01*
X0016929Y0171535D02*
X0022929Y0171535D01*
X0022929Y0181535D02*
X0016929Y0181535D01*
X0016929Y0191535D02*
X0022929Y0191535D01*
D11*
X0006039Y0021198D02*
X0006039Y0013511D01*
X0018599Y0013511D01*
X0018599Y0015025D01*
X0019191Y0016454D01*
X0020285Y0017548D01*
X0021715Y0018140D01*
X0023262Y0018140D01*
X0024244Y0017733D01*
X0024268Y0017791D01*
X0025043Y0018566D01*
X0025038Y0018566D01*
X0023715Y0019114D01*
X0023320Y0019509D01*
X0013133Y0019509D01*
X0012435Y0019220D01*
X0010888Y0019220D01*
X0009458Y0019813D01*
X0009458Y0019813D01*
X0008092Y0019813D01*
X0006953Y0020285D01*
X0006081Y0021157D01*
X0006039Y0021198D01*
X0006039Y0018508D02*
X0024985Y0018508D01*
X0018599Y0014510D02*
X0006039Y0014510D01*
X0006039Y0032305D02*
X0006039Y0079334D01*
X0007096Y0078277D01*
X0008299Y0077779D01*
X0008299Y0077651D01*
X0008891Y0076221D01*
X0009985Y0075127D01*
X0011415Y0074535D01*
X0012962Y0074535D01*
X0014391Y0075127D01*
X0014588Y0075324D01*
X0031587Y0075324D01*
X0032541Y0074929D01*
X0034089Y0074929D01*
X0035518Y0075521D01*
X0036612Y0076615D01*
X0037204Y0078045D01*
X0037204Y0079592D01*
X0036612Y0081021D01*
X0036528Y0081104D01*
X0036810Y0081785D01*
X0036810Y0083332D01*
X0036218Y0084761D01*
X0035180Y0085800D01*
X0035669Y0086002D01*
X0035827Y0086160D01*
X0063497Y0086160D01*
X0059354Y0083392D01*
X0054686Y0078724D01*
X0051019Y0073235D01*
X0048493Y0067136D01*
X0047205Y0060662D01*
X0047205Y0054061D01*
X0048493Y0047586D01*
X0051019Y0041488D01*
X0054686Y0035999D01*
X0059354Y0031331D01*
X0063791Y0028366D01*
X0053739Y0028366D01*
X0053739Y0028607D01*
X0053147Y0030037D01*
X0052053Y0031131D01*
X0050624Y0031723D01*
X0049077Y0031723D01*
X0047647Y0031131D01*
X0047451Y0030934D01*
X0037870Y0030934D01*
X0038385Y0032178D01*
X0038385Y0033726D01*
X0037793Y0035155D01*
X0036699Y0036249D01*
X0035270Y0036841D01*
X0033722Y0036841D01*
X0033025Y0036552D01*
X0023959Y0036552D01*
X0023262Y0036841D01*
X0021715Y0036841D01*
X0020285Y0036249D01*
X0019191Y0035155D01*
X0018599Y0033726D01*
X0018599Y0033690D01*
X0008092Y0033690D01*
X0006953Y0033218D01*
X0006039Y0032305D01*
X0006039Y0034502D02*
X0018921Y0034502D01*
X0006039Y0038501D02*
X0053015Y0038501D01*
X0050600Y0042499D02*
X0006039Y0042499D01*
X0006039Y0046498D02*
X0048944Y0046498D01*
X0047914Y0050496D02*
X0006039Y0050496D01*
X0006039Y0054495D02*
X0047205Y0054495D01*
X0047205Y0058493D02*
X0006039Y0058493D01*
X0006039Y0062492D02*
X0047569Y0062492D01*
X0048364Y0066490D02*
X0006039Y0066490D01*
X0006039Y0070489D02*
X0049881Y0070489D01*
X0051855Y0074487D02*
X0006039Y0074487D01*
X0006039Y0078486D02*
X0006888Y0078486D01*
X0006039Y0083814D02*
X0006039Y0098625D01*
X0007096Y0097568D01*
X0008366Y0097043D01*
X0008891Y0095773D01*
X0009985Y0094679D01*
X0011415Y0094087D01*
X0012962Y0094087D01*
X0014357Y0094665D01*
X0025749Y0094665D01*
X0025646Y0094563D01*
X0025054Y0093133D01*
X0025054Y0092654D01*
X0023763Y0092654D01*
X0023065Y0092943D01*
X0021518Y0092943D01*
X0020088Y0092351D01*
X0018994Y0091257D01*
X0018402Y0089828D01*
X0018402Y0088281D01*
X0018994Y0086851D01*
X0020088Y0085757D01*
X0021518Y0085165D01*
X0023065Y0085165D01*
X0023763Y0085454D01*
X0030318Y0085454D01*
X0029624Y0084761D01*
X0029588Y0084674D01*
X0011699Y0084674D01*
X0011502Y0084871D01*
X0010073Y0085463D01*
X0008526Y0085463D01*
X0007096Y0084871D01*
X0006039Y0083814D01*
X0006039Y0086483D02*
X0019363Y0086483D01*
X0018673Y0090481D02*
X0006039Y0090481D01*
X0006039Y0094480D02*
X0010467Y0094480D01*
X0013909Y0094480D02*
X0025612Y0094480D01*
X0025142Y0104465D02*
X0010770Y0104465D01*
X0010073Y0104754D01*
X0008526Y0104754D01*
X0007096Y0104162D01*
X0006039Y0103105D01*
X0006039Y0229718D01*
X0006692Y0229065D01*
X0008122Y0228472D01*
X0008184Y0228472D01*
X0008184Y0227257D01*
X0008776Y0225828D01*
X0009870Y0224734D01*
X0011300Y0224142D01*
X0012847Y0224142D01*
X0014276Y0224734D01*
X0014473Y0224931D01*
X0029143Y0224931D01*
X0029340Y0224734D01*
X0030770Y0224142D01*
X0031487Y0224142D01*
X0031487Y0196069D01*
X0031219Y0196716D01*
X0026803Y0201131D01*
X0025664Y0201603D01*
X0015143Y0201603D01*
X0016139Y0202599D01*
X0016731Y0204029D01*
X0016731Y0205576D01*
X0016139Y0207005D01*
X0015045Y0208099D01*
X0013616Y0208691D01*
X0012069Y0208691D01*
X0010640Y0208099D01*
X0009546Y0207005D01*
X0009257Y0206308D01*
X0009228Y0206279D01*
X0008216Y0205267D01*
X0007668Y0203944D01*
X0007668Y0189480D01*
X0008216Y0188157D01*
X0009228Y0187144D01*
X0012031Y0184342D01*
X0011329Y0182649D01*
X0011329Y0180421D01*
X0012182Y0178362D01*
X0013757Y0176787D01*
X0013903Y0176727D01*
X0013784Y0176666D01*
X0013020Y0176111D01*
X0012353Y0175443D01*
X0011797Y0174679D01*
X0011369Y0173838D01*
X0011077Y0172940D01*
X0010929Y0172007D01*
X0010929Y0171535D01*
X0019929Y0171535D01*
X0019929Y0171535D01*
X0010929Y0171535D01*
X0010929Y0171062D01*
X0011077Y0170130D01*
X0011369Y0169231D01*
X0011797Y0168390D01*
X0012353Y0167626D01*
X0013020Y0166958D01*
X0013784Y0166403D01*
X0013903Y0166343D01*
X0013757Y0166282D01*
X0012182Y0164707D01*
X0011329Y0162649D01*
X0011329Y0160421D01*
X0012182Y0158363D01*
X0013757Y0156787D01*
X0014367Y0156535D01*
X0013757Y0156282D01*
X0012182Y0154707D01*
X0011329Y0152649D01*
X0011329Y0150421D01*
X0012182Y0148363D01*
X0013757Y0146787D01*
X0015815Y0145935D01*
X0024043Y0145935D01*
X0026101Y0146787D01*
X0027677Y0148363D01*
X0028529Y0150421D01*
X0028529Y0152649D01*
X0027828Y0154342D01*
X0034486Y0161000D01*
X0035183Y0161289D01*
X0036235Y0162341D01*
X0063791Y0162341D01*
X0059354Y0159376D01*
X0054686Y0154708D01*
X0051019Y0149219D01*
X0048493Y0143121D01*
X0047205Y0136646D01*
X0047205Y0130045D01*
X0048493Y0123571D01*
X0051019Y0117472D01*
X0054686Y0111983D01*
X0059354Y0107315D01*
X0063497Y0104547D01*
X0025339Y0104547D01*
X0025142Y0104465D01*
X0024731Y0104654D02*
X0026278Y0104654D01*
X0027708Y0105246D01*
X0028101Y0105639D01*
X0031309Y0105639D01*
X0031506Y0105442D01*
X0032935Y0104850D01*
X0034482Y0104850D01*
X0035912Y0105442D01*
X0037006Y0106536D01*
X0037598Y0107966D01*
X0037598Y0109513D01*
X0037006Y0110942D01*
X0035912Y0112036D01*
X0034482Y0112628D01*
X0032935Y0112628D01*
X0031506Y0112036D01*
X0031309Y0111839D01*
X0027708Y0111839D01*
X0027708Y0111839D01*
X0026278Y0112431D01*
X0024731Y0112431D01*
X0023302Y0111839D01*
X0022208Y0110745D01*
X0021616Y0109316D01*
X0021616Y0107769D01*
X0022208Y0106340D01*
X0023302Y0105246D01*
X0024731Y0104654D01*
X0022152Y0106475D02*
X0006039Y0106475D01*
X0006039Y0110474D02*
X0022095Y0110474D01*
X0037200Y0110474D02*
X0056196Y0110474D01*
X0053023Y0114472D02*
X0006039Y0114472D01*
X0006039Y0118471D02*
X0050605Y0118471D01*
X0048949Y0122469D02*
X0006039Y0122469D01*
X0006039Y0126468D02*
X0047916Y0126468D01*
X0047205Y0130466D02*
X0006039Y0130466D01*
X0006039Y0134465D02*
X0047205Y0134465D01*
X0047566Y0138463D02*
X0006039Y0138463D01*
X0006039Y0142462D02*
X0048362Y0142462D01*
X0049876Y0146460D02*
X0025312Y0146460D01*
X0028529Y0150459D02*
X0051847Y0150459D01*
X0054519Y0154457D02*
X0027943Y0154457D01*
X0031942Y0158456D02*
X0058434Y0158456D01*
X0013716Y0166453D02*
X0006039Y0166453D01*
X0006039Y0170451D02*
X0011026Y0170451D01*
X0011681Y0174450D02*
X0006039Y0174450D01*
X0006039Y0178448D02*
X0012146Y0178448D01*
X0011329Y0182447D02*
X0006039Y0182447D01*
X0006039Y0186446D02*
X0009927Y0186446D01*
X0007668Y0190444D02*
X0006039Y0190444D01*
X0006039Y0194443D02*
X0007668Y0194443D01*
X0007668Y0198441D02*
X0006039Y0198441D01*
X0006039Y0202440D02*
X0007668Y0202440D01*
X0006039Y0206438D02*
X0009311Y0206438D01*
X0006039Y0210437D02*
X0031487Y0210437D01*
X0031487Y0214435D02*
X0006039Y0214435D01*
X0006039Y0218434D02*
X0031487Y0218434D01*
X0031487Y0222432D02*
X0006039Y0222432D01*
X0006039Y0226431D02*
X0008527Y0226431D01*
X0006039Y0235005D02*
X0006039Y0250412D01*
X0006866Y0249585D01*
X0008189Y0249037D01*
X0008274Y0249037D01*
X0008776Y0247824D01*
X0009870Y0246730D01*
X0011300Y0246138D01*
X0012847Y0246138D01*
X0014242Y0246716D01*
X0025452Y0246716D01*
X0025301Y0246564D01*
X0024753Y0245241D01*
X0024753Y0243809D01*
X0024794Y0243710D01*
X0024794Y0243478D01*
X0024505Y0242781D01*
X0024505Y0241234D01*
X0025097Y0239804D01*
X0026191Y0238710D01*
X0027620Y0238118D01*
X0029167Y0238118D01*
X0029321Y0238182D01*
X0029321Y0236785D01*
X0029032Y0236088D01*
X0029032Y0235547D01*
X0028947Y0235461D01*
X0011295Y0235461D01*
X0011098Y0235658D01*
X0009669Y0236250D01*
X0008122Y0236250D01*
X0006692Y0235658D01*
X0006039Y0235005D01*
X0006039Y0238426D02*
X0026876Y0238426D01*
X0024505Y0242425D02*
X0006039Y0242425D01*
X0006039Y0246423D02*
X0010611Y0246423D01*
X0013536Y0246423D02*
X0025242Y0246423D01*
X0024505Y0256516D02*
X0010655Y0256516D01*
X0009958Y0256805D01*
X0008411Y0256805D01*
X0006981Y0256213D01*
X0006039Y0255271D01*
X0006039Y0307484D01*
X0006506Y0307017D01*
X0007772Y0306493D01*
X0007772Y0306391D01*
X0008365Y0304962D01*
X0009458Y0303868D01*
X0010888Y0303276D01*
X0012435Y0303276D01*
X0013864Y0303868D01*
X0014230Y0304233D01*
X0033868Y0304233D01*
X0034065Y0304036D01*
X0035494Y0303444D01*
X0037041Y0303444D01*
X0038471Y0304036D01*
X0039565Y0305130D01*
X0040157Y0306559D01*
X0040157Y0308107D01*
X0039720Y0309160D01*
X0039960Y0309737D01*
X0039960Y0311285D01*
X0039368Y0312714D01*
X0038274Y0313808D01*
X0037063Y0314309D01*
X0063791Y0314309D01*
X0059354Y0311344D01*
X0054686Y0306677D01*
X0051019Y0301188D01*
X0048493Y0295089D01*
X0047205Y0288615D01*
X0047205Y0282014D01*
X0048493Y0275539D01*
X0051019Y0269440D01*
X0054686Y0263952D01*
X0059354Y0259284D01*
X0063497Y0256516D01*
X0049212Y0256516D01*
X0049212Y0257151D01*
X0048620Y0258580D01*
X0047526Y0259674D01*
X0046096Y0260266D01*
X0044549Y0260266D01*
X0043120Y0259674D01*
X0042923Y0259477D01*
X0031187Y0259477D01*
X0030597Y0260068D01*
X0029167Y0260660D01*
X0027620Y0260660D01*
X0026191Y0260068D01*
X0025097Y0258974D01*
X0024505Y0257544D01*
X0024505Y0256516D01*
X0024867Y0258419D02*
X0006039Y0258419D01*
X0006039Y0262417D02*
X0056221Y0262417D01*
X0053040Y0266416D02*
X0006039Y0266416D01*
X0006039Y0270414D02*
X0050615Y0270414D01*
X0048959Y0274413D02*
X0006039Y0274413D01*
X0006039Y0278411D02*
X0047921Y0278411D01*
X0047205Y0282410D02*
X0006039Y0282410D01*
X0006039Y0286408D02*
X0047205Y0286408D01*
X0047561Y0290407D02*
X0006039Y0290407D01*
X0006039Y0294405D02*
X0048357Y0294405D01*
X0049866Y0298404D02*
X0006039Y0298404D01*
X0006039Y0302402D02*
X0051830Y0302402D01*
X0054502Y0306401D02*
X0040091Y0306401D01*
X0039960Y0310399D02*
X0058409Y0310399D01*
X0032252Y0314111D02*
X0009705Y0314111D01*
X0009482Y0314203D01*
X0007935Y0314203D01*
X0006506Y0313611D01*
X0006039Y0313145D01*
X0006039Y0326381D01*
X0006506Y0325915D01*
X0007820Y0325370D01*
X0008365Y0324056D01*
X0009458Y0322962D01*
X0010888Y0322370D01*
X0012435Y0322370D01*
X0013864Y0322962D01*
X0013996Y0323094D01*
X0025437Y0323094D01*
X0025056Y0322712D01*
X0024464Y0321283D01*
X0024464Y0319736D01*
X0025056Y0318307D01*
X0026150Y0317213D01*
X0027579Y0316620D01*
X0029126Y0316620D01*
X0029824Y0316909D01*
X0030053Y0316909D01*
X0030053Y0316847D01*
X0030645Y0315418D01*
X0031739Y0314324D01*
X0032252Y0314111D01*
X0031664Y0314398D02*
X0006039Y0314398D01*
X0006039Y0318396D02*
X0025019Y0318396D01*
X0024924Y0322395D02*
X0012495Y0322395D01*
X0010828Y0322395D02*
X0006039Y0322395D01*
X0006039Y0306401D02*
X0007772Y0306401D01*
X0048687Y0258419D02*
X0060649Y0258419D01*
X0031487Y0206438D02*
X0016374Y0206438D01*
X0015980Y0202440D02*
X0031487Y0202440D01*
X0031487Y0198441D02*
X0029493Y0198441D01*
X0011329Y0162454D02*
X0006039Y0162454D01*
X0006039Y0158456D02*
X0012143Y0158456D01*
X0012078Y0154457D02*
X0006039Y0154457D01*
X0006039Y0150459D02*
X0011329Y0150459D01*
X0014546Y0146460D02*
X0006039Y0146460D01*
X0036944Y0106475D02*
X0060611Y0106475D01*
X0058446Y0082484D02*
X0036810Y0082484D01*
X0037204Y0078486D02*
X0054527Y0078486D01*
X0006186Y0098478D02*
X0006039Y0098478D01*
X0038063Y0034502D02*
X0056183Y0034502D01*
X0052680Y0030504D02*
X0060592Y0030504D01*
X0405329Y0019426D02*
X0416198Y0030295D01*
X0427597Y0030295D01*
X0431179Y0026714D01*
X0431179Y0026451D01*
X0431771Y0025021D01*
X0432865Y0023928D01*
X0434294Y0023335D01*
X0435841Y0023335D01*
X0437271Y0023928D01*
X0437652Y0024309D01*
X0438308Y0024037D01*
X0439740Y0024037D01*
X0439877Y0024094D01*
X0440143Y0024094D01*
X0441572Y0024686D01*
X0442666Y0025780D01*
X0443258Y0027209D01*
X0443258Y0028670D01*
X0444764Y0027664D01*
X0450863Y0025137D01*
X0457337Y0023850D01*
X0463938Y0023850D01*
X0470413Y0025137D01*
X0476512Y0027664D01*
X0482000Y0031331D01*
X0486668Y0035999D01*
X0490336Y0041488D01*
X0492862Y0047586D01*
X0494150Y0054061D01*
X0494150Y0060662D01*
X0492862Y0067136D01*
X0490336Y0073235D01*
X0486668Y0078724D01*
X0482000Y0083392D01*
X0477688Y0086273D01*
X0482576Y0086273D01*
X0482576Y0085328D01*
X0483168Y0083899D01*
X0484262Y0082805D01*
X0485691Y0082213D01*
X0487238Y0082213D01*
X0488667Y0082805D01*
X0489761Y0083899D01*
X0490354Y0085328D01*
X0490354Y0086875D01*
X0489933Y0087890D01*
X0490341Y0088873D01*
X0498598Y0088873D01*
X0499805Y0089373D01*
X0501091Y0089373D01*
X0501416Y0089239D01*
X0502963Y0089239D01*
X0504393Y0089831D01*
X0504488Y0089926D01*
X0504488Y0020428D01*
X0504041Y0020876D01*
X0502611Y0021468D01*
X0501064Y0021468D01*
X0499635Y0020876D01*
X0498541Y0019782D01*
X0498458Y0019582D01*
X0497073Y0019582D01*
X0495934Y0019110D01*
X0495720Y0018896D01*
X0428175Y0018896D01*
X0427002Y0019382D01*
X0425455Y0019382D01*
X0424757Y0019093D01*
X0417808Y0019093D01*
X0417003Y0019426D01*
X0405329Y0019426D01*
X0408409Y0022507D02*
X0504488Y0022507D01*
X0504488Y0026505D02*
X0473715Y0026505D01*
X0480762Y0030504D02*
X0504488Y0030504D01*
X0504488Y0034502D02*
X0485171Y0034502D01*
X0488340Y0038501D02*
X0504488Y0038501D01*
X0504488Y0042499D02*
X0490755Y0042499D01*
X0492411Y0046498D02*
X0504488Y0046498D01*
X0504488Y0050496D02*
X0493441Y0050496D01*
X0494150Y0054495D02*
X0504488Y0054495D01*
X0504488Y0058493D02*
X0494150Y0058493D01*
X0493786Y0062492D02*
X0504488Y0062492D01*
X0504488Y0066490D02*
X0492990Y0066490D01*
X0491473Y0070489D02*
X0504488Y0070489D01*
X0504488Y0074487D02*
X0489499Y0074487D01*
X0486827Y0078486D02*
X0504488Y0078486D01*
X0504488Y0082484D02*
X0487894Y0082484D01*
X0485035Y0082484D02*
X0482908Y0082484D01*
X0490354Y0086483D02*
X0504488Y0086483D01*
X0447561Y0026505D02*
X0442967Y0026505D01*
X0431179Y0026505D02*
X0412408Y0026505D01*
D12*
X0414707Y0033895D02*
X0429088Y0033895D01*
X0435068Y0027916D01*
X0439024Y0027637D02*
X0430165Y0036495D01*
X0413630Y0036495D01*
X0401984Y0024850D01*
X0367795Y0024850D01*
X0363039Y0029606D01*
X0356150Y0036495D01*
X0338039Y0036495D01*
X0326394Y0024850D01*
X0293628Y0024850D01*
X0287767Y0030711D01*
X0280801Y0037676D01*
X0260874Y0037676D01*
X0248047Y0024850D01*
X0213465Y0024850D01*
X0210087Y0028228D01*
X0201819Y0036495D01*
X0184496Y0036495D01*
X0172767Y0024766D01*
X0136123Y0024766D01*
X0133972Y0026916D01*
X0133382Y0027507D01*
X0126912Y0033977D01*
X0110191Y0033977D01*
X0100980Y0024766D01*
X0035480Y0024766D01*
X0033154Y0024766D01*
X0031661Y0026259D01*
X0009299Y0026259D01*
X0011661Y0023109D02*
X0024811Y0023109D01*
X0025754Y0022166D01*
X0102057Y0022166D01*
X0111268Y0031377D01*
X0125835Y0031377D01*
X0128591Y0028621D01*
X0135046Y0022166D01*
X0173844Y0022166D01*
X0185573Y0033895D01*
X0200742Y0033895D01*
X0205886Y0028751D01*
X0212388Y0022250D01*
X0245198Y0022250D01*
X0245282Y0022166D01*
X0249041Y0022166D01*
X0261951Y0035076D01*
X0279724Y0035076D01*
X0284747Y0030053D01*
X0292551Y0022250D01*
X0327471Y0022250D01*
X0339116Y0033895D01*
X0355073Y0033895D01*
X0360217Y0028751D01*
X0366718Y0022250D01*
X0403061Y0022250D01*
X0414707Y0033895D01*
X0416287Y0015826D02*
X0353787Y0015826D01*
X0353454Y0015493D01*
X0274457Y0015493D01*
X0274260Y0015690D01*
X0198079Y0015690D01*
X0197685Y0016083D01*
X0197494Y0016083D01*
X0196999Y0015588D01*
X0196501Y0016087D01*
X0156528Y0016087D01*
X0156239Y0016376D01*
X0121898Y0016376D01*
X0084604Y0016376D01*
X0084315Y0016087D01*
X0081921Y0016087D01*
X0081632Y0016376D01*
X0028353Y0016376D01*
X0027565Y0015588D01*
X0024145Y0012594D02*
X0113236Y0012594D01*
X0188154Y0012594D01*
X0188236Y0012676D01*
X0188312Y0012601D01*
X0264539Y0012601D01*
X0264614Y0012676D01*
X0264690Y0012601D01*
X0339145Y0012601D01*
X0339220Y0012676D01*
X0339281Y0012737D01*
X0414478Y0012737D01*
X0414614Y0012873D01*
X0414887Y0012601D01*
X0498397Y0012601D01*
X0499850Y0014054D01*
X0496504Y0015296D02*
X0426425Y0015296D01*
X0426228Y0015493D01*
X0416620Y0015493D01*
X0416287Y0015826D01*
X0385480Y0018976D02*
X0461661Y0018976D01*
X0499260Y0018976D01*
X0430953Y0077046D02*
X0415992Y0077046D01*
X0409102Y0083936D01*
X0409201Y0084035D02*
X0403362Y0089873D01*
X0367008Y0089873D01*
X0353000Y0075865D01*
X0341386Y0075865D01*
X0334201Y0083050D01*
X0327378Y0089873D01*
X0291811Y0089873D01*
X0277409Y0075472D01*
X0263630Y0075472D01*
X0256740Y0082361D01*
X0249228Y0089873D01*
X0215827Y0089873D01*
X0202606Y0076653D01*
X0188433Y0076653D01*
X0187941Y0077145D01*
X0175129Y0089957D01*
X0138485Y0089957D01*
X0127699Y0079171D01*
X0113340Y0079171D01*
X0107658Y0084854D01*
X0102751Y0089760D01*
X0034335Y0089760D01*
X0033630Y0089054D01*
X0022291Y0089054D01*
X0028943Y0092360D02*
X0103828Y0092360D01*
X0109102Y0087086D01*
X0110087Y0086102D01*
X0114417Y0081771D01*
X0126622Y0081771D01*
X0137408Y0092557D01*
X0176206Y0092557D01*
X0184563Y0084200D01*
X0189510Y0079253D01*
X0201529Y0079253D01*
X0214750Y0092473D01*
X0251880Y0092473D01*
X0260744Y0083609D01*
X0265665Y0078688D01*
X0276949Y0078688D01*
X0290734Y0092473D01*
X0329045Y0092473D01*
X0337713Y0083806D01*
X0343053Y0078465D01*
X0351529Y0078465D01*
X0365537Y0092473D01*
X0405227Y0092473D01*
X0413106Y0084594D01*
X0418053Y0079646D01*
X0429876Y0079646D01*
X0442703Y0092473D01*
X0497882Y0092473D01*
X0500244Y0095550D02*
X0461465Y0095550D01*
X0385677Y0095550D01*
X0309496Y0095550D01*
X0232724Y0095550D01*
X0158315Y0095550D01*
X0081346Y0095550D01*
X0016166Y0095550D01*
X0015992Y0095376D01*
X0012477Y0098265D02*
X0027050Y0098265D01*
X0027132Y0098347D01*
X0103435Y0098347D01*
X0112449Y0107361D01*
X0127016Y0107361D01*
X0129772Y0104606D01*
X0136030Y0098347D01*
X0175222Y0098347D01*
X0186754Y0109880D01*
X0201923Y0109880D01*
X0213372Y0098431D01*
X0246183Y0098431D01*
X0246463Y0098150D01*
X0250222Y0098150D01*
X0263132Y0111061D01*
X0280905Y0111061D01*
X0284747Y0107219D01*
X0293535Y0098431D01*
X0328849Y0098431D01*
X0340297Y0109880D01*
X0356254Y0109880D01*
X0367703Y0098431D01*
X0404439Y0098431D01*
X0415888Y0109880D01*
X0430269Y0109880D01*
X0441718Y0098431D01*
X0498866Y0098431D01*
X0499063Y0098234D01*
X0499457Y0101031D02*
X0442795Y0101031D01*
X0435480Y0108346D01*
X0431346Y0112480D01*
X0414811Y0112480D01*
X0403362Y0101031D01*
X0368780Y0101031D01*
X0359102Y0110708D01*
X0357331Y0112480D01*
X0339220Y0112480D01*
X0327772Y0101031D01*
X0294612Y0101031D01*
X0281982Y0113661D01*
X0281195Y0114150D02*
X0262544Y0114150D01*
X0249425Y0101031D01*
X0214449Y0101031D01*
X0207331Y0108149D01*
X0203000Y0112480D01*
X0185677Y0112480D01*
X0174145Y0100947D01*
X0137107Y0100947D01*
X0134563Y0103491D01*
X0131216Y0106838D01*
X0128093Y0109961D01*
X0111372Y0109961D01*
X0102358Y0100947D01*
X0026055Y0100947D01*
X0025973Y0100865D01*
X0009299Y0100865D01*
X0012188Y0097976D02*
X0012477Y0098265D01*
X0015205Y0104015D02*
X0011661Y0107558D01*
X0011661Y0132755D01*
X0011661Y0163267D01*
X0019929Y0171535D01*
X0014220Y0171535D01*
X0007331Y0178424D01*
X0007331Y0205590D01*
X0010087Y0208346D01*
X0016976Y0208346D01*
X0017567Y0208936D01*
X0031543Y0208936D01*
X0012843Y0204802D02*
X0011268Y0203228D01*
X0011268Y0198503D01*
X0011268Y0190196D01*
X0019929Y0181535D01*
X0026935Y0174528D01*
X0104025Y0174528D01*
X0112843Y0183346D01*
X0127409Y0183346D01*
X0130165Y0180590D01*
X0136227Y0174528D01*
X0175812Y0174528D01*
X0187148Y0185864D01*
X0202317Y0185864D01*
X0208642Y0179539D01*
X0213766Y0174415D01*
X0250896Y0174415D01*
X0263526Y0187045D01*
X0281299Y0187045D01*
X0283566Y0184778D01*
X0293929Y0174415D01*
X0329242Y0174415D01*
X0340691Y0185864D01*
X0356647Y0185864D01*
X0361004Y0181507D01*
X0368096Y0174415D01*
X0404833Y0174415D01*
X0416282Y0185864D01*
X0430663Y0185864D01*
X0436595Y0179932D01*
X0442112Y0174415D01*
X0499260Y0174415D01*
X0499457Y0174218D01*
X0500638Y0171535D02*
X0461071Y0171535D01*
X0385480Y0171535D01*
X0309693Y0171535D01*
X0233709Y0171535D01*
X0153197Y0171535D01*
X0076622Y0171535D01*
X0019929Y0171535D01*
X0028746Y0168541D02*
X0104025Y0168541D01*
X0109496Y0163070D01*
X0114811Y0157755D01*
X0127016Y0157755D01*
X0137802Y0168541D01*
X0176600Y0168541D01*
X0183972Y0161168D01*
X0189904Y0155237D01*
X0201923Y0155237D01*
X0215144Y0168457D01*
X0252274Y0168457D01*
X0260350Y0160381D01*
X0266059Y0154672D01*
X0277343Y0154672D01*
X0291128Y0168457D01*
X0328061Y0168457D01*
X0335851Y0160668D01*
X0336149Y0160668D01*
X0336245Y0160668D01*
X0342463Y0154450D01*
X0351923Y0154450D01*
X0365931Y0168457D01*
X0403455Y0168457D01*
X0412712Y0159200D01*
X0416282Y0155631D01*
X0430269Y0155631D01*
X0443096Y0168457D01*
X0492764Y0168457D01*
X0486858Y0165857D02*
X0444173Y0165857D01*
X0431346Y0153031D01*
X0414811Y0153031D01*
X0409791Y0158050D01*
X0401984Y0165857D01*
X0367402Y0165857D01*
X0353394Y0151850D01*
X0340598Y0151850D01*
X0326591Y0165857D01*
X0292205Y0165857D01*
X0277803Y0151456D01*
X0265598Y0151456D01*
X0258020Y0159035D01*
X0251197Y0165857D01*
X0216220Y0165857D01*
X0203000Y0152637D01*
X0188827Y0152637D01*
X0175523Y0165941D01*
X0138879Y0165941D01*
X0128093Y0155155D01*
X0113734Y0155155D01*
X0108051Y0160838D01*
X0102948Y0165941D01*
X0034335Y0165941D01*
X0032980Y0164586D01*
X0019929Y0151535D01*
X0019929Y0161535D02*
X0021740Y0161535D01*
X0028746Y0168541D01*
X0034335Y0177128D02*
X0051228Y0177128D01*
X0051228Y0177417D01*
X0051228Y0177128D02*
X0102948Y0177128D01*
X0111766Y0185946D01*
X0128486Y0185946D01*
X0134957Y0179475D01*
X0137304Y0177128D01*
X0174735Y0177128D01*
X0186071Y0188464D01*
X0203394Y0188464D01*
X0208118Y0183739D01*
X0214843Y0177015D01*
X0249819Y0177015D01*
X0262449Y0189645D01*
X0282376Y0189645D01*
X0295006Y0177015D01*
X0328165Y0177015D01*
X0339614Y0188464D01*
X0356150Y0188464D01*
X0357724Y0188464D01*
X0369173Y0177015D01*
X0403756Y0177015D01*
X0415205Y0188464D01*
X0431740Y0188464D01*
X0433315Y0186889D01*
X0443189Y0177015D01*
X0503756Y0177015D01*
X0503953Y0176818D01*
X0504181Y0177046D01*
X0443386Y0241842D02*
X0430559Y0229015D01*
X0415205Y0229015D01*
X0409102Y0235117D01*
X0408906Y0235314D01*
X0409004Y0235413D02*
X0402575Y0241842D01*
X0366614Y0241842D01*
X0352606Y0227834D01*
X0340205Y0227834D01*
X0333709Y0234330D01*
X0326197Y0241842D01*
X0291417Y0241842D01*
X0277016Y0227440D01*
X0264811Y0227440D01*
X0257823Y0234428D01*
X0250409Y0241842D01*
X0215433Y0241842D01*
X0202213Y0228621D01*
X0188039Y0228621D01*
X0181346Y0235314D01*
X0174735Y0241925D01*
X0138091Y0241925D01*
X0127305Y0231139D01*
X0112947Y0231139D01*
X0107264Y0236822D01*
X0102161Y0241925D01*
X0034139Y0241925D01*
X0032921Y0240708D01*
X0032921Y0235314D01*
X0035087Y0233149D01*
X0035087Y0189054D01*
X0032921Y0186889D01*
X0034335Y0177128D02*
X0019929Y0191535D01*
X0028394Y0242007D02*
X0028394Y0244484D01*
X0028353Y0244525D01*
X0103238Y0244525D01*
X0108709Y0239054D01*
X0114024Y0233739D01*
X0126228Y0233739D01*
X0137014Y0244525D01*
X0175812Y0244525D01*
X0183972Y0236365D01*
X0189116Y0231221D01*
X0201136Y0231221D01*
X0214356Y0244442D01*
X0251683Y0244442D01*
X0260252Y0235873D01*
X0265468Y0230657D01*
X0276555Y0230657D01*
X0290340Y0244442D01*
X0327471Y0244442D01*
X0336335Y0235578D01*
X0341479Y0230434D01*
X0351136Y0230434D01*
X0365144Y0244442D01*
X0403652Y0244442D01*
X0412220Y0235873D01*
X0416479Y0231615D01*
X0429482Y0231615D01*
X0442309Y0244442D01*
X0490008Y0244442D01*
X0486465Y0241842D02*
X0443386Y0241842D01*
X0441325Y0250399D02*
X0498472Y0250399D01*
X0499850Y0247519D02*
X0460874Y0247519D01*
X0385087Y0247519D01*
X0309890Y0247519D01*
X0233315Y0247519D01*
X0157724Y0247519D01*
X0081740Y0247519D01*
X0019142Y0247519D01*
X0019050Y0247427D01*
X0015598Y0247427D01*
X0012362Y0250316D02*
X0012073Y0250027D01*
X0012362Y0250316D02*
X0103041Y0250316D01*
X0112055Y0259330D01*
X0126622Y0259330D01*
X0129378Y0256574D01*
X0135636Y0250316D01*
X0174828Y0250316D01*
X0186360Y0261848D01*
X0201529Y0261848D01*
X0208642Y0254736D01*
X0212978Y0250399D01*
X0245789Y0250399D01*
X0246069Y0250119D01*
X0249828Y0250119D01*
X0262738Y0263029D01*
X0280511Y0263029D01*
X0285338Y0258203D01*
X0293141Y0250399D01*
X0328455Y0250399D01*
X0339904Y0261848D01*
X0355860Y0261848D01*
X0360217Y0257491D01*
X0367309Y0250399D01*
X0404045Y0250399D01*
X0415494Y0261848D01*
X0429876Y0261848D01*
X0435610Y0256113D01*
X0441325Y0250399D01*
X0442402Y0252999D02*
X0503165Y0252999D01*
X0442402Y0252999D02*
X0434693Y0260708D01*
X0430953Y0264448D01*
X0414417Y0264448D01*
X0402969Y0252999D01*
X0368386Y0252999D01*
X0358315Y0263070D01*
X0356937Y0264448D01*
X0338827Y0264448D01*
X0327378Y0252999D01*
X0294218Y0252999D01*
X0281588Y0265629D01*
X0281195Y0266118D02*
X0262150Y0266118D01*
X0249031Y0252999D01*
X0214055Y0252999D01*
X0206346Y0260708D01*
X0202606Y0264448D01*
X0185283Y0264448D01*
X0173751Y0252916D01*
X0136713Y0252916D01*
X0134169Y0255460D01*
X0130823Y0258806D01*
X0127699Y0261930D01*
X0110978Y0261930D01*
X0101964Y0252916D01*
X0009184Y0252916D01*
X0008906Y0252637D01*
X0008709Y0310314D02*
X0008906Y0310511D01*
X0036071Y0310511D01*
X0033942Y0317620D02*
X0033942Y0317909D01*
X0101767Y0317909D01*
X0107264Y0312413D01*
X0112947Y0306730D01*
X0127305Y0306730D01*
X0138485Y0317909D01*
X0176901Y0317909D01*
X0183217Y0311594D01*
X0190598Y0304212D01*
X0202213Y0304212D01*
X0215433Y0317432D01*
X0251197Y0317432D01*
X0256937Y0311692D01*
X0256839Y0311594D02*
X0265402Y0303031D01*
X0277016Y0303031D01*
X0291417Y0317432D01*
X0327378Y0317432D01*
X0332921Y0311889D01*
X0333020Y0311791D01*
X0333118Y0311889D02*
X0341583Y0303424D01*
X0352606Y0303424D01*
X0366614Y0317432D01*
X0402969Y0317432D01*
X0408610Y0311791D01*
X0415795Y0304606D01*
X0430559Y0304606D01*
X0443386Y0317432D01*
X0486071Y0317432D01*
X0492764Y0320032D02*
X0442309Y0320032D01*
X0429482Y0307206D01*
X0418250Y0307206D01*
X0412957Y0312498D01*
X0412861Y0312498D01*
X0412367Y0312498D01*
X0404833Y0320032D01*
X0365144Y0320032D01*
X0351136Y0306024D01*
X0343447Y0306024D01*
X0337713Y0311759D01*
X0329439Y0320032D01*
X0290340Y0320032D01*
X0276555Y0306247D01*
X0266059Y0306247D01*
X0261335Y0310972D01*
X0252274Y0320032D01*
X0214356Y0320032D01*
X0201136Y0306812D01*
X0192856Y0306812D01*
X0186531Y0313137D01*
X0179159Y0320509D01*
X0137408Y0320509D01*
X0126228Y0309330D01*
X0114024Y0309330D01*
X0109693Y0313661D01*
X0108709Y0314645D01*
X0102844Y0320509D01*
X0028353Y0320509D01*
X0019339Y0323503D02*
X0080559Y0323503D01*
X0081740Y0323503D02*
X0157331Y0323503D01*
X0226425Y0323503D01*
X0308315Y0323503D01*
X0378000Y0323503D01*
X0460677Y0323503D01*
X0443748Y0329968D02*
X0443719Y0329939D01*
X0431445Y0329939D01*
X0430718Y0329212D01*
X0429181Y0329212D01*
X0428425Y0329968D01*
X0368189Y0329968D01*
X0368354Y0329802D02*
X0355362Y0329802D01*
X0354969Y0329409D01*
X0293399Y0329409D01*
X0276228Y0329409D01*
X0276622Y0329409D02*
X0213236Y0329409D01*
X0213039Y0329606D01*
X0212843Y0329802D01*
X0213039Y0329606D02*
X0198472Y0329606D01*
X0197882Y0329606D01*
X0198276Y0329999D01*
X0198472Y0329802D02*
X0136205Y0329802D01*
X0136008Y0329606D01*
X0135811Y0329409D01*
X0136008Y0329606D02*
X0121898Y0329606D01*
X0122685Y0329409D02*
X0008906Y0329409D01*
X0008709Y0329212D01*
X0011661Y0326259D02*
X0012096Y0326694D01*
X0126324Y0326694D01*
X0126622Y0326395D01*
X0127016Y0326789D01*
X0203651Y0326789D01*
X0203984Y0326456D01*
X0280165Y0326456D01*
X0280391Y0326682D01*
X0356908Y0326682D01*
X0357105Y0326485D01*
X0366814Y0326485D01*
X0367112Y0326187D01*
X0432849Y0326187D01*
X0432921Y0326259D01*
X0433315Y0326653D01*
X0432724Y0327243D02*
X0440071Y0327243D01*
X0441055Y0326259D01*
X0441976Y0326259D02*
X0442691Y0326974D01*
X0498669Y0326974D01*
X0499063Y0327368D01*
X0501591Y0329968D02*
X0503165Y0328393D01*
X0503394Y0328621D01*
X0501591Y0329968D02*
X0443748Y0329968D01*
X0443189Y0329968D01*
X0432724Y0327243D02*
X0432134Y0326653D01*
X0443780Y0089873D02*
X0486858Y0089873D01*
X0443780Y0089873D02*
X0430953Y0077046D01*
X0385480Y0018976D02*
X0309102Y0018976D01*
X0233315Y0018976D01*
X0157724Y0018976D01*
X0157528Y0019172D01*
X0082528Y0019172D01*
X0016583Y0019172D01*
X0016189Y0018779D01*
X0022488Y0014251D02*
X0024145Y0012594D01*
X0022488Y0032952D02*
X0034496Y0032952D01*
X0040291Y0057361D02*
X0040094Y0057558D01*
X0015992Y0057558D01*
X0011858Y0132952D02*
X0032724Y0132952D01*
D13*
X0011858Y0132952D02*
X0011661Y0132755D01*
X0025702Y0108739D02*
X0025505Y0108543D01*
X0025702Y0108739D02*
X0033709Y0108739D01*
X0032921Y0082558D02*
X0031937Y0081574D01*
X0009299Y0081574D01*
X0012188Y0078424D02*
X0032921Y0078424D01*
X0033315Y0078818D01*
X0081346Y0095458D02*
X0081346Y0095550D01*
X0105756Y0082952D02*
X0107658Y0084854D01*
X0109102Y0087086D02*
X0109496Y0087086D01*
X0109645Y0087235D01*
X0110087Y0086102D02*
X0110480Y0086102D01*
X0112055Y0087676D01*
X0128591Y0098684D02*
X0129772Y0099865D01*
X0129772Y0104606D01*
X0131216Y0106838D02*
X0131562Y0107183D01*
X0134712Y0103640D02*
X0134563Y0103491D01*
X0134712Y0103640D02*
X0135105Y0103640D01*
X0157134Y0095458D02*
X0158223Y0095458D01*
X0158315Y0095550D01*
X0184563Y0084200D02*
X0186858Y0086495D01*
X0186858Y0087283D01*
X0207331Y0108149D02*
X0207676Y0108495D01*
X0232724Y0095550D02*
X0232724Y0095542D01*
X0256740Y0082361D02*
X0256788Y0082409D01*
X0260744Y0083609D02*
X0262843Y0085708D01*
X0262843Y0086102D01*
X0284102Y0104606D02*
X0284102Y0106574D01*
X0284747Y0107219D01*
X0281982Y0113661D02*
X0281493Y0114150D01*
X0281195Y0114150D01*
X0334150Y0083000D02*
X0334201Y0083050D01*
X0337713Y0083806D02*
X0339614Y0085708D01*
X0339614Y0087283D01*
X0359102Y0110708D02*
X0359448Y0111054D01*
X0385677Y0095550D02*
X0385677Y0095542D01*
X0409102Y0083936D02*
X0409201Y0084035D01*
X0409102Y0083936D02*
X0409102Y0083835D01*
X0409347Y0083590D01*
X0413106Y0084594D02*
X0414811Y0086298D01*
X0414811Y0086889D01*
X0435480Y0108346D02*
X0435826Y0108691D01*
X0461465Y0095550D02*
X0461465Y0095542D01*
X0486465Y0089480D02*
X0486465Y0086102D01*
X0486465Y0089480D02*
X0486858Y0089873D01*
X0497882Y0092473D02*
X0501535Y0092473D01*
X0502190Y0093128D01*
X0501639Y0097125D02*
X0500530Y0098234D01*
X0499063Y0098234D01*
X0501639Y0097125D02*
X0504969Y0097125D01*
X0499457Y0101031D02*
X0499457Y0101323D01*
X0414024Y0160511D02*
X0412712Y0159200D01*
X0414024Y0160511D02*
X0414024Y0161298D01*
X0409791Y0158050D02*
X0409741Y0158000D01*
X0385480Y0171526D02*
X0385480Y0171535D01*
X0361004Y0181507D02*
X0360658Y0181161D01*
X0356150Y0188464D02*
X0356150Y0188953D01*
X0309693Y0171535D02*
X0309693Y0171526D01*
X0282921Y0182165D02*
X0282921Y0184133D01*
X0283566Y0184778D01*
X0282376Y0189645D02*
X0281887Y0190134D01*
X0281195Y0190134D01*
X0262449Y0162480D02*
X0260350Y0160381D01*
X0258020Y0159035D02*
X0257772Y0158787D01*
X0233709Y0171526D02*
X0233709Y0171535D01*
X0208642Y0179539D02*
X0206937Y0177834D01*
X0206937Y0177046D01*
X0208118Y0183739D02*
X0208464Y0184085D01*
X0187646Y0164448D02*
X0184366Y0161168D01*
X0183972Y0161168D01*
X0153197Y0171535D02*
X0153081Y0171535D01*
X0152976Y0171639D01*
X0135499Y0179624D02*
X0135105Y0179624D01*
X0134957Y0179475D01*
X0130165Y0180590D02*
X0130165Y0176046D01*
X0128787Y0174669D01*
X0110039Y0163219D02*
X0109890Y0163070D01*
X0109496Y0163070D01*
X0108051Y0160838D02*
X0106150Y0158936D01*
X0076992Y0171430D02*
X0076887Y0171535D01*
X0076622Y0171535D01*
X0038039Y0180983D02*
X0035087Y0180983D01*
X0028591Y0187480D01*
X0028591Y0194960D01*
X0025047Y0198503D01*
X0011268Y0198503D01*
X0012073Y0228031D02*
X0031543Y0228031D01*
X0031346Y0232361D02*
X0008895Y0232361D01*
X0028787Y0256377D02*
X0028394Y0256771D01*
X0028787Y0256377D02*
X0045323Y0256377D01*
X0081740Y0247519D02*
X0081740Y0247427D01*
X0105362Y0234920D02*
X0107264Y0236822D01*
X0108709Y0239054D02*
X0109102Y0239054D01*
X0109251Y0239203D01*
X0128591Y0250653D02*
X0129378Y0251440D01*
X0129378Y0256574D01*
X0130823Y0258806D02*
X0131168Y0259152D01*
X0134318Y0255609D02*
X0134169Y0255460D01*
X0134318Y0255609D02*
X0134712Y0255609D01*
X0157724Y0247519D02*
X0157724Y0247427D01*
X0181001Y0234968D02*
X0181346Y0235314D01*
X0183972Y0236365D02*
X0184760Y0236365D01*
X0186858Y0238464D01*
X0208296Y0254390D02*
X0208642Y0254736D01*
X0206346Y0260708D02*
X0206692Y0261054D01*
X0233315Y0247519D02*
X0233315Y0247510D01*
X0257576Y0234181D02*
X0257823Y0234428D01*
X0260252Y0235873D02*
X0262055Y0237676D01*
X0284992Y0257857D02*
X0285338Y0258203D01*
X0281588Y0265629D02*
X0281588Y0265725D01*
X0281195Y0266118D01*
X0309890Y0247519D02*
X0309890Y0247510D01*
X0333560Y0234378D02*
X0333608Y0234330D01*
X0333709Y0234330D01*
X0336335Y0235578D02*
X0338433Y0237676D01*
X0338433Y0238464D01*
X0359871Y0257146D02*
X0360217Y0257491D01*
X0358315Y0263070D02*
X0358661Y0263416D01*
X0385087Y0247519D02*
X0385087Y0247510D01*
X0408757Y0235165D02*
X0409004Y0235413D01*
X0408906Y0235314D02*
X0408757Y0235165D01*
X0408906Y0234920D02*
X0409102Y0235117D01*
X0412220Y0235873D02*
X0414024Y0237676D01*
X0414024Y0238070D01*
X0433315Y0254212D02*
X0433709Y0254212D01*
X0435610Y0256113D01*
X0434693Y0260708D02*
X0435039Y0261054D01*
X0460874Y0247519D02*
X0460874Y0247510D01*
X0486465Y0241842D02*
X0486465Y0238857D01*
X0491976Y0238070D02*
X0491976Y0242473D01*
X0490008Y0244442D01*
X0498472Y0250399D02*
X0499158Y0249713D01*
X0503787Y0249713D01*
X0503165Y0252999D02*
X0503165Y0255228D01*
X0503000Y0255393D01*
X0486465Y0313267D02*
X0486071Y0313661D01*
X0486071Y0317432D01*
X0492370Y0320020D02*
X0492382Y0320032D01*
X0492764Y0320032D01*
X0499743Y0327368D02*
X0502201Y0324910D01*
X0504743Y0324910D01*
X0499743Y0327368D02*
X0499063Y0327368D01*
X0441976Y0326259D02*
X0441055Y0326259D01*
X0432921Y0326259D01*
X0433315Y0326653D02*
X0432134Y0326653D01*
X0408757Y0311937D02*
X0408610Y0311791D01*
X0378184Y0323298D02*
X0378184Y0323319D01*
X0378000Y0323503D01*
X0368354Y0329802D02*
X0368189Y0329968D01*
X0338827Y0313661D02*
X0338827Y0312873D01*
X0337713Y0311759D01*
X0333118Y0311889D02*
X0333020Y0311791D01*
X0332921Y0311889D02*
X0332969Y0311937D01*
X0293399Y0329409D02*
X0276622Y0329409D01*
X0276228Y0329409D01*
X0262055Y0312873D02*
X0262055Y0311692D01*
X0261335Y0310972D01*
X0256985Y0311150D02*
X0256836Y0311298D01*
X0256543Y0311298D01*
X0256839Y0311594D01*
X0256937Y0311692D01*
X0212843Y0329802D02*
X0198472Y0329802D01*
X0198472Y0329606D01*
X0185677Y0314448D02*
X0185677Y0313991D01*
X0186531Y0313137D01*
X0183363Y0311740D02*
X0183217Y0311594D01*
X0135811Y0329409D02*
X0122685Y0329409D01*
X0122488Y0329606D01*
X0121898Y0329606D01*
X0126622Y0326395D02*
X0127111Y0325906D01*
X0111661Y0316023D02*
X0109693Y0314054D01*
X0109693Y0313661D01*
X0109102Y0314645D02*
X0108709Y0314645D01*
X0109102Y0314645D02*
X0109251Y0314794D01*
X0107264Y0312413D02*
X0106937Y0312086D01*
X0107134Y0311889D01*
X0107331Y0311889D01*
X0081740Y0323503D02*
X0080559Y0323503D01*
X0036268Y0307333D02*
X0011830Y0307333D01*
X0011661Y0307165D01*
X0015598Y0285905D02*
X0040291Y0285905D01*
X0288112Y0031056D02*
X0287767Y0030711D01*
X0284747Y0030053D02*
X0284401Y0029708D01*
X0353787Y0015826D02*
X0363693Y0015826D01*
X0364356Y0016489D01*
X0359871Y0028406D02*
X0360217Y0028751D01*
X0363039Y0029606D02*
X0363385Y0029951D01*
X0439024Y0027637D02*
X0439369Y0027983D01*
X0461661Y0018976D02*
X0497921Y0018976D01*
X0499307Y0020361D01*
X0502827Y0020361D01*
X0504227Y0018962D01*
X0504227Y0015052D01*
X0501186Y0012011D01*
X0500523Y0016482D02*
X0497690Y0016482D01*
X0496504Y0015296D01*
X0500523Y0016482D02*
X0501620Y0017579D01*
X0501838Y0017579D01*
X0486465Y0162480D02*
X0486465Y0165464D01*
X0486858Y0165857D01*
X0492764Y0168446D02*
X0492764Y0168457D01*
X0499457Y0174218D02*
X0500924Y0174218D01*
X0502427Y0172716D01*
X0504575Y0172716D01*
X0461071Y0171535D02*
X0461071Y0171526D01*
X0436595Y0179932D02*
X0436249Y0179587D01*
X0433315Y0186889D02*
X0433661Y0187235D01*
X0210432Y0028573D02*
X0210087Y0028228D01*
X0205886Y0028751D02*
X0205886Y0027570D01*
X0203787Y0025472D01*
X0136465Y0028228D02*
X0135153Y0026916D01*
X0133972Y0026916D01*
X0133924Y0027656D02*
X0133531Y0027656D01*
X0133382Y0027507D01*
X0128591Y0028621D02*
X0128591Y0023487D01*
X0127803Y0022700D01*
X0121898Y0016376D02*
X0121898Y0016087D01*
X0113236Y0012594D02*
X0113048Y0012594D01*
X0112843Y0012800D01*
X0049850Y0027834D02*
X0033709Y0027834D01*
X0030980Y0030563D01*
X0021499Y0030563D01*
X0021472Y0030590D01*
X0008709Y0030590D01*
X0006740Y0028621D01*
X0006740Y0024881D01*
X0008709Y0022913D01*
X0011465Y0022913D01*
X0011661Y0023109D01*
X0035480Y0024766D02*
X0035480Y0025055D01*
D14*
X0035480Y0025055D03*
X0034496Y0032952D03*
X0022488Y0032952D03*
X0011661Y0023109D03*
X0009299Y0026259D03*
X0016189Y0018779D03*
X0022488Y0014251D03*
X0027565Y0015588D03*
X0049850Y0027834D03*
X0082528Y0019172D03*
X0112843Y0012800D03*
X0121898Y0016087D03*
X0127803Y0022700D03*
X0136465Y0028228D03*
X0157724Y0018976D03*
X0188236Y0012676D03*
X0197685Y0016083D03*
X0203787Y0025472D03*
X0210432Y0028573D03*
X0233315Y0018976D03*
X0264614Y0012676D03*
X0274260Y0015690D03*
X0284401Y0029708D03*
X0288112Y0031056D03*
X0309102Y0018976D03*
X0339220Y0012676D03*
X0353787Y0015826D03*
X0359871Y0028406D03*
X0363385Y0029951D03*
X0385480Y0018976D03*
X0414614Y0012873D03*
X0426228Y0015493D03*
X0435068Y0027224D03*
X0439369Y0027983D03*
X0461661Y0018976D03*
X0499850Y0014054D03*
X0501838Y0017579D03*
X0409347Y0083590D03*
X0414811Y0086889D03*
X0436643Y0102815D03*
X0435826Y0108691D03*
X0461465Y0095542D03*
X0486465Y0086102D03*
X0502190Y0093128D03*
X0504969Y0097125D03*
X0499457Y0101323D03*
X0409741Y0158000D03*
X0414024Y0161298D03*
X0436249Y0179587D03*
X0433661Y0187235D03*
X0461071Y0171526D03*
X0486465Y0162480D03*
X0492764Y0168446D03*
X0504575Y0172716D03*
X0503953Y0176818D03*
X0491976Y0238070D03*
X0486465Y0238857D03*
X0503787Y0249713D03*
X0503000Y0255393D03*
X0460874Y0247510D03*
X0435039Y0261054D03*
X0433315Y0254212D03*
X0414024Y0238070D03*
X0408757Y0235165D03*
X0385087Y0247510D03*
X0359871Y0257146D03*
X0358661Y0263416D03*
X0338433Y0238464D03*
X0333560Y0234378D03*
X0309890Y0247510D03*
X0284992Y0257857D03*
X0281195Y0266118D03*
X0262055Y0237676D03*
X0257576Y0234181D03*
X0233315Y0247510D03*
X0208296Y0254390D03*
X0206692Y0261054D03*
X0186858Y0238464D03*
X0181001Y0234968D03*
X0157724Y0247427D03*
X0131168Y0259152D03*
X0128591Y0250653D03*
X0109251Y0239203D03*
X0105362Y0234920D03*
X0081740Y0247427D03*
X0045323Y0256377D03*
X0028394Y0256771D03*
X0015598Y0247427D03*
X0012073Y0250027D03*
X0009184Y0252916D03*
X0028394Y0242007D03*
X0032921Y0235314D03*
X0031346Y0232361D03*
X0031543Y0228031D03*
X0012073Y0228031D03*
X0008895Y0232361D03*
X0031543Y0208936D03*
X0016976Y0208346D03*
X0012843Y0204802D03*
X0032921Y0186889D03*
X0038039Y0180983D03*
X0051228Y0177417D03*
X0032980Y0164586D03*
X0076992Y0171430D03*
X0106150Y0158936D03*
X0110039Y0163219D03*
X0128787Y0174669D03*
X0135499Y0179624D03*
X0152976Y0171639D03*
X0182969Y0157803D03*
X0187646Y0164448D03*
X0206937Y0177046D03*
X0208464Y0184085D03*
X0233709Y0171526D03*
X0257772Y0158787D03*
X0262449Y0162480D03*
X0282921Y0182165D03*
X0281195Y0190134D03*
X0309693Y0171526D03*
X0333560Y0158787D03*
X0336149Y0160668D03*
X0360658Y0181161D03*
X0356150Y0188953D03*
X0385480Y0171526D03*
X0359448Y0111054D03*
X0360855Y0104587D03*
X0385677Y0095542D03*
X0339614Y0087283D03*
X0334150Y0083000D03*
X0309496Y0095550D03*
X0284102Y0104606D03*
X0281195Y0114150D03*
X0262843Y0086102D03*
X0256788Y0082409D03*
X0232724Y0095542D03*
X0208493Y0102618D03*
X0207676Y0108495D03*
X0186858Y0087283D03*
X0181788Y0082606D03*
X0157134Y0095458D03*
X0131562Y0107183D03*
X0128591Y0098684D03*
X0112055Y0087676D03*
X0105756Y0082952D03*
X0081346Y0095458D03*
X0033709Y0108739D03*
X0025505Y0108543D03*
X0015205Y0104015D03*
X0009299Y0100865D03*
X0012188Y0097976D03*
X0015992Y0095376D03*
X0022291Y0089054D03*
X0028943Y0092360D03*
X0032921Y0082558D03*
X0033315Y0078818D03*
X0012188Y0078424D03*
X0009299Y0081574D03*
X0015992Y0057558D03*
X0040291Y0057361D03*
X0032724Y0132952D03*
X0040291Y0285905D03*
X0015598Y0285905D03*
X0011661Y0307165D03*
X0008709Y0310314D03*
X0019339Y0323503D03*
X0011661Y0326259D03*
X0008709Y0329212D03*
X0028353Y0320509D03*
X0033942Y0317620D03*
X0036071Y0310511D03*
X0036268Y0307333D03*
X0081740Y0323503D03*
X0106937Y0312086D03*
X0111661Y0316023D03*
X0126622Y0326395D03*
X0121898Y0329606D03*
X0157331Y0323503D03*
X0183363Y0311740D03*
X0185677Y0314448D03*
X0203984Y0326456D03*
X0198276Y0329999D03*
X0226425Y0323503D03*
X0256985Y0311150D03*
X0262055Y0312873D03*
X0280165Y0326456D03*
X0276228Y0329409D03*
X0308315Y0323503D03*
X0332969Y0311937D03*
X0338827Y0313661D03*
X0357105Y0326485D03*
X0355362Y0329802D03*
X0378184Y0323298D03*
X0408757Y0311937D03*
X0412861Y0312498D03*
X0432134Y0326653D03*
X0429181Y0329212D03*
X0460677Y0323503D03*
X0486465Y0313267D03*
X0492370Y0320020D03*
X0504743Y0324910D03*
X0503165Y0328393D03*
D15*
X0187249Y0077145D02*
X0181788Y0082606D01*
X0187249Y0077145D02*
X0187941Y0077145D01*
X0435068Y0027916D02*
X0435068Y0027224D01*
M02*
