G75*
%MOIN*%
%OFA0B0*%
%FSLAX25Y25*%
%IPPOS*%
%LPD*%
%AMOC8*
5,1,8,0,0,1.08239X$1,22.5*
%
%ADD10C,0.61824*%
%ADD11C,0.06800*%
%ADD12C,0.03378*%
D10*
X0080717Y0057361D03*
X0156701Y0057361D03*
X0232685Y0057361D03*
X0308669Y0057361D03*
X0384654Y0057361D03*
X0460638Y0057361D03*
X0460638Y0133346D03*
X0384654Y0133346D03*
X0308669Y0133346D03*
X0232685Y0133346D03*
X0156701Y0133346D03*
X0080717Y0133346D03*
X0080717Y0209330D03*
X0156701Y0209330D03*
X0232685Y0209330D03*
X0308669Y0209330D03*
X0384654Y0209330D03*
X0460638Y0209330D03*
X0460638Y0285314D03*
X0384654Y0285314D03*
X0308669Y0285314D03*
X0232685Y0285314D03*
X0156701Y0285314D03*
X0080717Y0285314D03*
D11*
X0022929Y0191535D02*
X0016929Y0191535D01*
X0016929Y0181535D02*
X0022929Y0181535D01*
X0022929Y0171535D02*
X0016929Y0171535D01*
X0016929Y0161535D02*
X0022929Y0161535D01*
X0022929Y0151535D02*
X0016929Y0151535D01*
D12*
X0022488Y0014251D03*
X0027565Y0015588D03*
X0016189Y0018779D03*
X0011661Y0023109D03*
X0009299Y0026259D03*
X0022488Y0032952D03*
X0034496Y0032952D03*
X0035480Y0025055D03*
X0049850Y0027834D03*
X0082528Y0019172D03*
X0112843Y0012800D03*
X0121898Y0016087D03*
X0127803Y0022700D03*
X0136465Y0028228D03*
X0157724Y0018976D03*
X0188236Y0012676D03*
X0197685Y0016083D03*
X0203787Y0025472D03*
X0210432Y0028573D03*
X0233315Y0018976D03*
X0264614Y0012676D03*
X0274260Y0015690D03*
X0284401Y0029708D03*
X0288112Y0031056D03*
X0309102Y0018976D03*
X0339220Y0012676D03*
X0353787Y0015826D03*
X0359871Y0028406D03*
X0363385Y0029951D03*
X0385480Y0018976D03*
X0414614Y0012873D03*
X0426228Y0015493D03*
X0435068Y0027224D03*
X0439369Y0027983D03*
X0461661Y0018976D03*
X0499850Y0014054D03*
X0501838Y0017579D03*
X0409347Y0083590D03*
X0414811Y0086889D03*
X0436643Y0102815D03*
X0435826Y0108691D03*
X0461465Y0095542D03*
X0486465Y0086102D03*
X0502190Y0093128D03*
X0504969Y0097125D03*
X0499457Y0101323D03*
X0409741Y0158000D03*
X0414024Y0161298D03*
X0436249Y0179587D03*
X0433661Y0187235D03*
X0461071Y0171526D03*
X0486465Y0162480D03*
X0492764Y0168446D03*
X0504575Y0172716D03*
X0503953Y0176818D03*
X0491976Y0238070D03*
X0486465Y0238857D03*
X0503787Y0249713D03*
X0503000Y0255393D03*
X0460874Y0247510D03*
X0435039Y0261054D03*
X0433315Y0254212D03*
X0414024Y0238070D03*
X0408757Y0235165D03*
X0385087Y0247510D03*
X0359871Y0257146D03*
X0358661Y0263416D03*
X0338433Y0238464D03*
X0333560Y0234378D03*
X0309890Y0247510D03*
X0284992Y0257857D03*
X0281195Y0266118D03*
X0262055Y0237676D03*
X0257576Y0234181D03*
X0233315Y0247510D03*
X0208296Y0254390D03*
X0206692Y0261054D03*
X0186858Y0238464D03*
X0181001Y0234968D03*
X0157724Y0247427D03*
X0131168Y0259152D03*
X0128591Y0250653D03*
X0109251Y0239203D03*
X0105362Y0234920D03*
X0081740Y0247427D03*
X0045323Y0256377D03*
X0028394Y0256771D03*
X0015598Y0247427D03*
X0012073Y0250027D03*
X0009184Y0252916D03*
X0028394Y0242007D03*
X0032921Y0235314D03*
X0031346Y0232361D03*
X0031543Y0228031D03*
X0012073Y0228031D03*
X0008895Y0232361D03*
X0031543Y0208936D03*
X0016976Y0208346D03*
X0012843Y0204802D03*
X0032921Y0186889D03*
X0038039Y0180983D03*
X0051228Y0177417D03*
X0032980Y0164586D03*
X0076992Y0171430D03*
X0106150Y0158936D03*
X0110039Y0163219D03*
X0128787Y0174669D03*
X0135499Y0179624D03*
X0152976Y0171639D03*
X0182969Y0157803D03*
X0187646Y0164448D03*
X0206937Y0177046D03*
X0208464Y0184085D03*
X0233709Y0171526D03*
X0257772Y0158787D03*
X0262449Y0162480D03*
X0282921Y0182165D03*
X0281195Y0190134D03*
X0309693Y0171526D03*
X0333560Y0158787D03*
X0336149Y0160668D03*
X0360658Y0181161D03*
X0356150Y0188953D03*
X0385480Y0171526D03*
X0359448Y0111054D03*
X0360855Y0104587D03*
X0385677Y0095542D03*
X0339614Y0087283D03*
X0334150Y0083000D03*
X0309496Y0095550D03*
X0284102Y0104606D03*
X0281195Y0114150D03*
X0262843Y0086102D03*
X0256788Y0082409D03*
X0232724Y0095542D03*
X0208493Y0102618D03*
X0207676Y0108495D03*
X0186858Y0087283D03*
X0181788Y0082606D03*
X0157134Y0095458D03*
X0131562Y0107183D03*
X0128591Y0098684D03*
X0112055Y0087676D03*
X0105756Y0082952D03*
X0081346Y0095458D03*
X0033709Y0108739D03*
X0025505Y0108543D03*
X0015205Y0104015D03*
X0009299Y0100865D03*
X0012188Y0097976D03*
X0015992Y0095376D03*
X0022291Y0089054D03*
X0028943Y0092360D03*
X0032921Y0082558D03*
X0033315Y0078818D03*
X0012188Y0078424D03*
X0009299Y0081574D03*
X0015992Y0057558D03*
X0040291Y0057361D03*
X0032724Y0132952D03*
X0040291Y0285905D03*
X0015598Y0285905D03*
X0011661Y0307165D03*
X0008709Y0310314D03*
X0019339Y0323503D03*
X0011661Y0326259D03*
X0008709Y0329212D03*
X0028353Y0320509D03*
X0033942Y0317620D03*
X0036071Y0310511D03*
X0036268Y0307333D03*
X0081740Y0323503D03*
X0106937Y0312086D03*
X0111661Y0316023D03*
X0126622Y0326395D03*
X0121898Y0329606D03*
X0157331Y0323503D03*
X0183363Y0311740D03*
X0185677Y0314448D03*
X0203984Y0326456D03*
X0198276Y0329999D03*
X0226425Y0323503D03*
X0256985Y0311150D03*
X0262055Y0312873D03*
X0280165Y0326456D03*
X0276228Y0329409D03*
X0308315Y0323503D03*
X0332969Y0311937D03*
X0338827Y0313661D03*
X0357105Y0326485D03*
X0355362Y0329802D03*
X0378184Y0323298D03*
X0408757Y0311937D03*
X0412861Y0312498D03*
X0432134Y0326653D03*
X0429181Y0329212D03*
X0460677Y0323503D03*
X0486465Y0313267D03*
X0492370Y0320020D03*
X0504743Y0324910D03*
X0503165Y0328393D03*
M02*
