%
M48
M72
T01C0.01378
T02C0.04000
T03C0.61024
%
T01
X22488Y14251
X27565Y15588
X16189Y18779
X11661Y23109
X9299Y26259
X22488Y32952
X34496Y32952
X35480Y25055
X49850Y27834
X82528Y19172
X112843Y12800
X121898Y16087
X127803Y22700
X136465Y28228
X157724Y18976
X188236Y12676
X197685Y16083
X203787Y25472
X210432Y28573
X233315Y18976
X264614Y12676
X274260Y15690
X284401Y29708
X288112Y31056
X309102Y18976
X339220Y12676
X353787Y15826
X359871Y28406
X363385Y29951
X385480Y18976
X414614Y12873
X426228Y15493
X435068Y27224
X439369Y27983
X461661Y18976
X499850Y14054
X501838Y17579
X409347Y83590
X414811Y86889
X436643Y102815
X435826Y108691
X461465Y95542
X486465Y86102
X502190Y93128
X504969Y97125
X499457Y101323
X409741Y158000
X414024Y161298
X436249Y179587
X433661Y187235
X461071Y171526
X486465Y162480
X492764Y168446
X504575Y172716
X503953Y176818
X491976Y238070
X486465Y238857
X503787Y249713
X503000Y255393
X460874Y247510
X435039Y261054
X433315Y254212
X414024Y238070
X408757Y235165
X385087Y247510
X359871Y257146
X358661Y263416
X338433Y238464
X333560Y234378
X309890Y247510
X284992Y257857
X281195Y266118
X262055Y237676
X257576Y234181
X233315Y247510
X208296Y254390
X206692Y261054
X186858Y238464
X181001Y234968
X157724Y247427
X131168Y259152
X128591Y250653
X109251Y239203
X105362Y234920
X81740Y247427
X45323Y256377
X28394Y256771
X15598Y247427
X12073Y250027
X9184Y252916
X28394Y242007
X32921Y235314
X31346Y232361
X31543Y228031
X12073Y228031
X8895Y232361
X31543Y208936
X16976Y208346
X12843Y204802
X32921Y186889
X38039Y180983
X51228Y177417
X32980Y164586
X76992Y171430
X106150Y158936
X110039Y163219
X128787Y174669
X135499Y179624
X152976Y171639
X182969Y157803
X187646Y164448
X206937Y177046
X208464Y184085
X233709Y171526
X257772Y158787
X262449Y162480
X282921Y182165
X281195Y190134
X309693Y171526
X333560Y158787
X336149Y160668
X360658Y181161
X356150Y188953
X385480Y171526
X359448Y111054
X360855Y104587
X385677Y95542
X339614Y87283
X334150Y83000
X309496Y95550
X284102Y104606
X281195Y114150
X262843Y86102
X256788Y82409
X232724Y95542
X208493Y102618
X207676Y108495
X186858Y87283
X181788Y82606
X157134Y95458
X131562Y107183
X128591Y98684
X112055Y87676
X105756Y82952
X81346Y95458
X33709Y108739
X25505Y108543
X15205Y104015
X9299Y100865
X12188Y97976
X15992Y95376
X22291Y89054
X28943Y92360
X32921Y82558
X33315Y78818
X12188Y78424
X9299Y81574
X15992Y57558
X40291Y57361
X32724Y132952
X40291Y285905
X15598Y285905
X11661Y307165
X8709Y310314
X19339Y323503
X11661Y326259
X8709Y329212
X28353Y320509
X33942Y317620
X36071Y310511
X36268Y307333
X81740Y323503
X106937Y312086
X111661Y316023
X126622Y326395
X121898Y329606
X157331Y323503
X183363Y311740
X185677Y314448
X203984Y326456
X198276Y329999
X226425Y323503
X256985Y311150
X262055Y312873
X280165Y326456
X276228Y329409
X308315Y323503
X332969Y311937
X338827Y313661
X357105Y326485
X355362Y329802
X378184Y323298
X408757Y311937
X412861Y312498
X432134Y326653
X429181Y329212
X460677Y323503
X486465Y313267
X492370Y320020
X504743Y324910
X503165Y328393
T02
X19929Y191535
X19929Y181535
X19929Y171535
X19929Y161535
X19929Y151535
T03
X80717Y133346
X156701Y133346
X232685Y133346
X308669Y133346
X384654Y133346
X460638Y133346
X460638Y57361
X384654Y57361
X308669Y57361
X232685Y57361
X156701Y57361
X80717Y57361
X80717Y209330
X156701Y209330
X232685Y209330
X308669Y209330
X384654Y209330
X460638Y209330
X460638Y285314
X384654Y285314
X308669Y285314
X232685Y285314
X156701Y285314
X80717Y285314
M30
