G04 EAGLE Gerber RS-274X export*
G75*
%MOMM*%
%FSLAX34Y34*%
%LPD*%
%IN*%
%IPPOS*%
%AMOC8*
5,1,8,0,0,1.08239X$1,22.5*%
G01*
%ADD10C,0.254000*%


D10*
X406400Y1270D02*
X406458Y-58D01*
X406632Y-1376D01*
X406919Y-2674D01*
X407319Y-3942D01*
X407828Y-5171D01*
X408442Y-6350D01*
X409156Y-7471D01*
X409965Y-8526D01*
X410864Y-9506D01*
X411844Y-10405D01*
X412899Y-11214D01*
X414020Y-11928D01*
X415199Y-12542D01*
X416428Y-13051D01*
X417696Y-13451D01*
X418994Y-13738D01*
X420312Y-13912D01*
X421640Y-13970D01*
X1115060Y-13970D01*
X1115724Y-13941D01*
X1116383Y-13854D01*
X1117032Y-13710D01*
X1117666Y-13510D01*
X1118280Y-13256D01*
X1118870Y-12949D01*
X1119431Y-12592D01*
X1119958Y-12187D01*
X1120448Y-11738D01*
X1120897Y-11248D01*
X1121302Y-10721D01*
X1121659Y-10160D01*
X1121966Y-9570D01*
X1122220Y-8956D01*
X1122420Y-8322D01*
X1122564Y-7673D01*
X1122651Y-7014D01*
X1122680Y-6350D01*
X1122680Y478790D01*
X1122925Y482072D01*
X1122883Y485363D01*
X1122554Y488638D01*
X1121941Y491872D01*
X1121048Y495040D01*
X1119883Y498118D01*
X1118454Y501083D01*
X1116772Y503912D01*
X1114850Y506584D01*
X1112702Y509078D01*
X1110345Y511375D01*
X1107797Y513458D01*
X1105077Y515311D01*
X1102206Y516920D01*
X1099205Y518273D01*
X1096098Y519359D01*
X1092908Y520170D01*
X1089660Y520700D01*
X424180Y520700D01*
X422366Y520344D01*
X420589Y519830D01*
X418865Y519164D01*
X417204Y518350D01*
X415622Y517395D01*
X414128Y516305D01*
X412735Y515089D01*
X411453Y513757D01*
X410293Y512317D01*
X409262Y510782D01*
X408369Y509164D01*
X407620Y507473D01*
X407022Y505723D01*
X406578Y503929D01*
X406292Y502102D01*
X406167Y500257D01*
X406203Y498408D01*
X406400Y496570D01*
X406400Y1270D01*
X1089536Y222010D02*
X1090604Y221934D01*
X1091665Y221781D01*
X1092712Y221553D01*
X1093740Y221251D01*
X1094744Y220877D01*
X1095719Y220432D01*
X1096659Y219918D01*
X1097560Y219339D01*
X1098418Y218697D01*
X1099228Y217995D01*
X1099985Y217238D01*
X1100687Y216428D01*
X1101329Y215570D01*
X1101908Y214669D01*
X1102422Y213729D01*
X1102867Y212754D01*
X1103241Y211750D01*
X1103543Y210722D01*
X1103771Y209675D01*
X1103924Y208614D01*
X1104000Y207546D01*
X1104000Y206474D01*
X1103924Y205406D01*
X1103771Y204345D01*
X1103543Y203298D01*
X1103241Y202270D01*
X1102867Y201266D01*
X1102422Y200291D01*
X1101908Y199351D01*
X1101329Y198450D01*
X1100687Y197592D01*
X1099985Y196782D01*
X1099228Y196025D01*
X1098418Y195323D01*
X1097560Y194681D01*
X1096659Y194102D01*
X1095719Y193588D01*
X1094744Y193143D01*
X1093740Y192769D01*
X1092712Y192467D01*
X1091665Y192239D01*
X1090604Y192086D01*
X1089536Y192010D01*
X1088464Y192010D01*
X1087396Y192086D01*
X1086335Y192239D01*
X1085288Y192467D01*
X1084260Y192769D01*
X1083256Y193143D01*
X1082281Y193588D01*
X1081341Y194102D01*
X1080440Y194681D01*
X1079582Y195323D01*
X1078772Y196025D01*
X1078015Y196782D01*
X1077313Y197592D01*
X1076671Y198450D01*
X1076092Y199351D01*
X1075578Y200291D01*
X1075133Y201266D01*
X1074759Y202270D01*
X1074457Y203298D01*
X1074229Y204345D01*
X1074076Y205406D01*
X1074000Y206474D01*
X1074000Y207546D01*
X1074076Y208614D01*
X1074229Y209675D01*
X1074457Y210722D01*
X1074759Y211750D01*
X1075133Y212754D01*
X1075578Y213729D01*
X1076092Y214669D01*
X1076671Y215570D01*
X1077313Y216428D01*
X1078015Y217238D01*
X1078772Y217995D01*
X1079582Y218697D01*
X1080440Y219339D01*
X1081341Y219918D01*
X1082281Y220432D01*
X1083256Y220877D01*
X1084260Y221251D01*
X1085288Y221553D01*
X1086335Y221781D01*
X1087396Y221934D01*
X1088464Y222010D01*
X1089536Y222010D01*
X1090806Y347740D02*
X1091874Y347664D01*
X1092935Y347511D01*
X1093982Y347283D01*
X1095010Y346981D01*
X1096014Y346607D01*
X1096989Y346162D01*
X1097929Y345648D01*
X1098830Y345069D01*
X1099688Y344427D01*
X1100498Y343725D01*
X1101255Y342968D01*
X1101957Y342158D01*
X1102599Y341300D01*
X1103178Y340399D01*
X1103692Y339459D01*
X1104137Y338484D01*
X1104511Y337480D01*
X1104813Y336452D01*
X1105041Y335405D01*
X1105194Y334344D01*
X1105270Y333276D01*
X1105270Y332204D01*
X1105194Y331136D01*
X1105041Y330075D01*
X1104813Y329028D01*
X1104511Y328000D01*
X1104137Y326996D01*
X1103692Y326021D01*
X1103178Y325081D01*
X1102599Y324180D01*
X1101957Y323322D01*
X1101255Y322512D01*
X1100498Y321755D01*
X1099688Y321053D01*
X1098830Y320411D01*
X1097929Y319832D01*
X1096989Y319318D01*
X1096014Y318873D01*
X1095010Y318499D01*
X1093982Y318197D01*
X1092935Y317969D01*
X1091874Y317816D01*
X1090806Y317740D01*
X1089734Y317740D01*
X1088666Y317816D01*
X1087605Y317969D01*
X1086558Y318197D01*
X1085530Y318499D01*
X1084526Y318873D01*
X1083551Y319318D01*
X1082611Y319832D01*
X1081710Y320411D01*
X1080852Y321053D01*
X1080042Y321755D01*
X1079285Y322512D01*
X1078583Y323322D01*
X1077941Y324180D01*
X1077362Y325081D01*
X1076848Y326021D01*
X1076403Y326996D01*
X1076029Y328000D01*
X1075727Y329028D01*
X1075499Y330075D01*
X1075346Y331136D01*
X1075270Y332204D01*
X1075270Y333276D01*
X1075346Y334344D01*
X1075499Y335405D01*
X1075727Y336452D01*
X1076029Y337480D01*
X1076403Y338484D01*
X1076848Y339459D01*
X1077362Y340399D01*
X1077941Y341300D01*
X1078583Y342158D01*
X1079285Y342968D01*
X1080042Y343725D01*
X1080852Y344427D01*
X1081710Y345069D01*
X1082611Y345648D01*
X1083551Y346162D01*
X1084526Y346607D01*
X1085530Y346981D01*
X1086558Y347283D01*
X1087605Y347511D01*
X1088666Y347664D01*
X1089734Y347740D01*
X1090806Y347740D01*
X558560Y362074D02*
X558484Y361006D01*
X558331Y359945D01*
X558103Y358898D01*
X557801Y357870D01*
X557427Y356866D01*
X556982Y355891D01*
X556468Y354951D01*
X555889Y354050D01*
X555247Y353192D01*
X554545Y352382D01*
X553788Y351625D01*
X552978Y350923D01*
X552120Y350281D01*
X551219Y349702D01*
X550279Y349188D01*
X549304Y348743D01*
X548300Y348369D01*
X547272Y348067D01*
X546225Y347839D01*
X545164Y347686D01*
X544096Y347610D01*
X543024Y347610D01*
X541956Y347686D01*
X540895Y347839D01*
X539848Y348067D01*
X538820Y348369D01*
X537816Y348743D01*
X536841Y349188D01*
X535901Y349702D01*
X535000Y350281D01*
X534142Y350923D01*
X533332Y351625D01*
X532575Y352382D01*
X531873Y353192D01*
X531231Y354050D01*
X530652Y354951D01*
X530138Y355891D01*
X529693Y356866D01*
X529319Y357870D01*
X529017Y358898D01*
X528789Y359945D01*
X528636Y361006D01*
X528560Y362074D01*
X528560Y363146D01*
X528636Y364214D01*
X528789Y365275D01*
X529017Y366322D01*
X529319Y367350D01*
X529693Y368354D01*
X530138Y369329D01*
X530652Y370269D01*
X531231Y371170D01*
X531873Y372028D01*
X532575Y372838D01*
X533332Y373595D01*
X534142Y374297D01*
X535000Y374939D01*
X535901Y375518D01*
X536841Y376032D01*
X537816Y376477D01*
X538820Y376851D01*
X539848Y377153D01*
X540895Y377381D01*
X541956Y377534D01*
X543024Y377610D01*
X544096Y377610D01*
X545164Y377534D01*
X546225Y377381D01*
X547272Y377153D01*
X548300Y376851D01*
X549304Y376477D01*
X550279Y376032D01*
X551219Y375518D01*
X552120Y374939D01*
X552978Y374297D01*
X553788Y373595D01*
X554545Y372838D01*
X555247Y372028D01*
X555889Y371170D01*
X556468Y370269D01*
X556982Y369329D01*
X557427Y368354D01*
X557801Y367350D01*
X558103Y366322D01*
X558331Y365275D01*
X558484Y364214D01*
X558560Y363146D01*
X558560Y362074D01*
X495060Y362074D02*
X494984Y361006D01*
X494831Y359945D01*
X494603Y358898D01*
X494301Y357870D01*
X493927Y356866D01*
X493482Y355891D01*
X492968Y354951D01*
X492389Y354050D01*
X491747Y353192D01*
X491045Y352382D01*
X490288Y351625D01*
X489478Y350923D01*
X488620Y350281D01*
X487719Y349702D01*
X486779Y349188D01*
X485804Y348743D01*
X484800Y348369D01*
X483772Y348067D01*
X482725Y347839D01*
X481664Y347686D01*
X480596Y347610D01*
X479524Y347610D01*
X478456Y347686D01*
X477395Y347839D01*
X476348Y348067D01*
X475320Y348369D01*
X474316Y348743D01*
X473341Y349188D01*
X472401Y349702D01*
X471500Y350281D01*
X470642Y350923D01*
X469832Y351625D01*
X469075Y352382D01*
X468373Y353192D01*
X467731Y354050D01*
X467152Y354951D01*
X466638Y355891D01*
X466193Y356866D01*
X465819Y357870D01*
X465517Y358898D01*
X465289Y359945D01*
X465136Y361006D01*
X465060Y362074D01*
X465060Y363146D01*
X465136Y364214D01*
X465289Y365275D01*
X465517Y366322D01*
X465819Y367350D01*
X466193Y368354D01*
X466638Y369329D01*
X467152Y370269D01*
X467731Y371170D01*
X468373Y372028D01*
X469075Y372838D01*
X469832Y373595D01*
X470642Y374297D01*
X471500Y374939D01*
X472401Y375518D01*
X473341Y376032D01*
X474316Y376477D01*
X475320Y376851D01*
X476348Y377153D01*
X477395Y377381D01*
X478456Y377534D01*
X479524Y377610D01*
X480596Y377610D01*
X481664Y377534D01*
X482725Y377381D01*
X483772Y377153D01*
X484800Y376851D01*
X485804Y376477D01*
X486779Y376032D01*
X487719Y375518D01*
X488620Y374939D01*
X489478Y374297D01*
X490288Y373595D01*
X491045Y372838D01*
X491747Y372028D01*
X492389Y371170D01*
X492968Y370269D01*
X493482Y369329D01*
X493927Y368354D01*
X494301Y367350D01*
X494603Y366322D01*
X494831Y365275D01*
X494984Y364214D01*
X495060Y363146D01*
X495060Y362074D01*
X1090806Y411240D02*
X1091874Y411164D01*
X1092935Y411011D01*
X1093982Y410783D01*
X1095010Y410481D01*
X1096014Y410107D01*
X1096989Y409662D01*
X1097929Y409148D01*
X1098830Y408569D01*
X1099688Y407927D01*
X1100498Y407225D01*
X1101255Y406468D01*
X1101957Y405658D01*
X1102599Y404800D01*
X1103178Y403899D01*
X1103692Y402959D01*
X1104137Y401984D01*
X1104511Y400980D01*
X1104813Y399952D01*
X1105041Y398905D01*
X1105194Y397844D01*
X1105270Y396776D01*
X1105270Y395704D01*
X1105194Y394636D01*
X1105041Y393575D01*
X1104813Y392528D01*
X1104511Y391500D01*
X1104137Y390496D01*
X1103692Y389521D01*
X1103178Y388581D01*
X1102599Y387680D01*
X1101957Y386822D01*
X1101255Y386012D01*
X1100498Y385255D01*
X1099688Y384553D01*
X1098830Y383911D01*
X1097929Y383332D01*
X1096989Y382818D01*
X1096014Y382373D01*
X1095010Y381999D01*
X1093982Y381697D01*
X1092935Y381469D01*
X1091874Y381316D01*
X1090806Y381240D01*
X1089734Y381240D01*
X1088666Y381316D01*
X1087605Y381469D01*
X1086558Y381697D01*
X1085530Y381999D01*
X1084526Y382373D01*
X1083551Y382818D01*
X1082611Y383332D01*
X1081710Y383911D01*
X1080852Y384553D01*
X1080042Y385255D01*
X1079285Y386012D01*
X1078583Y386822D01*
X1077941Y387680D01*
X1077362Y388581D01*
X1076848Y389521D01*
X1076403Y390496D01*
X1076029Y391500D01*
X1075727Y392528D01*
X1075499Y393575D01*
X1075346Y394636D01*
X1075270Y395704D01*
X1075270Y396776D01*
X1075346Y397844D01*
X1075499Y398905D01*
X1075727Y399952D01*
X1076029Y400980D01*
X1076403Y401984D01*
X1076848Y402959D01*
X1077362Y403899D01*
X1077941Y404800D01*
X1078583Y405658D01*
X1079285Y406468D01*
X1080042Y407225D01*
X1080852Y407927D01*
X1081710Y408569D01*
X1082611Y409148D01*
X1083551Y409662D01*
X1084526Y410107D01*
X1085530Y410481D01*
X1086558Y410783D01*
X1087605Y411011D01*
X1088666Y411164D01*
X1089734Y411240D01*
X1090806Y411240D01*
M02*
