G04 EAGLE Gerber RS-274X export*
G75*
%MOMM*%
%FSLAX34Y34*%
%LPD*%
%INSilkscreen Bottom*%
%IPPOS*%
%AMOC8*
5,1,8,0,0,1.08239X$1,22.5*%
G01*
%ADD10C,0.000000*%
%ADD11C,0.101600*%


D10*
X421640Y-12700D02*
X1082040Y-12700D01*
X1082040Y12700D01*
X1107440Y38100D01*
X1107440Y365760D01*
X1082040Y391160D01*
X1082040Y505460D01*
X1066800Y520700D01*
X421640Y520700D01*
X421640Y-12700D01*
D11*
X1070035Y98298D02*
X1070035Y109982D01*
X1073280Y109982D01*
X1073393Y109980D01*
X1073506Y109974D01*
X1073619Y109964D01*
X1073732Y109950D01*
X1073844Y109933D01*
X1073955Y109911D01*
X1074065Y109886D01*
X1074175Y109856D01*
X1074283Y109823D01*
X1074390Y109786D01*
X1074496Y109746D01*
X1074600Y109701D01*
X1074703Y109653D01*
X1074804Y109602D01*
X1074903Y109547D01*
X1075000Y109489D01*
X1075095Y109427D01*
X1075188Y109362D01*
X1075278Y109294D01*
X1075366Y109223D01*
X1075452Y109148D01*
X1075535Y109071D01*
X1075615Y108991D01*
X1075692Y108908D01*
X1075767Y108822D01*
X1075838Y108734D01*
X1075906Y108644D01*
X1075971Y108551D01*
X1076033Y108456D01*
X1076091Y108359D01*
X1076146Y108260D01*
X1076197Y108159D01*
X1076245Y108056D01*
X1076290Y107952D01*
X1076330Y107846D01*
X1076367Y107739D01*
X1076400Y107631D01*
X1076430Y107521D01*
X1076455Y107411D01*
X1076477Y107300D01*
X1076494Y107188D01*
X1076508Y107075D01*
X1076518Y106962D01*
X1076524Y106849D01*
X1076526Y106736D01*
X1076524Y106623D01*
X1076518Y106510D01*
X1076508Y106397D01*
X1076494Y106284D01*
X1076477Y106172D01*
X1076455Y106061D01*
X1076430Y105951D01*
X1076400Y105841D01*
X1076367Y105733D01*
X1076330Y105626D01*
X1076290Y105520D01*
X1076245Y105416D01*
X1076197Y105313D01*
X1076146Y105212D01*
X1076091Y105113D01*
X1076033Y105016D01*
X1075971Y104921D01*
X1075906Y104828D01*
X1075838Y104738D01*
X1075767Y104650D01*
X1075692Y104564D01*
X1075615Y104481D01*
X1075535Y104401D01*
X1075452Y104324D01*
X1075366Y104249D01*
X1075278Y104178D01*
X1075188Y104110D01*
X1075095Y104045D01*
X1075000Y103983D01*
X1074903Y103925D01*
X1074804Y103870D01*
X1074703Y103819D01*
X1074600Y103771D01*
X1074496Y103726D01*
X1074390Y103686D01*
X1074283Y103649D01*
X1074175Y103616D01*
X1074065Y103586D01*
X1073955Y103561D01*
X1073844Y103539D01*
X1073732Y103522D01*
X1073619Y103508D01*
X1073506Y103498D01*
X1073393Y103492D01*
X1073280Y103490D01*
X1073280Y103491D02*
X1070035Y103491D01*
X1073929Y103491D02*
X1076526Y98298D01*
X1081391Y98298D02*
X1084636Y98298D01*
X1084749Y98300D01*
X1084862Y98306D01*
X1084975Y98316D01*
X1085088Y98330D01*
X1085200Y98347D01*
X1085311Y98369D01*
X1085421Y98394D01*
X1085531Y98424D01*
X1085639Y98457D01*
X1085746Y98494D01*
X1085852Y98534D01*
X1085956Y98579D01*
X1086059Y98627D01*
X1086160Y98678D01*
X1086259Y98733D01*
X1086356Y98791D01*
X1086451Y98853D01*
X1086544Y98918D01*
X1086634Y98986D01*
X1086722Y99057D01*
X1086808Y99132D01*
X1086891Y99209D01*
X1086971Y99289D01*
X1087048Y99372D01*
X1087123Y99458D01*
X1087194Y99546D01*
X1087262Y99636D01*
X1087327Y99729D01*
X1087389Y99824D01*
X1087447Y99921D01*
X1087502Y100020D01*
X1087553Y100121D01*
X1087601Y100224D01*
X1087646Y100328D01*
X1087686Y100434D01*
X1087723Y100541D01*
X1087756Y100649D01*
X1087786Y100759D01*
X1087811Y100869D01*
X1087833Y100980D01*
X1087850Y101092D01*
X1087864Y101205D01*
X1087874Y101318D01*
X1087880Y101431D01*
X1087882Y101544D01*
X1087880Y101657D01*
X1087874Y101770D01*
X1087864Y101883D01*
X1087850Y101996D01*
X1087833Y102108D01*
X1087811Y102219D01*
X1087786Y102329D01*
X1087756Y102439D01*
X1087723Y102547D01*
X1087686Y102654D01*
X1087646Y102760D01*
X1087601Y102864D01*
X1087553Y102967D01*
X1087502Y103068D01*
X1087447Y103167D01*
X1087389Y103264D01*
X1087327Y103359D01*
X1087262Y103452D01*
X1087194Y103542D01*
X1087123Y103630D01*
X1087048Y103716D01*
X1086971Y103799D01*
X1086891Y103879D01*
X1086808Y103956D01*
X1086722Y104031D01*
X1086634Y104102D01*
X1086544Y104170D01*
X1086451Y104235D01*
X1086356Y104297D01*
X1086259Y104355D01*
X1086160Y104410D01*
X1086059Y104461D01*
X1085956Y104509D01*
X1085852Y104554D01*
X1085746Y104594D01*
X1085639Y104631D01*
X1085531Y104664D01*
X1085421Y104694D01*
X1085311Y104719D01*
X1085200Y104741D01*
X1085088Y104758D01*
X1084975Y104772D01*
X1084862Y104782D01*
X1084749Y104788D01*
X1084636Y104790D01*
X1085286Y109982D02*
X1081391Y109982D01*
X1085286Y109982D02*
X1085387Y109980D01*
X1085487Y109974D01*
X1085587Y109964D01*
X1085687Y109951D01*
X1085786Y109933D01*
X1085885Y109912D01*
X1085982Y109887D01*
X1086079Y109858D01*
X1086174Y109825D01*
X1086268Y109789D01*
X1086360Y109749D01*
X1086451Y109706D01*
X1086540Y109659D01*
X1086627Y109609D01*
X1086713Y109555D01*
X1086796Y109498D01*
X1086876Y109438D01*
X1086955Y109375D01*
X1087031Y109308D01*
X1087104Y109239D01*
X1087174Y109167D01*
X1087242Y109093D01*
X1087307Y109016D01*
X1087368Y108936D01*
X1087427Y108854D01*
X1087482Y108770D01*
X1087534Y108684D01*
X1087583Y108596D01*
X1087628Y108506D01*
X1087670Y108414D01*
X1087708Y108321D01*
X1087742Y108226D01*
X1087773Y108131D01*
X1087800Y108034D01*
X1087823Y107936D01*
X1087843Y107837D01*
X1087858Y107737D01*
X1087870Y107637D01*
X1087878Y107537D01*
X1087882Y107436D01*
X1087882Y107336D01*
X1087878Y107235D01*
X1087870Y107135D01*
X1087858Y107035D01*
X1087843Y106935D01*
X1087823Y106836D01*
X1087800Y106738D01*
X1087773Y106641D01*
X1087742Y106546D01*
X1087708Y106451D01*
X1087670Y106358D01*
X1087628Y106266D01*
X1087583Y106176D01*
X1087534Y106088D01*
X1087482Y106002D01*
X1087427Y105918D01*
X1087368Y105836D01*
X1087307Y105756D01*
X1087242Y105679D01*
X1087174Y105605D01*
X1087104Y105533D01*
X1087031Y105464D01*
X1086955Y105397D01*
X1086876Y105334D01*
X1086796Y105274D01*
X1086713Y105217D01*
X1086627Y105163D01*
X1086540Y105113D01*
X1086451Y105066D01*
X1086360Y105023D01*
X1086268Y104983D01*
X1086174Y104947D01*
X1086079Y104914D01*
X1085982Y104885D01*
X1085885Y104860D01*
X1085786Y104839D01*
X1085687Y104821D01*
X1085587Y104808D01*
X1085487Y104798D01*
X1085387Y104792D01*
X1085286Y104790D01*
X1085286Y104789D02*
X1082689Y104789D01*
X963874Y172212D02*
X960628Y169616D01*
X963874Y172212D02*
X963874Y160528D01*
X967119Y160528D02*
X960628Y160528D01*
X972462Y160528D02*
X972462Y172212D01*
X977654Y168317D02*
X972462Y164423D01*
X974733Y166045D02*
X977654Y160528D01*
X860485Y140462D02*
X860485Y128778D01*
X860485Y140462D02*
X863730Y140462D01*
X863843Y140460D01*
X863956Y140454D01*
X864069Y140444D01*
X864182Y140430D01*
X864294Y140413D01*
X864405Y140391D01*
X864515Y140366D01*
X864625Y140336D01*
X864733Y140303D01*
X864840Y140266D01*
X864946Y140226D01*
X865050Y140181D01*
X865153Y140133D01*
X865254Y140082D01*
X865353Y140027D01*
X865450Y139969D01*
X865545Y139907D01*
X865638Y139842D01*
X865728Y139774D01*
X865816Y139703D01*
X865902Y139628D01*
X865985Y139551D01*
X866065Y139471D01*
X866142Y139388D01*
X866217Y139302D01*
X866288Y139214D01*
X866356Y139124D01*
X866421Y139031D01*
X866483Y138936D01*
X866541Y138839D01*
X866596Y138740D01*
X866647Y138639D01*
X866695Y138536D01*
X866740Y138432D01*
X866780Y138326D01*
X866817Y138219D01*
X866850Y138111D01*
X866880Y138001D01*
X866905Y137891D01*
X866927Y137780D01*
X866944Y137668D01*
X866958Y137555D01*
X866968Y137442D01*
X866974Y137329D01*
X866976Y137216D01*
X866974Y137103D01*
X866968Y136990D01*
X866958Y136877D01*
X866944Y136764D01*
X866927Y136652D01*
X866905Y136541D01*
X866880Y136431D01*
X866850Y136321D01*
X866817Y136213D01*
X866780Y136106D01*
X866740Y136000D01*
X866695Y135896D01*
X866647Y135793D01*
X866596Y135692D01*
X866541Y135593D01*
X866483Y135496D01*
X866421Y135401D01*
X866356Y135308D01*
X866288Y135218D01*
X866217Y135130D01*
X866142Y135044D01*
X866065Y134961D01*
X865985Y134881D01*
X865902Y134804D01*
X865816Y134729D01*
X865728Y134658D01*
X865638Y134590D01*
X865545Y134525D01*
X865450Y134463D01*
X865353Y134405D01*
X865254Y134350D01*
X865153Y134299D01*
X865050Y134251D01*
X864946Y134206D01*
X864840Y134166D01*
X864733Y134129D01*
X864625Y134096D01*
X864515Y134066D01*
X864405Y134041D01*
X864294Y134019D01*
X864182Y134002D01*
X864069Y133988D01*
X863956Y133978D01*
X863843Y133972D01*
X863730Y133970D01*
X863730Y133971D02*
X860485Y133971D01*
X864379Y133971D02*
X866976Y128778D01*
X871841Y131374D02*
X874437Y140462D01*
X871841Y131374D02*
X878332Y131374D01*
X876385Y133971D02*
X876385Y128778D01*
X884166Y136596D02*
X887411Y139192D01*
X887411Y127508D01*
X884166Y127508D02*
X890657Y127508D01*
X895596Y133350D02*
X895599Y133580D01*
X895607Y133810D01*
X895621Y134039D01*
X895640Y134268D01*
X895665Y134497D01*
X895695Y134724D01*
X895730Y134952D01*
X895771Y135178D01*
X895817Y135403D01*
X895869Y135627D01*
X895926Y135849D01*
X895988Y136071D01*
X896056Y136290D01*
X896129Y136508D01*
X896207Y136725D01*
X896290Y136939D01*
X896378Y137151D01*
X896471Y137361D01*
X896570Y137569D01*
X896569Y137569D02*
X896602Y137659D01*
X896638Y137748D01*
X896678Y137836D01*
X896722Y137921D01*
X896769Y138005D01*
X896819Y138087D01*
X896873Y138167D01*
X896929Y138244D01*
X896989Y138320D01*
X897052Y138393D01*
X897117Y138463D01*
X897186Y138531D01*
X897257Y138595D01*
X897330Y138657D01*
X897406Y138716D01*
X897484Y138772D01*
X897565Y138825D01*
X897647Y138874D01*
X897731Y138920D01*
X897818Y138963D01*
X897905Y139002D01*
X897995Y139038D01*
X898085Y139070D01*
X898177Y139098D01*
X898270Y139123D01*
X898364Y139144D01*
X898458Y139161D01*
X898553Y139175D01*
X898649Y139184D01*
X898745Y139190D01*
X898841Y139192D01*
X898937Y139190D01*
X899033Y139184D01*
X899129Y139175D01*
X899224Y139161D01*
X899318Y139144D01*
X899412Y139123D01*
X899505Y139098D01*
X899597Y139070D01*
X899687Y139038D01*
X899777Y139002D01*
X899864Y138963D01*
X899951Y138920D01*
X900035Y138874D01*
X900117Y138825D01*
X900198Y138772D01*
X900276Y138716D01*
X900352Y138657D01*
X900425Y138595D01*
X900496Y138531D01*
X900565Y138463D01*
X900630Y138393D01*
X900693Y138320D01*
X900753Y138244D01*
X900809Y138167D01*
X900863Y138087D01*
X900913Y138005D01*
X900960Y137921D01*
X901004Y137836D01*
X901044Y137748D01*
X901080Y137659D01*
X901113Y137569D01*
X901212Y137362D01*
X901305Y137152D01*
X901393Y136939D01*
X901476Y136725D01*
X901554Y136509D01*
X901627Y136291D01*
X901695Y136071D01*
X901757Y135850D01*
X901814Y135627D01*
X901866Y135403D01*
X901912Y135178D01*
X901953Y134952D01*
X901988Y134725D01*
X902018Y134497D01*
X902043Y134268D01*
X902062Y134039D01*
X902076Y133810D01*
X902084Y133580D01*
X902087Y133350D01*
X895595Y133350D02*
X895598Y133120D01*
X895606Y132890D01*
X895620Y132661D01*
X895639Y132432D01*
X895664Y132203D01*
X895694Y131975D01*
X895729Y131748D01*
X895770Y131522D01*
X895816Y131297D01*
X895868Y131073D01*
X895925Y130850D01*
X895987Y130629D01*
X896055Y130409D01*
X896128Y130191D01*
X896206Y129975D01*
X896289Y129761D01*
X896377Y129549D01*
X896470Y129338D01*
X896569Y129131D01*
X896602Y129041D01*
X896638Y128952D01*
X896679Y128864D01*
X896722Y128779D01*
X896769Y128695D01*
X896819Y128613D01*
X896873Y128533D01*
X896929Y128456D01*
X896989Y128380D01*
X897052Y128307D01*
X897117Y128237D01*
X897186Y128169D01*
X897257Y128105D01*
X897330Y128043D01*
X897406Y127984D01*
X897484Y127928D01*
X897565Y127875D01*
X897647Y127826D01*
X897731Y127780D01*
X897818Y127737D01*
X897905Y127698D01*
X897995Y127662D01*
X898085Y127630D01*
X898177Y127602D01*
X898270Y127577D01*
X898364Y127556D01*
X898458Y127539D01*
X898553Y127525D01*
X898649Y127516D01*
X898745Y127510D01*
X898841Y127508D01*
X901113Y129131D02*
X901212Y129338D01*
X901305Y129549D01*
X901393Y129761D01*
X901476Y129975D01*
X901554Y130191D01*
X901627Y130409D01*
X901695Y130629D01*
X901757Y130850D01*
X901814Y131073D01*
X901866Y131297D01*
X901912Y131522D01*
X901953Y131748D01*
X901988Y131975D01*
X902018Y132203D01*
X902043Y132432D01*
X902062Y132661D01*
X902076Y132890D01*
X902084Y133120D01*
X902087Y133350D01*
X901113Y129131D02*
X901080Y129041D01*
X901044Y128952D01*
X901004Y128864D01*
X900960Y128779D01*
X900913Y128695D01*
X900863Y128613D01*
X900809Y128533D01*
X900753Y128456D01*
X900693Y128380D01*
X900630Y128307D01*
X900565Y128237D01*
X900496Y128169D01*
X900425Y128105D01*
X900352Y128043D01*
X900276Y127984D01*
X900198Y127928D01*
X900117Y127875D01*
X900035Y127826D01*
X899951Y127780D01*
X899864Y127737D01*
X899777Y127698D01*
X899687Y127662D01*
X899597Y127630D01*
X899505Y127602D01*
X899412Y127577D01*
X899318Y127556D01*
X899224Y127539D01*
X899129Y127525D01*
X899033Y127516D01*
X898937Y127510D01*
X898841Y127508D01*
X896245Y130104D02*
X901438Y136596D01*
X907429Y139192D02*
X907429Y127508D01*
X907429Y131403D02*
X912622Y135297D01*
X909701Y133025D02*
X912622Y127508D01*
X993149Y93218D02*
X995746Y93218D01*
X993149Y93218D02*
X993050Y93220D01*
X992950Y93226D01*
X992851Y93235D01*
X992753Y93248D01*
X992655Y93265D01*
X992557Y93286D01*
X992461Y93311D01*
X992366Y93339D01*
X992272Y93371D01*
X992179Y93406D01*
X992087Y93445D01*
X991997Y93488D01*
X991909Y93533D01*
X991822Y93583D01*
X991738Y93635D01*
X991655Y93691D01*
X991575Y93749D01*
X991497Y93811D01*
X991422Y93876D01*
X991349Y93944D01*
X991279Y94014D01*
X991211Y94087D01*
X991146Y94162D01*
X991084Y94240D01*
X991026Y94320D01*
X990970Y94403D01*
X990918Y94487D01*
X990868Y94574D01*
X990823Y94662D01*
X990780Y94752D01*
X990741Y94844D01*
X990706Y94937D01*
X990674Y95031D01*
X990646Y95126D01*
X990621Y95222D01*
X990600Y95320D01*
X990583Y95418D01*
X990570Y95516D01*
X990561Y95615D01*
X990555Y95715D01*
X990553Y95814D01*
X990553Y102306D01*
X990555Y102405D01*
X990561Y102505D01*
X990570Y102604D01*
X990583Y102702D01*
X990600Y102800D01*
X990621Y102898D01*
X990646Y102994D01*
X990674Y103089D01*
X990706Y103183D01*
X990741Y103276D01*
X990780Y103368D01*
X990823Y103458D01*
X990868Y103546D01*
X990918Y103633D01*
X990970Y103717D01*
X991026Y103800D01*
X991084Y103880D01*
X991146Y103958D01*
X991211Y104033D01*
X991279Y104106D01*
X991349Y104176D01*
X991422Y104244D01*
X991497Y104309D01*
X991575Y104371D01*
X991655Y104429D01*
X991738Y104485D01*
X991822Y104537D01*
X991909Y104587D01*
X991997Y104632D01*
X992087Y104675D01*
X992179Y104714D01*
X992271Y104749D01*
X992366Y104781D01*
X992461Y104809D01*
X992557Y104834D01*
X992655Y104855D01*
X992753Y104872D01*
X992851Y104885D01*
X992950Y104894D01*
X993050Y104900D01*
X993149Y104902D01*
X995746Y104902D01*
X1000111Y102306D02*
X1003356Y104902D01*
X1003356Y93218D01*
X1000111Y93218D02*
X1006602Y93218D01*
X849580Y112169D02*
X849481Y111961D01*
X849388Y111751D01*
X849300Y111539D01*
X849217Y111325D01*
X849139Y111108D01*
X849066Y110890D01*
X848998Y110671D01*
X848936Y110449D01*
X848879Y110227D01*
X848827Y110003D01*
X848781Y109778D01*
X848740Y109552D01*
X848705Y109324D01*
X848675Y109097D01*
X848650Y108868D01*
X848631Y108639D01*
X848617Y108410D01*
X848609Y108180D01*
X848606Y107950D01*
X849579Y112169D02*
X849612Y112259D01*
X849648Y112348D01*
X849688Y112436D01*
X849732Y112521D01*
X849779Y112605D01*
X849829Y112687D01*
X849883Y112767D01*
X849939Y112844D01*
X849999Y112920D01*
X850062Y112993D01*
X850127Y113063D01*
X850196Y113131D01*
X850267Y113195D01*
X850340Y113257D01*
X850416Y113316D01*
X850494Y113372D01*
X850575Y113425D01*
X850657Y113474D01*
X850741Y113520D01*
X850828Y113563D01*
X850915Y113602D01*
X851005Y113638D01*
X851095Y113670D01*
X851187Y113698D01*
X851280Y113723D01*
X851374Y113744D01*
X851468Y113761D01*
X851563Y113775D01*
X851659Y113784D01*
X851755Y113790D01*
X851851Y113792D01*
X851947Y113790D01*
X852043Y113784D01*
X852139Y113775D01*
X852234Y113761D01*
X852328Y113744D01*
X852422Y113723D01*
X852515Y113698D01*
X852607Y113670D01*
X852697Y113638D01*
X852787Y113602D01*
X852874Y113563D01*
X852961Y113520D01*
X853045Y113474D01*
X853127Y113425D01*
X853208Y113372D01*
X853286Y113316D01*
X853362Y113257D01*
X853435Y113195D01*
X853506Y113131D01*
X853575Y113063D01*
X853640Y112993D01*
X853703Y112920D01*
X853763Y112844D01*
X853819Y112767D01*
X853873Y112687D01*
X853923Y112605D01*
X853970Y112521D01*
X854014Y112436D01*
X854054Y112348D01*
X854090Y112259D01*
X854123Y112169D01*
X854222Y111962D01*
X854315Y111752D01*
X854403Y111539D01*
X854486Y111325D01*
X854564Y111109D01*
X854637Y110891D01*
X854705Y110671D01*
X854767Y110450D01*
X854824Y110227D01*
X854876Y110003D01*
X854922Y109778D01*
X854963Y109552D01*
X854998Y109325D01*
X855028Y109097D01*
X855053Y108868D01*
X855072Y108639D01*
X855086Y108410D01*
X855094Y108180D01*
X855097Y107950D01*
X848605Y107950D02*
X848608Y107720D01*
X848616Y107490D01*
X848630Y107261D01*
X848649Y107032D01*
X848674Y106803D01*
X848704Y106575D01*
X848739Y106348D01*
X848780Y106122D01*
X848826Y105897D01*
X848878Y105673D01*
X848935Y105450D01*
X848997Y105229D01*
X849065Y105009D01*
X849138Y104791D01*
X849216Y104575D01*
X849299Y104361D01*
X849387Y104149D01*
X849480Y103938D01*
X849579Y103731D01*
X849612Y103641D01*
X849648Y103552D01*
X849689Y103464D01*
X849732Y103379D01*
X849779Y103295D01*
X849829Y103213D01*
X849883Y103133D01*
X849939Y103056D01*
X849999Y102980D01*
X850062Y102907D01*
X850127Y102837D01*
X850196Y102769D01*
X850267Y102705D01*
X850340Y102643D01*
X850416Y102584D01*
X850494Y102528D01*
X850575Y102475D01*
X850657Y102426D01*
X850741Y102380D01*
X850828Y102337D01*
X850915Y102298D01*
X851005Y102262D01*
X851095Y102230D01*
X851187Y102202D01*
X851280Y102177D01*
X851374Y102156D01*
X851468Y102139D01*
X851563Y102125D01*
X851659Y102116D01*
X851755Y102110D01*
X851851Y102108D01*
X854123Y103731D02*
X854222Y103938D01*
X854315Y104149D01*
X854403Y104361D01*
X854486Y104575D01*
X854564Y104791D01*
X854637Y105009D01*
X854705Y105229D01*
X854767Y105450D01*
X854824Y105673D01*
X854876Y105897D01*
X854922Y106122D01*
X854963Y106348D01*
X854998Y106575D01*
X855028Y106803D01*
X855053Y107032D01*
X855072Y107261D01*
X855086Y107490D01*
X855094Y107720D01*
X855097Y107950D01*
X854123Y103731D02*
X854090Y103641D01*
X854054Y103552D01*
X854014Y103464D01*
X853970Y103379D01*
X853923Y103295D01*
X853873Y103213D01*
X853819Y103133D01*
X853763Y103056D01*
X853703Y102980D01*
X853640Y102907D01*
X853575Y102837D01*
X853506Y102769D01*
X853435Y102705D01*
X853362Y102643D01*
X853286Y102584D01*
X853208Y102528D01*
X853127Y102475D01*
X853045Y102426D01*
X852961Y102380D01*
X852874Y102337D01*
X852787Y102298D01*
X852697Y102262D01*
X852607Y102230D01*
X852515Y102202D01*
X852422Y102177D01*
X852328Y102156D01*
X852234Y102139D01*
X852139Y102125D01*
X852043Y102116D01*
X851947Y102110D01*
X851851Y102108D01*
X849255Y104704D02*
X854448Y111196D01*
X859528Y102757D02*
X859528Y102108D01*
X859528Y102757D02*
X860177Y102757D01*
X860177Y102108D01*
X859528Y102108D01*
X864608Y111196D02*
X867853Y113792D01*
X867853Y102108D01*
X864608Y102108D02*
X871099Y102108D01*
X876306Y104055D02*
X876306Y109897D01*
X876306Y104055D02*
X876308Y103968D01*
X876314Y103880D01*
X876324Y103794D01*
X876337Y103707D01*
X876355Y103622D01*
X876376Y103537D01*
X876401Y103453D01*
X876430Y103371D01*
X876463Y103290D01*
X876499Y103210D01*
X876538Y103132D01*
X876582Y103056D01*
X876628Y102982D01*
X876678Y102911D01*
X876731Y102841D01*
X876787Y102774D01*
X876846Y102710D01*
X876908Y102648D01*
X876972Y102589D01*
X877039Y102533D01*
X877109Y102480D01*
X877180Y102430D01*
X877254Y102384D01*
X877330Y102340D01*
X877408Y102301D01*
X877488Y102265D01*
X877569Y102232D01*
X877651Y102203D01*
X877735Y102178D01*
X877820Y102157D01*
X877905Y102139D01*
X877992Y102126D01*
X878078Y102116D01*
X878166Y102110D01*
X878253Y102108D01*
X881499Y102108D01*
X881499Y109897D01*
X887109Y113792D02*
X887109Y102108D01*
X887109Y113792D02*
X892302Y113792D01*
X892302Y108599D02*
X887109Y108599D01*
M02*
