G04 EAGLE Gerber RS-274X export*
G75*
%MOMM*%
%FSLAX34Y34*%
%LPD*%
%INSoldermask Bottom*%
%IPPOS*%
%AMOC8*
5,1,8,0,0,1.08239X$1,22.5*%
G01*
%ADD10P,2.034460X8X22.500000*%
%ADD11C,2.903200*%
%ADD12C,3.203200*%
%ADD13C,0.959600*%


D10*
X955040Y495300D03*
X929640Y12700D03*
X980440Y495300D03*
X1005840Y495300D03*
X1031240Y495300D03*
X1056640Y495300D03*
X929640Y495300D03*
X904240Y495300D03*
X878840Y495300D03*
X838200Y495300D03*
X812800Y495300D03*
X787400Y495300D03*
X762000Y495300D03*
X736600Y495300D03*
X711200Y495300D03*
X685800Y495300D03*
X660400Y495300D03*
X955040Y12700D03*
X980440Y12700D03*
X1005840Y12700D03*
X1031240Y12700D03*
X1056640Y12700D03*
X878840Y12700D03*
X853440Y12700D03*
X828040Y12700D03*
X802640Y12700D03*
X777240Y12700D03*
X751840Y12700D03*
X635000Y495300D03*
X609600Y495300D03*
X726440Y12700D03*
X701040Y12700D03*
D11*
X1016000Y207010D03*
X961000Y207010D03*
D12*
X1089000Y207010D03*
D11*
X1017270Y332740D03*
X962270Y332740D03*
D12*
X1090270Y332740D03*
D11*
X543560Y435610D03*
X543560Y490610D03*
D12*
X543560Y362610D03*
D11*
X480060Y435610D03*
X480060Y490610D03*
D12*
X480060Y362610D03*
D11*
X1017270Y396240D03*
X962270Y396240D03*
D12*
X1090270Y396240D03*
D13*
X930910Y123190D03*
M02*
