M48
;GenerationSoftware,Autodesk,EAGLE,9.5.1*%
;CreationDate,2022-03-18T21:07:49Z*%
FMAT,2
ICI,OFF
METRIC,TZ,000.000
T3C1.000
T2C1.800
T1C3.000
%
G90
M71
T1
X67498Y21590
X67625Y28448
X-3998Y6985
X-3871Y13589
X-3998Y28321
X-3871Y20828
T2
X8929Y20828
X3429Y20828
X8802Y28321
X3302Y28321
X8929Y13589
X3429Y13589
X8802Y6985
X3302Y6985
X54825Y28448
X60325Y28448
X54698Y21590
X60198Y21590
T3
X34036Y50800
X31496Y50800
X28956Y50800
X26416Y50800
X23876Y50800
X53340Y2540
X55880Y2540
X53340Y50800
X60960Y2540
X63500Y2540
X45720Y2540
X43180Y2540
X40640Y2540
X38100Y2540
X35560Y2540
X33020Y2540
X21336Y50800
X18796Y50800
X30480Y2540
X27940Y2540
X36576Y50800
X39116Y50800
X41656Y50800
X45720Y50800
X48260Y50800
X50800Y50800
X63500Y50800
X60960Y50800
X58420Y50800
X55880Y50800
X50800Y2540
X58420Y2540
M30