G04 EAGLE Gerber RS-274X export*
G75*
%MOMM*%
%FSLAX34Y34*%
%LPD*%
%INSoldermask Bottom*%
%IPPOS*%
%AMOC8*
5,1,8,0,0,1.08239X$1,22.5*%
G01*
%ADD10P,2.034460X8X22.500000*%
%ADD11R,1.203200X1.303200*%
%ADD12R,1.303200X1.203200*%
%ADD13C,2.903200*%
%ADD14C,3.203200*%


D10*
X533400Y508000D03*
X508000Y25400D03*
X558800Y508000D03*
X584200Y508000D03*
X609600Y508000D03*
X635000Y508000D03*
X508000Y508000D03*
X482600Y508000D03*
X457200Y508000D03*
X416560Y508000D03*
X391160Y508000D03*
X365760Y508000D03*
X340360Y508000D03*
X314960Y508000D03*
X289560Y508000D03*
X264160Y508000D03*
X238760Y508000D03*
X533400Y25400D03*
X558800Y25400D03*
X584200Y25400D03*
X609600Y25400D03*
X635000Y25400D03*
X457200Y25400D03*
X431800Y25400D03*
X406400Y25400D03*
X381000Y25400D03*
X355600Y25400D03*
X330200Y25400D03*
X213360Y508000D03*
X187960Y508000D03*
X304800Y25400D03*
X279400Y25400D03*
D11*
X629530Y163830D03*
X612530Y163830D03*
X611260Y130810D03*
X628260Y130810D03*
D12*
X630800Y87630D03*
X613800Y87630D03*
D13*
X601980Y215900D03*
X546980Y215900D03*
D14*
X674980Y215900D03*
D11*
X549520Y165100D03*
X532520Y165100D03*
X532520Y135890D03*
X549520Y135890D03*
D12*
X532520Y105410D03*
X549520Y105410D03*
D13*
X603250Y284480D03*
X548250Y284480D03*
D14*
X676250Y284480D03*
D13*
X33020Y69850D03*
X88020Y69850D03*
D14*
X-39980Y69850D03*
D13*
X34290Y135890D03*
X89290Y135890D03*
D14*
X-38710Y135890D03*
D13*
X33020Y283210D03*
X88020Y283210D03*
D14*
X-39980Y283210D03*
D13*
X34290Y208280D03*
X89290Y208280D03*
D14*
X-38710Y208280D03*
M02*
