G04 EAGLE Gerber RS-274X export*
G75*
%MOMM*%
%FSLAX34Y34*%
%LPD*%
%INSilkscreen Bottom*%
%IPPOS*%
%AMOC8*
5,1,8,0,0,1.08239X$1,22.5*%
G01*
%ADD10C,0.000000*%
%ADD11C,0.101600*%


D10*
X0Y0D02*
X660400Y0D01*
X660400Y25400D01*
X685800Y50800D01*
X685800Y378460D01*
X660400Y403860D01*
X660400Y518160D01*
X645160Y533400D01*
X0Y533400D01*
X0Y0D01*
D11*
X670712Y190168D02*
X670712Y201852D01*
X667466Y201852D01*
X667353Y201850D01*
X667240Y201844D01*
X667127Y201834D01*
X667014Y201820D01*
X666902Y201803D01*
X666791Y201781D01*
X666681Y201756D01*
X666571Y201726D01*
X666463Y201693D01*
X666356Y201656D01*
X666250Y201616D01*
X666146Y201571D01*
X666043Y201523D01*
X665942Y201472D01*
X665843Y201417D01*
X665746Y201359D01*
X665651Y201297D01*
X665558Y201232D01*
X665468Y201164D01*
X665380Y201093D01*
X665294Y201018D01*
X665211Y200941D01*
X665131Y200861D01*
X665054Y200778D01*
X664979Y200692D01*
X664908Y200604D01*
X664840Y200514D01*
X664775Y200421D01*
X664713Y200326D01*
X664655Y200229D01*
X664600Y200130D01*
X664549Y200029D01*
X664501Y199926D01*
X664456Y199822D01*
X664416Y199716D01*
X664379Y199609D01*
X664346Y199501D01*
X664316Y199391D01*
X664291Y199281D01*
X664269Y199170D01*
X664252Y199058D01*
X664238Y198945D01*
X664228Y198832D01*
X664222Y198719D01*
X664220Y198606D01*
X664222Y198493D01*
X664228Y198380D01*
X664238Y198267D01*
X664252Y198154D01*
X664269Y198042D01*
X664291Y197931D01*
X664316Y197821D01*
X664346Y197711D01*
X664379Y197603D01*
X664416Y197496D01*
X664456Y197390D01*
X664501Y197286D01*
X664549Y197183D01*
X664600Y197082D01*
X664655Y196983D01*
X664713Y196886D01*
X664775Y196791D01*
X664840Y196698D01*
X664908Y196608D01*
X664979Y196520D01*
X665054Y196434D01*
X665131Y196351D01*
X665211Y196271D01*
X665294Y196194D01*
X665380Y196119D01*
X665468Y196048D01*
X665558Y195980D01*
X665651Y195915D01*
X665746Y195853D01*
X665843Y195795D01*
X665942Y195740D01*
X666043Y195689D01*
X666146Y195641D01*
X666250Y195596D01*
X666356Y195556D01*
X666463Y195519D01*
X666571Y195486D01*
X666681Y195456D01*
X666791Y195431D01*
X666902Y195409D01*
X667014Y195392D01*
X667127Y195378D01*
X667240Y195368D01*
X667353Y195362D01*
X667466Y195360D01*
X667466Y195361D02*
X670712Y195361D01*
X666817Y195361D02*
X664221Y190168D01*
X659356Y199256D02*
X656110Y201852D01*
X656110Y190168D01*
X652865Y190168D02*
X659356Y190168D01*
X689304Y102108D02*
X691901Y102108D01*
X692000Y102110D01*
X692100Y102116D01*
X692199Y102125D01*
X692297Y102138D01*
X692395Y102155D01*
X692493Y102176D01*
X692589Y102201D01*
X692684Y102229D01*
X692778Y102261D01*
X692871Y102296D01*
X692963Y102335D01*
X693053Y102378D01*
X693141Y102423D01*
X693228Y102473D01*
X693312Y102525D01*
X693395Y102581D01*
X693475Y102639D01*
X693553Y102701D01*
X693628Y102766D01*
X693701Y102834D01*
X693771Y102904D01*
X693839Y102977D01*
X693904Y103052D01*
X693966Y103130D01*
X694024Y103210D01*
X694080Y103293D01*
X694132Y103377D01*
X694182Y103464D01*
X694227Y103552D01*
X694270Y103642D01*
X694309Y103734D01*
X694344Y103827D01*
X694376Y103921D01*
X694404Y104016D01*
X694429Y104112D01*
X694450Y104210D01*
X694467Y104308D01*
X694480Y104406D01*
X694489Y104505D01*
X694495Y104605D01*
X694497Y104704D01*
X694497Y111196D01*
X694495Y111295D01*
X694489Y111395D01*
X694480Y111494D01*
X694467Y111592D01*
X694450Y111690D01*
X694429Y111788D01*
X694404Y111884D01*
X694376Y111979D01*
X694344Y112073D01*
X694309Y112166D01*
X694270Y112258D01*
X694227Y112348D01*
X694182Y112436D01*
X694132Y112523D01*
X694080Y112607D01*
X694024Y112690D01*
X693966Y112770D01*
X693904Y112848D01*
X693839Y112923D01*
X693771Y112996D01*
X693701Y113066D01*
X693628Y113134D01*
X693553Y113199D01*
X693475Y113261D01*
X693395Y113319D01*
X693312Y113375D01*
X693228Y113427D01*
X693141Y113477D01*
X693053Y113522D01*
X692963Y113565D01*
X692871Y113604D01*
X692778Y113639D01*
X692684Y113671D01*
X692589Y113699D01*
X692493Y113724D01*
X692395Y113745D01*
X692297Y113762D01*
X692199Y113775D01*
X692100Y113784D01*
X692000Y113790D01*
X691901Y113792D01*
X689304Y113792D01*
X681369Y113792D02*
X681262Y113790D01*
X681156Y113784D01*
X681050Y113774D01*
X680944Y113761D01*
X680838Y113743D01*
X680734Y113722D01*
X680630Y113697D01*
X680527Y113668D01*
X680426Y113636D01*
X680326Y113599D01*
X680227Y113559D01*
X680129Y113516D01*
X680033Y113469D01*
X679939Y113418D01*
X679847Y113364D01*
X679757Y113307D01*
X679669Y113247D01*
X679584Y113183D01*
X679501Y113116D01*
X679420Y113046D01*
X679342Y112974D01*
X679266Y112898D01*
X679194Y112820D01*
X679124Y112739D01*
X679057Y112656D01*
X678993Y112571D01*
X678933Y112483D01*
X678876Y112393D01*
X678822Y112301D01*
X678771Y112207D01*
X678724Y112111D01*
X678681Y112013D01*
X678641Y111914D01*
X678604Y111814D01*
X678572Y111713D01*
X678543Y111610D01*
X678518Y111506D01*
X678497Y111402D01*
X678479Y111296D01*
X678466Y111190D01*
X678456Y111084D01*
X678450Y110978D01*
X678448Y110871D01*
X681369Y113792D02*
X681490Y113790D01*
X681611Y113784D01*
X681731Y113774D01*
X681852Y113761D01*
X681971Y113743D01*
X682091Y113722D01*
X682209Y113697D01*
X682326Y113668D01*
X682443Y113635D01*
X682558Y113599D01*
X682672Y113558D01*
X682785Y113515D01*
X682897Y113467D01*
X683006Y113416D01*
X683114Y113361D01*
X683221Y113303D01*
X683325Y113242D01*
X683427Y113177D01*
X683527Y113109D01*
X683625Y113038D01*
X683721Y112964D01*
X683814Y112887D01*
X683904Y112806D01*
X683992Y112723D01*
X684077Y112637D01*
X684160Y112548D01*
X684239Y112457D01*
X684316Y112363D01*
X684389Y112267D01*
X684459Y112169D01*
X684526Y112068D01*
X684590Y111965D01*
X684651Y111860D01*
X684708Y111753D01*
X684761Y111645D01*
X684811Y111535D01*
X684857Y111423D01*
X684900Y111310D01*
X684939Y111195D01*
X679422Y108599D02*
X679343Y108677D01*
X679267Y108757D01*
X679194Y108840D01*
X679124Y108926D01*
X679057Y109013D01*
X678993Y109104D01*
X678933Y109196D01*
X678875Y109290D01*
X678821Y109387D01*
X678771Y109485D01*
X678724Y109585D01*
X678680Y109686D01*
X678640Y109789D01*
X678604Y109894D01*
X678572Y109999D01*
X678543Y110106D01*
X678518Y110213D01*
X678496Y110322D01*
X678479Y110431D01*
X678465Y110540D01*
X678456Y110650D01*
X678450Y110761D01*
X678448Y110871D01*
X679422Y108599D02*
X684939Y102108D01*
X678448Y102108D01*
X453965Y98298D02*
X453965Y109982D01*
X450720Y109982D01*
X450607Y109980D01*
X450494Y109974D01*
X450381Y109964D01*
X450268Y109950D01*
X450156Y109933D01*
X450045Y109911D01*
X449935Y109886D01*
X449825Y109856D01*
X449717Y109823D01*
X449610Y109786D01*
X449504Y109746D01*
X449400Y109701D01*
X449297Y109653D01*
X449196Y109602D01*
X449097Y109547D01*
X449000Y109489D01*
X448905Y109427D01*
X448812Y109362D01*
X448722Y109294D01*
X448634Y109223D01*
X448548Y109148D01*
X448465Y109071D01*
X448385Y108991D01*
X448308Y108908D01*
X448233Y108822D01*
X448162Y108734D01*
X448094Y108644D01*
X448029Y108551D01*
X447967Y108456D01*
X447909Y108359D01*
X447854Y108260D01*
X447803Y108159D01*
X447755Y108056D01*
X447710Y107952D01*
X447670Y107846D01*
X447633Y107739D01*
X447600Y107631D01*
X447570Y107521D01*
X447545Y107411D01*
X447523Y107300D01*
X447506Y107188D01*
X447492Y107075D01*
X447482Y106962D01*
X447476Y106849D01*
X447474Y106736D01*
X447476Y106623D01*
X447482Y106510D01*
X447492Y106397D01*
X447506Y106284D01*
X447523Y106172D01*
X447545Y106061D01*
X447570Y105951D01*
X447600Y105841D01*
X447633Y105733D01*
X447670Y105626D01*
X447710Y105520D01*
X447755Y105416D01*
X447803Y105313D01*
X447854Y105212D01*
X447909Y105113D01*
X447967Y105016D01*
X448029Y104921D01*
X448094Y104828D01*
X448162Y104738D01*
X448233Y104650D01*
X448308Y104564D01*
X448385Y104481D01*
X448465Y104401D01*
X448548Y104324D01*
X448634Y104249D01*
X448722Y104178D01*
X448812Y104110D01*
X448905Y104045D01*
X449000Y103983D01*
X449097Y103925D01*
X449196Y103870D01*
X449297Y103819D01*
X449400Y103771D01*
X449504Y103726D01*
X449610Y103686D01*
X449717Y103649D01*
X449825Y103616D01*
X449935Y103586D01*
X450045Y103561D01*
X450156Y103539D01*
X450268Y103522D01*
X450381Y103508D01*
X450494Y103498D01*
X450607Y103492D01*
X450720Y103490D01*
X450720Y103491D02*
X453965Y103491D01*
X450071Y103491D02*
X447474Y98298D01*
X442609Y98298D02*
X439364Y98298D01*
X439251Y98300D01*
X439138Y98306D01*
X439025Y98316D01*
X438912Y98330D01*
X438800Y98347D01*
X438689Y98369D01*
X438579Y98394D01*
X438469Y98424D01*
X438361Y98457D01*
X438254Y98494D01*
X438148Y98534D01*
X438044Y98579D01*
X437941Y98627D01*
X437840Y98678D01*
X437741Y98733D01*
X437644Y98791D01*
X437549Y98853D01*
X437456Y98918D01*
X437366Y98986D01*
X437278Y99057D01*
X437192Y99132D01*
X437109Y99209D01*
X437029Y99289D01*
X436952Y99372D01*
X436877Y99458D01*
X436806Y99546D01*
X436738Y99636D01*
X436673Y99729D01*
X436611Y99824D01*
X436553Y99921D01*
X436498Y100020D01*
X436447Y100121D01*
X436399Y100224D01*
X436354Y100328D01*
X436314Y100434D01*
X436277Y100541D01*
X436244Y100649D01*
X436214Y100759D01*
X436189Y100869D01*
X436167Y100980D01*
X436150Y101092D01*
X436136Y101205D01*
X436126Y101318D01*
X436120Y101431D01*
X436118Y101544D01*
X436120Y101657D01*
X436126Y101770D01*
X436136Y101883D01*
X436150Y101996D01*
X436167Y102108D01*
X436189Y102219D01*
X436214Y102329D01*
X436244Y102439D01*
X436277Y102547D01*
X436314Y102654D01*
X436354Y102760D01*
X436399Y102864D01*
X436447Y102967D01*
X436498Y103068D01*
X436553Y103167D01*
X436611Y103264D01*
X436673Y103359D01*
X436738Y103452D01*
X436806Y103542D01*
X436877Y103630D01*
X436952Y103716D01*
X437029Y103799D01*
X437109Y103879D01*
X437192Y103956D01*
X437278Y104031D01*
X437366Y104102D01*
X437456Y104170D01*
X437549Y104235D01*
X437644Y104297D01*
X437741Y104355D01*
X437840Y104410D01*
X437941Y104461D01*
X438044Y104509D01*
X438148Y104554D01*
X438254Y104594D01*
X438361Y104631D01*
X438469Y104664D01*
X438579Y104694D01*
X438689Y104719D01*
X438800Y104741D01*
X438912Y104758D01*
X439025Y104772D01*
X439138Y104782D01*
X439251Y104788D01*
X439364Y104790D01*
X438714Y109982D02*
X442609Y109982D01*
X438714Y109982D02*
X438613Y109980D01*
X438513Y109974D01*
X438413Y109964D01*
X438313Y109951D01*
X438214Y109933D01*
X438115Y109912D01*
X438018Y109887D01*
X437921Y109858D01*
X437826Y109825D01*
X437732Y109789D01*
X437640Y109749D01*
X437549Y109706D01*
X437460Y109659D01*
X437373Y109609D01*
X437287Y109555D01*
X437204Y109498D01*
X437124Y109438D01*
X437045Y109375D01*
X436969Y109308D01*
X436896Y109239D01*
X436826Y109167D01*
X436758Y109093D01*
X436693Y109016D01*
X436632Y108936D01*
X436573Y108854D01*
X436518Y108770D01*
X436466Y108684D01*
X436417Y108596D01*
X436372Y108506D01*
X436330Y108414D01*
X436292Y108321D01*
X436258Y108226D01*
X436227Y108131D01*
X436200Y108034D01*
X436177Y107936D01*
X436157Y107837D01*
X436142Y107737D01*
X436130Y107637D01*
X436122Y107537D01*
X436118Y107436D01*
X436118Y107336D01*
X436122Y107235D01*
X436130Y107135D01*
X436142Y107035D01*
X436157Y106935D01*
X436177Y106836D01*
X436200Y106738D01*
X436227Y106641D01*
X436258Y106546D01*
X436292Y106451D01*
X436330Y106358D01*
X436372Y106266D01*
X436417Y106176D01*
X436466Y106088D01*
X436518Y106002D01*
X436573Y105918D01*
X436632Y105836D01*
X436693Y105756D01*
X436758Y105679D01*
X436826Y105605D01*
X436896Y105533D01*
X436969Y105464D01*
X437045Y105397D01*
X437124Y105334D01*
X437204Y105274D01*
X437287Y105217D01*
X437373Y105163D01*
X437460Y105113D01*
X437549Y105066D01*
X437640Y105023D01*
X437732Y104983D01*
X437826Y104947D01*
X437921Y104914D01*
X438018Y104885D01*
X438115Y104860D01*
X438214Y104839D01*
X438313Y104821D01*
X438413Y104808D01*
X438513Y104798D01*
X438613Y104792D01*
X438714Y104790D01*
X438714Y104789D02*
X441311Y104789D01*
X663515Y127508D02*
X663515Y139192D01*
X660270Y139192D01*
X660157Y139190D01*
X660044Y139184D01*
X659931Y139174D01*
X659818Y139160D01*
X659706Y139143D01*
X659595Y139121D01*
X659485Y139096D01*
X659375Y139066D01*
X659267Y139033D01*
X659160Y138996D01*
X659054Y138956D01*
X658950Y138911D01*
X658847Y138863D01*
X658746Y138812D01*
X658647Y138757D01*
X658550Y138699D01*
X658455Y138637D01*
X658362Y138572D01*
X658272Y138504D01*
X658184Y138433D01*
X658098Y138358D01*
X658015Y138281D01*
X657935Y138201D01*
X657858Y138118D01*
X657783Y138032D01*
X657712Y137944D01*
X657644Y137854D01*
X657579Y137761D01*
X657517Y137666D01*
X657459Y137569D01*
X657404Y137470D01*
X657353Y137369D01*
X657305Y137266D01*
X657260Y137162D01*
X657220Y137056D01*
X657183Y136949D01*
X657150Y136841D01*
X657120Y136731D01*
X657095Y136621D01*
X657073Y136510D01*
X657056Y136398D01*
X657042Y136285D01*
X657032Y136172D01*
X657026Y136059D01*
X657024Y135946D01*
X657026Y135833D01*
X657032Y135720D01*
X657042Y135607D01*
X657056Y135494D01*
X657073Y135382D01*
X657095Y135271D01*
X657120Y135161D01*
X657150Y135051D01*
X657183Y134943D01*
X657220Y134836D01*
X657260Y134730D01*
X657305Y134626D01*
X657353Y134523D01*
X657404Y134422D01*
X657459Y134323D01*
X657517Y134226D01*
X657579Y134131D01*
X657644Y134038D01*
X657712Y133948D01*
X657783Y133860D01*
X657858Y133774D01*
X657935Y133691D01*
X658015Y133611D01*
X658098Y133534D01*
X658184Y133459D01*
X658272Y133388D01*
X658362Y133320D01*
X658455Y133255D01*
X658550Y133193D01*
X658647Y133135D01*
X658746Y133080D01*
X658847Y133029D01*
X658950Y132981D01*
X659054Y132936D01*
X659160Y132896D01*
X659267Y132859D01*
X659375Y132826D01*
X659485Y132796D01*
X659595Y132771D01*
X659706Y132749D01*
X659818Y132732D01*
X659931Y132718D01*
X660044Y132708D01*
X660157Y132702D01*
X660270Y132700D01*
X660270Y132701D02*
X663515Y132701D01*
X659621Y132701D02*
X657024Y127508D01*
X652159Y130104D02*
X649563Y139192D01*
X652159Y130104D02*
X645668Y130104D01*
X647615Y132701D02*
X647615Y127508D01*
X632451Y95758D02*
X629854Y95758D01*
X632451Y95758D02*
X632550Y95760D01*
X632650Y95766D01*
X632749Y95775D01*
X632847Y95788D01*
X632945Y95805D01*
X633043Y95826D01*
X633139Y95851D01*
X633234Y95879D01*
X633328Y95911D01*
X633421Y95946D01*
X633513Y95985D01*
X633603Y96028D01*
X633691Y96073D01*
X633778Y96123D01*
X633862Y96175D01*
X633945Y96231D01*
X634025Y96289D01*
X634103Y96351D01*
X634178Y96416D01*
X634251Y96484D01*
X634321Y96554D01*
X634389Y96627D01*
X634454Y96702D01*
X634516Y96780D01*
X634574Y96860D01*
X634630Y96943D01*
X634682Y97027D01*
X634732Y97114D01*
X634777Y97202D01*
X634820Y97292D01*
X634859Y97384D01*
X634894Y97477D01*
X634926Y97571D01*
X634954Y97666D01*
X634979Y97762D01*
X635000Y97860D01*
X635017Y97958D01*
X635030Y98056D01*
X635039Y98155D01*
X635045Y98255D01*
X635047Y98354D01*
X635047Y104846D01*
X635045Y104945D01*
X635039Y105045D01*
X635030Y105144D01*
X635017Y105242D01*
X635000Y105340D01*
X634979Y105438D01*
X634954Y105534D01*
X634926Y105629D01*
X634894Y105723D01*
X634859Y105816D01*
X634820Y105908D01*
X634777Y105998D01*
X634732Y106086D01*
X634682Y106173D01*
X634630Y106257D01*
X634574Y106340D01*
X634516Y106420D01*
X634454Y106498D01*
X634389Y106573D01*
X634321Y106646D01*
X634251Y106716D01*
X634178Y106784D01*
X634103Y106849D01*
X634025Y106911D01*
X633945Y106969D01*
X633862Y107025D01*
X633778Y107077D01*
X633691Y107127D01*
X633603Y107172D01*
X633513Y107215D01*
X633421Y107254D01*
X633328Y107289D01*
X633234Y107321D01*
X633139Y107349D01*
X633043Y107374D01*
X632945Y107395D01*
X632847Y107412D01*
X632749Y107425D01*
X632650Y107434D01*
X632550Y107440D01*
X632451Y107442D01*
X629854Y107442D01*
X625489Y104846D02*
X622244Y107442D01*
X622244Y95758D01*
X625489Y95758D02*
X618998Y95758D01*
M02*
