G04 EAGLE Gerber RS-274X export*
G75*
%MOMM*%
%FSLAX34Y34*%
%LPD*%
%INSoldermask Top*%
%IPPOS*%
%AMOC8*
5,1,8,0,0,1.08239X$1,22.5*%
G01*
%ADD10P,2.034460X8X22.500000*%
%ADD11C,2.903200*%
%ADD12C,3.203200*%
%ADD13C,1.625600*%


D10*
X533400Y508000D03*
X508000Y25400D03*
X558800Y508000D03*
X584200Y508000D03*
X609600Y508000D03*
X635000Y508000D03*
X508000Y508000D03*
X482600Y508000D03*
X457200Y508000D03*
X416560Y508000D03*
X391160Y508000D03*
X365760Y508000D03*
X340360Y508000D03*
X314960Y508000D03*
X289560Y508000D03*
X264160Y508000D03*
X238760Y508000D03*
X533400Y25400D03*
X558800Y25400D03*
X584200Y25400D03*
X609600Y25400D03*
X635000Y25400D03*
X457200Y25400D03*
X431800Y25400D03*
X406400Y25400D03*
X381000Y25400D03*
X355600Y25400D03*
X330200Y25400D03*
X213360Y508000D03*
X187960Y508000D03*
X304800Y25400D03*
X279400Y25400D03*
D11*
X601980Y215900D03*
X546980Y215900D03*
D12*
X674980Y215900D03*
D11*
X603250Y284480D03*
X548250Y284480D03*
D12*
X676250Y284480D03*
D11*
X33020Y69850D03*
X88020Y69850D03*
D12*
X-39980Y69850D03*
D11*
X34290Y135890D03*
X89290Y135890D03*
D12*
X-38710Y135890D03*
D11*
X33020Y283210D03*
X88020Y283210D03*
D12*
X-39980Y283210D03*
D11*
X34290Y208280D03*
X89290Y208280D03*
D12*
X-38710Y208280D03*
D13*
X339598Y364490D02*
X353822Y364490D01*
X353822Y389890D02*
X339598Y389890D01*
X339598Y415290D02*
X353822Y415290D01*
X429768Y415290D02*
X443992Y415290D01*
X443992Y389890D02*
X429768Y389890D01*
X429768Y364490D02*
X443992Y364490D01*
X486918Y364490D02*
X501142Y364490D01*
X501142Y389890D02*
X486918Y389890D01*
X486918Y415290D02*
X501142Y415290D01*
X577088Y415290D02*
X591312Y415290D01*
X591312Y389890D02*
X577088Y389890D01*
X577088Y364490D02*
X591312Y364490D01*
X46482Y361950D02*
X32258Y361950D01*
X32258Y387350D02*
X46482Y387350D01*
X46482Y412750D02*
X32258Y412750D01*
X122428Y412750D02*
X136652Y412750D01*
X136652Y387350D02*
X122428Y387350D01*
X122428Y361950D02*
X136652Y361950D01*
X189738Y365760D02*
X203962Y365760D01*
X203962Y391160D02*
X189738Y391160D01*
X189738Y416560D02*
X203962Y416560D01*
X279908Y416560D02*
X294132Y416560D01*
X294132Y391160D02*
X279908Y391160D01*
X279908Y365760D02*
X294132Y365760D01*
M02*
