M48
;GenerationSoftware,Autodesk,EAGLE,9.5.1*%
;CreationDate,2022-03-25T03:08:50Z*%
FMAT,2
ICI,OFF
METRIC,TZ,000.000
T4C0.350
T3C1.000
T2C1.800
T1C3.000
%
G90
M71
T1
X108900Y20701
X109027Y33274
X54356Y36261
X48006Y36261
X109027Y39624
T2
X96227Y39624
X101727Y39624
X48006Y49061
X48006Y43561
X54356Y49061
X54356Y43561
X96227Y33274
X101727Y33274
X96100Y20701
X101600Y20701
T3
X83820Y49530
X81280Y49530
X78740Y49530
X76200Y49530
X73660Y49530
X71120Y49530
X68580Y49530
X66040Y49530
X95504Y1270
X98044Y1270
X100584Y1270
X103124Y1270
X105664Y1270
X87884Y1270
X85344Y1270
X82804Y1270
X80264Y1270
X77724Y1270
X75184Y1270
X63500Y49530
X60960Y49530
X72644Y1270
X70104Y1270
X87884Y49530
X90424Y49530
X92964Y49530
X105664Y49530
X103124Y49530
X100584Y49530
X98044Y49530
X92964Y1270
X95504Y49530
T4
X93091Y12319
M30